<?xml version="1.0" encoding="utf-8"?>
<!-- Generator: Adobe Illustrator 23.0.5, SVG Export Plug-In . SVG Version: 6.00 Build 0)  -->
<svg version="1.1" id="Layer_1" xmlns="http://www.w3.org/2000/svg" xmlns:xlink="http://www.w3.org/1999/xlink" x="0px" y="0px"
	 viewBox="0 0 500 270" style="enable-background:new 0 0 500 270;" xml:space="preserve">
<style type="text/css">
	.st0{clip-path:url(#SVGID_2_);}
	.st1{opacity:0.1;fill:#FF714F;}
	.st2{fill:#FF725E;}
	.st3{opacity:0.6;fill:#FFFFFF;enable-background:new    ;}
	.st4{opacity:0.3;fill:#FF725E;enable-background:new    ;}
	.st5{fill:#FFBDA7;}
	.st6{fill:#263238;}
	.st7{fill:#37474F;}
	.st8{fill:#FAFAFA;}
	.st9{fill:#455A64;}
	.st10{opacity:0.15;enable-background:new    ;}
	.st11{fill:#F0997A;}
	.st12{fill:#9E6767;}
	.st13{fill:#F28F8F;}
	.st14{fill:#E0E0E0;}
</style>
<g>
	<defs>
		<rect id="SVGID_1_" width="500" height="270"/>
	</defs>
	<clipPath id="SVGID_2_">
		<use xlink:href="#SVGID_1_"  style="overflow:visible;"/>
	</clipPath>
	<g class="st0">
		<path class="st1" d="M87.5,277.6c-6.9-28.3,14.8-83.3,47.5-96.1c8.1-3.2,15.2-4.4,31.1-10.5c15.9-6.1,30.3-16.1,41.5-29.1
			c12.9-14.8,22.6-34.2,40.7-41.7c10.1-4.2,21.5-4,32.1-6.7c34.2-8.8,53.2-45.2,81.3-66.9c26.1-20.1,59.7-27.1,92.3-30.4
			c11.9-1.2,23.9-1.9,35.9-0.8c44.3,4.2,76.4,39.2,87.6,56.1c40.3,60.8-7.7,188.5-88.3,253.6C349.5,418,105.1,349.6,87.5,277.6z"/>
		<g id="freepik--character-4--inject-178">
			<g id="freepik--bean-bag--inject-178">
				<path class="st2" d="M450.9,96.1c13.6,7.8,33.2,26.4,33.2,59.8s-15.8,58.3-46.1,69.4c-16.2,5.9-42.1,6.3-58.8,0.3
					c-17-8.7-28.5-17.6-34.7-33.9c-6.4-18.8,5.1-38.6,20.7-49.8s13.8-24.1,24.8-37.5c5.9-7.2,14.7-13.3,25.4-14.5
					C427.1,88.6,440.6,90.2,450.9,96.1z"/>
				<path class="st3" d="M450.9,96.1c13.6,7.8,33.2,26.4,33.2,59.8s-15.8,58.3-46.1,69.4c-16.2,5.9-42.1,6.3-58.8,0.3
					c-17-8.7-28.5-17.6-34.7-33.9c-6.4-18.8,5.1-38.6,20.7-49.8s13.8-24.1,24.8-37.5c5.9-7.2,14.7-13.3,25.4-14.5
					C427.1,88.6,440.6,90.2,450.9,96.1z"/>
				<path class="st4" d="M374.7,152c10.1-5.6,12-11.7,20.8-34.4s24.7-21,24.7-21s23.4,0.8,29,17.5c3.9,11.5,3.8,34.2,0.1,46.5
					c-2.2,7.4-5.2,10.8-5.2,10.8c11.5-2.3,20.7,5.5,20.7,5.5s-9.7-4.6-25.6,1.8c-9.4,3.8-20.2,9-29.8,13c-6.9,2.6-13.1,7-17.8,12.7
					c-4.9,5.6-12.3,19.9-12.8,21c-10.1-5.2-18.3-10.6-24.5-17.6c-0.2-2.3,0-4.6-0.1-6.9c-0.2-8.4-0.3-16.7,0.1-25.1
					C355.2,156.6,364.7,157.6,374.7,152z"/>
				<path class="st4" d="M386.5,227.7c19.5,2.3,39.2-2.4,55.5-13.3c24.4-16.6,34.9-42.8,29.7-73.9c-4.6-27.4-18.4-42.6-32.1-48.9
					c3.1,0.8,6,1.9,8.9,3.3c11.2,8.1,21.1,22.6,24.9,45.3c5.3,31.8-5.5,58.6-30.4,75.6c-12.3,8.3-26.7,13.1-41.5,14
					C396.4,229.5,391.4,228.8,386.5,227.7z"/>
			</g>
			<g id="freepik--Character--inject-178">
				<g id="freepik--character--inject-178">
					<path class="st5" d="M383.6,182.1c1.7,1.3,3.9,0,5.7,1.4c1.3,1,2.1,2.4,2.3,4c0,0.8,0.2,1.6,0.5,2.4c0.5,0.9,1,1.7,1.4,2.6
						c0.8,1.4,1.6,2.7,2.5,4c2.2,3.1,2.3,7.4,1.3,11c-0.5,1.9-1.5,2.3-2.7,3.9c-0.8,1.1-2.2,2.3-3.7,2c-1.4-0.5-2.5-1.5-2.9-2.9
						c-0.7-1.5-0.4-2.1-0.7-3.8s-0.8-3.9-1.9-5.1c-0.9-1-1.8-2.1-2.6-3.2c-1.5-2-3.1-4-4.6-6c-0.1-0.2-0.3-0.4-0.5-0.6
						c-1.5-1.9-8.7-7.4-8.7-7.4l8-11.5L383.6,182.1z"/>
					<path class="st6" d="M390,183.2c0.9,0,1.8,0.4,2.5,1c0.7,1.5,1.1,3.1,1.1,4.8c0.1,2.3,0.2,3.2,1.4,4.5c1.6,1.6,2.9,3.6,3.6,5.8
						c1.2,3.4,0.9,7.2-0.9,10.3c-2.2,4-3.8,4.6-5,4.9c-1,0.1-2.1,0-3.1-0.4L390,183.2z"/>
					<path class="st7" d="M383,181.3l0.6,0.9c0.4,0.4,0.7,0.9,1,1.4c1.2,2.1,0.1,6-0.3,7c-0.7-0.3-1.4-0.2-2,0.1
						c-1.5,0.6-3.9,1.9-3.9,2.6s4.1,4.4,5.9,7.7s1.8,4.8,2,7.8c0.1,2.1,1.1,5.8,4.3,5.4c1.6-0.2,5.9-2.5,7.3-9
						c1.2-5.8-2.3-9.3-4.1-11.3s-1.7-3.7-2.2-6.9c-0.2-1.4-0.3-2.5-1.6-3.7c-1.8-1-3.8-0.9-5.1-1.3
						C383.7,181.5,383.5,180.8,383,181.3z"/>
					<path class="st6" d="M384.4,190.6c-0.1,0.3-0.2,0.6-0.1,0.9c0.1,0.3,0.3,0.6,0.5,0.8c0.4,0.5,0.7,0.9,1.1,1.4
						c0.7,1,1.4,1.9,2.1,2.9c0.7,1,1.3,2,1.8,3.1c0.6,1.1,1,2.2,1.3,3.3c-0.1-1.2-0.4-2.4-0.9-3.5c-0.5-1.1-1.1-2.2-1.8-3.2
						c-0.7-1-1.4-2-2.2-2.9c-0.4-0.5-0.8-0.9-1.2-1.3c-0.2-0.2-0.4-0.4-0.5-0.7C384.4,191.1,384.4,190.8,384.4,190.6z"/>
					<path class="st8" d="M391.4,201.9c-1.6,0-5.3,1.4-5.5,2.8l0.1,0.4c-0.3-0.3-0.5-0.8-0.5-1.2c-0.1-0.8,2.1-2.6,5.6-2.9
						C391.6,201.2,391.9,201.8,391.4,201.9z"/>
					<path class="st8" d="M390.1,199.1c-1.6-0.1-5,1.1-5.4,2.5l0.1,0.3c-0.4-0.2-0.6-0.6-0.5-1c0-0.8,2-2.6,5.5-2.7
						C390.3,198.4,390.6,199.1,390.1,199.1z"/>
					<path class="st8" d="M388.5,196.4c-1.5,0-5,1.4-5.2,2.8l0.2,0.3c-0.4-0.2-0.6-0.5-0.7-0.9c-0.2-0.8,1.9-2.7,5.3-3.1
						C388.6,195.7,388.9,196.3,388.5,196.4z"/>
					<path class="st8" d="M387,194.1c-1.6,0-5.2,1.4-5.5,2.9l0.3,0.3c-0.4-0.2-0.6-0.6-0.7-1c-0.1-0.8,2.1-2.8,5.6-3.1
						C387.1,193.4,387.4,194,387,194.1z"/>
					<path class="st9" d="M395.2,139.6c-0.3,2.1-13.6,4-23.2,5.7c-10.9,2-16.2,3.7-20.6,7c-2.6,1.8-4.1,4.8-3.9,8
						c0.1,2.6,1.9,7,6.3,11.5c8.4,8.5,12.7,10.7,18.8,15.8c0,0,7.3-3.5,9-8.5l-8.1-11.3l28-4.4L395.2,139.6z"/>
					<path class="st7" d="M369,178c-0.4,1.9-0.8,3.9-1.2,5.8c1.6,1.2,3.1,2.4,4.8,3.8c0,0,7.3-3.5,9-8.5l-7.1-9.9
						C371.4,171.5,370.2,172.6,369,178z"/>
					<path class="st7" d="M401.5,163.4l-0.6-1.8c0,0-16.1,1.6-21.6,2.1c-4.7,0.5-5.7,0.5-7.7-1.8c-2.9-3.2-5.1-3.9-7.4-3.7
						c3.4,0.9,6.6,5.1,9.5,9.6L401.5,163.4z"/>
					<path class="st7" d="M395.6,155.2l-18.3,12l24.2-3.8l-4.6-19.1l-1.8-0.5C394.6,147.6,394.8,151.4,395.6,155.2z"/>
					<path class="st5" d="M372.9,227.5c0.3,1.9,1.5,4.6,0.9,6.9c-0.5,1.6-1.5,3-3,3.9c-0.8,0.4-1.5,0.8-2.1,1.4
						c-0.7,0.8-1.4,1.6-2,2.4c-1.1,1-2,2.2-2.9,3.3c-2.2,3.4-6.4,5.1-10.4,5.6c-2,0.3-4,0.1-5.9-0.4c-1.4-0.4-3.1-1.3-3.4-2.8
						s0.7-3,1.7-4c1.2-1.3,2.9-2,4.4-2.9c1.6-1.1,3-2.4,4.3-3.9c1.3-1.6,5.1-5,6.7-11.1c0.7-2.8,3-15,3-15l14.3,1.6
						C378.5,212.5,372.6,225.6,372.9,227.5z"/>
					<path class="st6" d="M374.3,235c0.3,0.9,0.3,2,0,2.9c-1.2,1.3-2.7,2.3-4.3,3c-2.2,1-3.1,1.5-3.9,3.1c-0.8,2.1-2.1,4-3.9,5.5
						c-2.5,2.1-6.4,3.4-11.9,2.9c-4.8-0.4-6.3-2.3-6.7-2.8c-0.5-0.9-0.8-1.8-0.8-2.8L374.3,235z"/>
					<path class="st7" d="M373.1,226.2c-0.1,0.5-0.2,1-0.3,1.6c-0.1,0.7-0.5,1.4-1,1.9c-1.7,1.6-4.7,2.1-5.8,2.2
						c-0.2-0.7-0.7-1.4-1.4-1.7c-2.1-1.4-4.6-2.1-5.3-1.8s-2.1,4.3-4.6,7.3s-4.8,4.2-7.9,6.1c-1.9,1.1-5.2,3-3.6,5.9
						c0.8,1.5,5.4,3.9,12.3,2.7c4.4-0.6,8.1-3.4,9.9-7.5c1.3-2.5,3-3.1,6-4.9c1.3-0.8,2.3-1.3,3-3c0.3-2.1-0.6-4.8-0.7-6.4
						C373.6,227.4,373.8,226.5,373.1,226.2z"/>
					<path class="st6" d="M366,231.9c-0.7,0-1.3,0.4-1.5,1c-0.4,0.7-0.8,1.4-1.3,2.1c-2.2,3-4.9,5.7-7.8,8c3.5-1.8,5.8-4.6,8-7.7
						c0.5-0.7,1-1.5,1.4-2.3C365,232.5,365.3,232,366,231.9z"/>
					<path class="st8" d="M356.7,242.5c-1.2-2.4-4.2-3.7-5.7-3.4l-0.4,0.3c0.2-0.4,0.6-0.7,1-0.9c0.8-0.4,4.2,0,5.8,3.4
						C357.4,242.4,356.9,243,356.7,242.5z"/>
					<path class="st8" d="M359.7,240.4c-1-2.3-4.5-3.8-6.1-3.5l-0.3,0.3c0.1-0.4,0.4-0.8,0.9-1c0.8-0.3,4.9,0.6,6.3,3.6
						C360.4,240.3,359.9,240.8,359.7,240.4z"/>
					<path class="st8" d="M361.9,237.8c-0.7-2-4.7-3.8-6.3-3.5l-0.3,0.4c0.1-0.4,0.3-0.8,0.6-1.1c0.8-0.5,5.1,0.7,6.6,3.5
						C362.7,237.7,362.2,238.2,361.9,237.8z"/>
					<path class="st8" d="M363.5,235.4c-0.6-2.1-4.8-3.7-6.3-3.4l-0.3,0.5c0-0.4,0.3-0.8,0.6-1c0.8-0.5,5.1,0,6.8,3.2
						C364.2,235.3,363.7,235.8,363.5,235.4z"/>
					<path class="st9" d="M395.2,139.6L395.2,139.6l36.4,7.4c0.1,5.1-0.4,12.4-2.3,16.6c-1.8,3.8-5.2,8.1-13.4,11.6
						c-9.8,4.1-21.7,7.5-24,8.5c-3.4,1.6-4.2,0.9-5.3,8.4c-0.7,4.8-1.4,5.9-6.5,18c-1.8,4.4-3.8,9.5-3.8,9.5
						c-1.9,2-11.1,0.7-13.4-2.6c0,0,5.6-31.7,7.3-37.6c0.9-3.3,1.8-6.3,6.2-9.9c3.7-3,21.9-13.6,21.9-13.6S394.5,150,395.2,139.6z"
						/>
					<path class="st7" d="M426.7,148.8c-0.2,8.5-0.4,13.6-12.4,18.6c-3.6,1.5-7.4,2.9-11,4.3c-10.8,4-19.3,7.2-20.1,11
						c-0.3,1.5-0.6,3.2-0.9,5.2c-0.7,5.9-2.1,11.7-4,17.4c-2,5.6-4.2,11.4-5.6,15.2c0.4,0,0.7,0,1-0.1c1.4-3.8,3.5-9.4,5.5-14.8
						c1.9-5.7,3.3-11.6,4-17.5c0.3-2,0.6-3.7,0.9-5.2c0.7-3.3,9.9-6.7,19.5-10.4c3.6-1.4,7.4-2.8,11-4.3c12.6-5.2,12.8-10.9,13-19.5
						c0-0.8,0-1.7,0.1-2.5l-1-0.3C426.7,147,426.7,148,426.7,148.8z"/>
					<path class="st7" d="M418,166.6c-0.1-0.1-3.4-3-1.3-9c1.7-4.6,2.5-9.5,2.3-14.4h1c0.2,5-0.5,10-2.3,14.7c-1.9,5.4,1,7.9,1,8
						L418,166.6z"/>
					<path class="st7" d="M363.4,213.2c1.2,2.5,9.3,5.3,14.1,3.5l-1.6,4.4c-3.7,1.9-10.3,0.7-13.2-3.1L363.4,213.2z"/>
					<path class="st10" d="M381.1,141.1c-3.4,0.9-6.9,1.9-9.6,2.8c-10.5,3.5-15.8,5-20.1,8.4c0,0-0.1,0.1-0.1,0.1l23.7,15.2l5.3-0.8
						c-1.3,0.8-2.4,1.6-3.2,2.2l15.6,10l25.8-13.3c0.2-0.1,0.2-0.3,0.1-0.4c0,0-0.1-0.1-0.1-0.1L381.1,141.1z"/>
					<path class="st5" d="M382.5,99.8c0-1.4,0.1-2.7,0.3-4c0.7-3.9-0.1-6.4-1.4-10c-0.2-0.6-0.5-1.3-0.7-1.9
						c-0.1-0.3-0.2-0.6-0.3-0.9c-0.1-0.3-0.1-0.5-0.5-0.6c-0.3,0-0.5,0.1-0.7,0.3c-0.7,0.6-1,1.5-1,2.4c0,0.9,0.1,1.8,0.3,2.7
						c0.1,0.7-0.6,0.3-0.9,0.1c-1.5-1.1-2.5-3.9-3.1-5.6c-0.3-1.1-0.7-2.3-1.2-3.3c-0.3-0.7-0.9-1.2-1.5-1.5
						c-0.5-0.2-0.9-0.3-1.1,0.3c-0.1,0.4-0.1,0.8,0,1.2c0.2,0.7,0.1,1.5-0.4,2.2c-0.4,0.4-0.7,0.8-1,1.3c-0.2,0.7-0.3,1.3-0.3,2
						c-0.3,0.5-0.5,1-0.9,1.5c-0.1,0.7-0.1,1.4,0,2.1c0.4,3.4,1.8,6.7,3.9,9.4c0.7,1,1.8,1.9,1.9,3.1c0.1,1.1,0.2,2.3,0.1,3.4
						c-0.1,1.5-0.2,4-0.4,6.2c-1,10.3-0.4,16.2,2.5,20.9c1.5,2.4,3.9,3,9.9-0.8c6.7-4.2,20.3-16.5,20.3-16.5l2-16.6
						c-1.4,0.1-6.5,0-9.5,3.2c-4.4,4.7-14.1,15-14.1,15S382.5,100.9,382.5,99.8z"/>
					<path class="st11" d="M384.5,115.2c0.6,1.8,2.2,7.5,0.7,10.5c3.3-3.5,0.8-12,0.8-12L384.5,115.2z"/>
					<path class="st11" d="M377.6,90.7c-0.8,2.1-1,5-0.2,6.6c0,0-1.4-0.9-1.2-3.5C376.1,92.6,376.7,91.5,377.6,90.7z"/>
					<g id="freepik--Top--inject-178">
						<path class="st2" d="M396.9,123.4c0.1,6.2,0.4,14-5,17.9c7.5,11,18,11.9,39.8,9.6c0.4-8.8,1.2-22.3,1.7-28.6
							c0,0,10.1-13.9-0.3-20.1c-2.7-1.6-5.5-3-8.4-4.1c-7.8-2.8-15.1-1.1-16.7-1.1C398.5,102.6,389.5,112.8,396.9,123.4z"/>
						<g id="freepik--Head--inject-178">
							<path class="st6" d="M433.8,94.5c3.1-3.5-0.7-7.3,0.3-12c1.2-5.8,2.5-14.2-4.6-16.1c-0.2-9.1-10.5-10.4-18.2-8.7
								c-3.5,0.8-7.4,1.3-10.2,3.7c-2.2,1.5-4.4,4.6-2.8,7.2c-2.4-0.2-4.5,2.4-3.3,4.6c0.6,1,1.7,1.5,2.5,2.4c1.2,1.2,0,2.8-1.4,1.5
								c-0.2,1.5,1.9,2.3,3.2,2.1c0.7-0.1,1.3-0.3,1.9-0.7c0.4-0.3,0.6-0.9,1.2-0.8c1.8,0.1,2,2.3,0.9,3.4c-2.9,2.4-7.4,4.7-5.6,9.2
								c0-1.7,1.8-2.5,3.1-2.8c-1.4,1.5-1.5,4,1,6.3c1.8,1.6,4.1,2.4,6.5,2.3c3.1,0.1,4.8,0.3,7.2,0.4c6.7,0.2,12.5,0.1,13.9-5.3
								c0.2,1.6,0,3.9-2.3,4.8C429.2,96.6,432.4,96.1,433.8,94.5z"/>
							<path class="st5" d="M430.2,81c0-0.2-0.1-0.3-0.1-0.5c-0.3-1-1.1-1.8-2.2-1.9c-1.1-0.1-2.2,0.3-2.9,1.1
								c-0.5,0.5-1.1,1.4-1.9,1.3s-0.8-0.7-0.7-1.4c0.1-0.8,0-1.7-0.3-2.5c-0.3-0.7-0.9-1.2-1.3-1.8c-0.3-0.7-0.5-1.4-0.6-2.1
								c-0.2-1.5-0.3-3-1.4-4.1c-1.6-1.7-6.1-1.9-8.5,0.6c-1.6-2.4-4.1-2.6-5.5-1.6s-2.9,2.3-3.1,11.3c-0.1,8.5,1.7,12.2,4.1,13.5
								c1.7,1,3.7,1.4,5.7,1.2l0.1,3.8c-8,8.2,4,11.4,12.8,0.4c0-3.4,0-11.6,0-11.6c0.2,0.3,0.5,0.6,0.9,0.8
								c0.6,0.3,1.4,0.4,2.1,0.2c1.1-0.4,2-1.2,2.4-2.3C430.4,83.9,430.5,82.4,430.2,81z"/>
							<path class="st6" d="M413.2,77.9c-0.1,0.7,0.3,1.3,1,1.5c0.7,0.1,1.3-0.3,1.4-1c0,0,0,0,0,0c0.1-0.7-0.4-1.3-1-1.5
								C413.9,76.8,413.3,77.2,413.2,77.9z"/>
							<path class="st6" d="M403.8,75.1l2.8-1.2c-0.3-0.7-1.1-1.1-1.8-0.9c0,0,0,0-0.1,0C403.9,73.4,403.5,74.3,403.8,75.1z"/>
							<path class="st6" d="M413.8,74l3,1.5c0.4-0.8,0.1-1.8-0.6-2.2c0,0-0.1,0-0.1,0C415.3,72.9,414.3,73.2,413.8,74z"/>
							<path class="st12" d="M413.9,85.3l-3.7,1.6c0.4,1,1.6,1.5,2.6,1.1c0.1,0,0.2-0.1,0.2-0.1C414,87.5,414.4,86.3,413.9,85.3
								C413.9,85.4,413.9,85.4,413.9,85.3z"/>
							<path class="st13" d="M412,88.2c0-1.1,0.8-2,1.9-2.1h0.2c0.1,0.8-0.3,1.5-1,1.9C412.7,88.1,412.4,88.2,412,88.2z"/>
							<path class="st6" d="M404.6,77.8c-0.1,0.7,0.3,1.3,1,1.4c0.6,0.1,1.3-0.3,1.4-0.9c0,0,0,0,0-0.1c0.1-0.7-0.3-1.3-1-1.4
								C405.3,76.7,404.7,77.1,404.6,77.8C404.6,77.8,404.6,77.8,404.6,77.8z"/>
							<path class="st11" d="M411.6,93.9c4.9-0.4,9.8-1.7,11.2-6.1c-0.2,2.1-1.3,4-3.1,5.1c-2.9,1.9-8.1,2.6-8.1,2.6L411.6,93.9z"/>
							<path class="st11" d="M410.5,77.1l-0.6,7.6l-4.1-1.1C406.6,81,408.2,78.7,410.5,77.1z"/>
						</g>
					</g>
					<path class="st6" d="M353.3,149.4v0.5c0,0.8,0.3,1.5,1,2l37.4,24c0.3,0.2,0.7,0.3,1.1,0.4c0.4,0,0.8-0.1,1.1-0.3l21.5-11.1
						c0.7-0.4,1.1-1.1,1.2-1.9v-0.7l0,0c0,0.1-0.1,0.2-0.1,0.2l-23.6,12.2L353.3,149.4z"/>
					<path class="st6" d="M392.8,174.7l-0.1,1.5c-0.4,0-0.8-0.1-1.1-0.4l-37.4-24c-0.7-0.4-1-1.2-1-2v-0.5L392.8,174.7z"/>
					<path class="st7" d="M353.3,149.4l23.4-12.1c0.4-0.2,0.9-0.2,1.3,0.1l38.5,24.6c0.1,0.1,0.2,0.3,0.1,0.4c0,0-0.1,0.1-0.1,0.1
						l-23.6,12.2L353.3,149.4z"/>
					<polygon class="st9" points="393.1,172.8 405.7,166.3 370.7,143.9 358.1,150.4 					"/>
					<polygon class="st6" points="358.1,150.4 358.5,150.6 370.7,144.4 405.2,166.5 405.7,166.3 370.7,143.9 					"/>
					<polygon class="st6" points="400,153.4 399.8,153.5 393.6,156.7 383.2,150 383,149.9 389.4,146.6 					"/>
					<polygon class="st9" points="399.8,153.5 393.6,156.7 383.2,150 389.4,146.8 					"/>
					<g id="freepik--Arm--inject-178">
						<path class="st5" d="M388.2,157.1c1.8-1.6,4.4-3.9,6.5-4.5c0.5-0.2,1-0.3,1.5-0.4c-0.7-0.1-1.4-0.3-2.1-0.5
							c-0.7-0.3-1.3-0.7-1.8-1.3c-0.2-0.2-0.3-0.6,0-0.8c0.1-0.1,0.2-0.1,0.3-0.1c1.7,0,3-0.2,4.5-0.2c1.4-0.2,2.8-0.2,4.1,0
							c1.6,0.2,3.1,0.6,4.7,1c1.8,0.5,3,0.8,4.9-0.1l5.8-2.7c0,0,0.8,0.3,2.7,3.9s0.6,5.5,0.6,5.5l-7.6,2.2l0,0h-0.1
							c-1.2,0.6-2.4,1-3.6,1.4c-2.4,0.6-5.3-0.4-7.3-0.6c-2.5,0-5,0.4-7.4,1.3c-1.9,0.7-4-2.3-5-2S386.4,158.8,388.2,157.1z"/>
						<path class="st11" d="M397.2,151.2c1,0,1.9,0.2,2.8,0.6c-1.3,0-2.5,0.2-3.8,0.5c-0.7-0.1-1.4-0.3-2.1-0.5
							c-0.6-0.2-1.2-0.6-1.6-1.1C393.6,151.5,395.8,151.3,397.2,151.2z"/>
					</g>
					<path class="st5" d="M433.2,102.2c6.5,3.1,7,4.9,8.1,9.7s1.5,18.5,1.7,24.6c0.5,11.1-0.9,12.8-5.5,14.4
						c-7.3,2.5-17.6,6.1-17.6,6.1l-8.6-6.7l18.8-9.8l-2-24.1C428.2,116.4,426.9,107.9,433.2,102.2z"/>
					<path class="st7" d="M392.2,175c-0.8,0.3-1.6,0.2-2.2-0.3l-37.2-23.9c-0.7-0.4-1.1-1.1-1.2-1.9l-3-25.2c0-0.1,0-0.3,0-0.4
						c0-0.7,0.3-1.4,0.9-1.8l38.7,24.8c0.5,0.3,0.8,0.8,0.9,1.4L392.2,175z"/>
					<path class="st9" d="M392.8,174.7l-0.3,0.1c-0.1,0.1-0.2,0.1-0.4,0.2l-3.3-27.2c-0.1-0.6-0.4-1.1-0.9-1.4l-38.7-24.8
						c0.2-0.1,0.4-0.3,0.5-0.4l38.8,24.8c0.5,0.3,0.8,0.8,0.9,1.4L392.8,174.7z"/>
					<path class="st6" d="M388.5,146.9l0.6-0.3c0.2,0.3,0.3,0.5,0.3,0.9l3.3,27.3l-0.3,0.1c-0.1,0.1-0.2,0.1-0.4,0.2l-3.3-27.2
						C388.8,147.5,388.7,147.2,388.5,146.9z"/>
					<path class="st14" d="M371.7,151c-0.5-2.1-1.8-4-3.6-5.1c-1.8-1.2-3.1-0.7-2.9,1c0.5,2.1,1.8,4,3.6,5.1
						C370.6,153.1,371.9,152.7,371.7,151z"/>
				</g>
			</g>
		</g>
	</g>
</g>
</svg>
