<?xml version="1.0" encoding="utf-8"?>
<!-- Generator: Adobe Illustrator 23.0.5, SVG Export Plug-In . SVG Version: 6.00 Build 0)  -->
<svg version="1.1" id="Layer_1" xmlns="http://www.w3.org/2000/svg" xmlns:xlink="http://www.w3.org/1999/xlink" x="0px" y="0px"
	 viewBox="0 0 4098.21 1880.27" style="enable-background:new 0 0 4098.21 1880.27;" xml:space="preserve">
<style type="text/css">
	.st0{fill:#2163AF;}
	.st1{fill:#F57F3C;}
	.st2{fill:none;}
</style>
<g>
	<polygon class="st0" points="424.28,1098.24 517.12,1098.24 392.9,1425.13 296.8,1425.13 172.58,1098.24 265.41,1098.24 
		344.52,1327.06 	"/>
	<path class="st0" d="M615.84,1296.34c11.33,40.97,42.06,61.45,92.18,61.45c32.25,0,56.66-10.89,73.22-32.69l67.99,39.23
		c-32.26,46.64-79.76,69.95-142.52,69.95c-54.05,0-97.41-16.34-130.1-49.03c-32.69-32.69-49.03-73.88-49.03-123.56
		c0-49.25,16.12-90.32,48.38-123.24c32.25-32.9,73.65-49.36,124.22-49.36c47.94,0,87.49,16.57,118.66,49.69
		c31.16,33.13,46.75,74.1,46.75,122.91c0,10.9-1.09,22.45-3.27,34.65H615.84z M614.53,1230.96h166.71
		c-4.8-22.23-14.71-38.79-29.75-49.69c-15.04-10.89-32.15-16.34-51.32-16.34c-22.67,0-41.41,5.78-56.23,17.33
		C629.13,1193.81,619.32,1210.04,614.53,1230.96"/>
	<path class="st0" d="M1106.17,1089.09c35.73,0,65.27,11.99,88.59,35.96c23.31,23.98,34.98,57.1,34.98,99.38v200.71h-84.34v-190.25
		c0-21.79-5.88-38.46-17.65-50.01c-11.77-11.54-27.46-17.32-47.07-17.32c-21.8,0-39.23,6.76-52.3,20.27
		c-13.08,13.52-19.61,33.78-19.61,60.8v176.52h-84.34v-326.89h84.34v36.61C1029.24,1104.35,1061.72,1089.09,1106.17,1089.09"/>
	<path class="st0" d="M1549.44,967.48h84.34v457.65h-84.34v-38.57c-24.84,31.82-60.15,47.73-105.91,47.73
		c-44.03,0-81.62-16.67-112.78-50.01c-31.17-33.34-46.75-74.2-46.75-122.58c0-48.38,15.58-89.24,46.75-122.58
		c31.16-33.34,68.75-50.02,112.78-50.02c45.77,0,81.07,15.92,105.91,47.73V967.48z M1394.16,1328.04
		c17.21,17.22,38.9,25.82,65.05,25.82c26.15,0,47.73-8.6,64.72-25.82c17-17.21,25.5-39.33,25.5-66.36c0-27.02-8.5-49.14-25.5-66.36
		c-17-17.21-38.57-25.82-64.72-25.82c-26.15,0-47.84,8.61-65.05,25.82c-17.22,17.22-25.83,39.34-25.83,66.36
		C1368.34,1288.71,1376.94,1310.83,1394.16,1328.04"/>
	<path class="st1" d="M1897.9,1179.31h-73.88v135.99c0,11.34,2.83,19.61,8.5,24.84c5.66,5.23,13.94,8.17,24.84,8.83
		c10.89,0.66,24.41,0.55,40.54-0.33v76.49c-57.97,6.54-98.83,1.08-122.58-16.34c-23.76-17.43-35.63-48.59-35.63-93.49v-135.99
		h-56.88v-81.07h56.88v-66.03l84.34-25.5v91.53h73.88V1179.31z"/>
	<path class="st1" d="M2018.85,1296.34c11.33,40.97,42.06,61.45,92.18,61.45c32.25,0,56.65-10.89,73.22-32.69l67.99,39.23
		c-32.26,46.64-79.76,69.95-142.53,69.95c-54.05,0-97.41-16.34-130.1-49.03c-32.69-32.69-49.03-73.88-49.03-123.56
		c0-49.25,16.12-90.32,48.38-123.24c32.25-32.9,73.65-49.36,124.22-49.36c47.94,0,87.49,16.57,118.66,49.69
		c31.16,33.13,46.74,74.1,46.74,122.91c0,10.9-1.09,22.45-3.27,34.65H2018.85z M2017.54,1230.96h166.71
		c-4.8-22.23-14.71-38.79-29.75-49.69c-15.04-10.89-32.15-16.34-51.32-16.34c-22.67,0-41.41,5.78-56.22,17.33
		C2032.14,1193.81,2022.33,1210.04,2017.54,1230.96"/>
	<path class="st1" d="M2392.16,1191.08c0,8.72,5.77,15.8,17.32,21.25c11.54,5.45,25.6,10.25,42.17,14.38
		c16.56,4.15,33.12,9.38,49.69,15.69c16.56,6.32,30.61,16.9,42.17,31.71c11.54,14.82,17.32,33.34,17.32,55.57
		c0,33.57-12.53,59.39-37.59,77.47c-25.07,18.08-56.34,27.13-93.82,27.13c-67.13,0-112.89-25.93-137.29-77.8l73.22-41.19
		c9.58,28.34,30.94,42.5,64.07,42.5c30.07,0,45.11-9.37,45.11-28.11c0-8.71-5.78-15.79-17.32-21.25
		c-11.55-5.44-25.61-10.35-42.17-14.71c-16.57-4.35-33.13-9.81-49.69-16.34c-16.57-6.54-30.63-16.89-42.17-31.06
		c-11.55-14.16-17.32-31.92-17.32-53.28c0-32.25,11.87-57.64,35.63-76.17c23.75-18.52,53.28-27.79,88.59-27.79
		c26.58,0,50.77,6,72.57,17.98c21.79,11.99,39,29.09,51.65,51.32l-71.92,39.23c-10.46-22.23-27.9-33.34-52.3-33.34
		c-10.9,0-19.94,2.4-27.13,7.19C2395.75,1176.26,2392.16,1182.8,2392.16,1191.08"/>
	<polygon class="st0" points="2916.5,1425.13 2818.43,1425.13 2699.44,1276.72 2699.44,1425.13 2615.1,1425.13 2615.1,967.48 
		2699.44,967.48 2699.44,1242.07 2811.89,1098.24 2912.57,1098.24 2781.16,1259.72 	"/>
	<path class="st0" d="M3000.18,1059.01c-13.95,0-26.05-5.12-36.29-15.36c-10.24-10.24-15.36-22.33-15.36-36.29
		c0-13.94,5.12-26.15,15.36-36.61c10.24-10.46,22.33-15.69,36.29-15.69c14.38,0,26.69,5.23,36.94,15.69
		c10.24,10.46,15.36,22.67,15.36,36.61c0,13.95-5.13,26.05-15.36,36.29C3026.87,1053.89,3014.56,1059.01,3000.18,1059.01
		 M2958.33,1098.24h84.34v326.89h-84.34V1098.24z"/>
	<rect x="3119.82" y="947.87" class="st0" width="84.34" height="477.26"/>
	<path class="st0" d="M3559.81,1384.27c-33.57,33.34-74.53,50.02-122.91,50.02c-48.38,0-89.24-16.67-122.58-50.02
		c-33.34-33.34-50.01-74.2-50.01-122.58c0-48.38,16.67-89.24,50.01-122.58s74.21-50.02,122.58-50.02
		c48.38,0,89.34,16.67,122.91,50.02c33.56,33.34,50.34,74.21,50.34,122.58C3610.15,1310.07,3593.36,1350.93,3559.81,1384.27
		 M3373.81,1326.41c16.77,17,37.81,25.5,63.09,25.5c25.27,0,46.42-8.5,63.42-25.5c17-17,25.5-38.57,25.5-64.72
		c0-26.15-8.5-47.73-25.5-64.72c-17-17-38.14-25.5-63.42-25.5c-25.28,0-46.32,8.5-63.09,25.5c-16.78,17-25.17,38.57-25.17,64.72
		C3348.64,1287.84,3357.02,1309.41,3373.81,1326.41"/>
	<path class="st0" d="M3740.26,1191.08c0,8.72,5.77,15.8,17.32,21.25c11.54,5.45,25.6,10.25,42.17,14.38
		c16.56,4.15,33.12,9.38,49.69,15.69c16.56,6.32,30.62,16.9,42.17,31.71c11.54,14.82,17.33,33.34,17.33,55.57
		c0,33.57-12.53,59.39-37.59,77.47c-25.07,18.08-56.34,27.13-93.82,27.13c-67.13,0-112.89-25.93-137.29-77.8l73.22-41.19
		c9.58,28.34,30.94,42.5,64.07,42.5c30.07,0,45.11-9.37,45.11-28.11c0-8.71-5.78-15.79-17.33-21.25
		c-11.55-5.44-25.61-10.35-42.17-14.71c-16.57-4.35-33.13-9.81-49.69-16.34c-16.57-6.54-30.63-16.89-42.17-31.06
		c-11.55-14.16-17.33-31.92-17.33-53.28c0-32.25,11.87-57.64,35.63-76.17c23.75-18.52,53.28-27.79,88.59-27.79
		c26.58,0,50.77,6,72.57,17.98c21.79,11.99,39,29.09,51.65,51.32l-71.92,39.23c-10.46-22.23-27.9-33.34-52.3-33.34
		c-10.9,0-19.94,2.4-27.13,7.19C3743.85,1176.26,3740.26,1182.8,3740.26,1191.08"/>
	<path class="st0" d="M2181.99,870.48L2181.99,870.48c-6.75,7.09-17.85,7.68-25.32,1.36l-273.81-231.8
		c-11-9.64-18.49-22.65-21.32-37l-3.87-19.61c-2.59-13.1,8.58-24.83,21.79-22.88l19.78,2.91c14.47,2.13,27.83,8.98,37.99,19.49
		l244.89,262.18C2188.8,852.28,2188.74,863.4,2181.99,870.48"/>
	<polygon class="st0" points="1949.42,915.08 2019.2,738.68 1959.92,682.23 1920.87,887.89 	"/>
	<polygon class="st0" points="2096.45,933.68 2133.87,839.09 2102.08,808.81 2081.14,919.1 	"/>
	<polygon class="st0" points="2215.19,636.01 2042.41,714.31 1983.13,657.85 2186.64,608.82 	"/>
	<polygon class="st0" points="2240.94,781.95 2148.29,823.94 2116.5,793.67 2225.63,767.37 	"/>
	<path class="st1" d="M2617.59,379.95H2316.5v-80.43c0-46.87-38.13-85-85-85h-363.91c-46.87,0-85,38.13-85,85v80.43h-301.08
		c-105.89,0-192.02,86.13-192.02,192V896.4h69.14V571.96c0-67.75,55.13-122.86,122.87-122.86h72.42V896.4h69.14V449.1h852.96V896.4
		h69.14V449.1h72.41c67.75,0,122.87,55.11,122.87,122.86V896.4h69.14V571.96C2809.61,466.08,2723.48,379.95,2617.59,379.95
		 M1851.74,299.52c0-8.75,7.11-15.86,15.86-15.86h363.91c8.75,0,15.86,7.11,15.86,15.86v80.43h-395.62V299.52z"/>
	<path class="st0" d="M1165.31,1663.65l-25-42.69h-29.88v42.69h-10.67v-106.72h42.69c8.84,0,16.39,3.13,22.64,9.38
		c6.25,6.25,9.38,13.8,9.38,22.64c0,7.22-2.16,13.65-6.48,19.29c-4.32,5.64-9.83,9.43-16.54,11.36l26.07,44.06H1165.31z
		 M1110.43,1567v43.91h32.01c5.89,0,10.92-2.16,15.09-6.48c4.17-4.32,6.25-9.48,6.25-15.47c0-6.1-2.08-11.28-6.25-15.55
		c-4.17-4.27-9.2-6.4-15.09-6.4H1110.43z"/>
	<path class="st0" d="M1237.88,1585.6c11.28,0,20.4,3.99,27.36,11.97c6.96,7.98,10.44,17.41,10.44,28.28c0,1.12-0.1,2.69-0.31,4.73
		h-66.93c1.01,7.72,4.29,13.85,9.83,18.37c5.54,4.52,12.37,6.78,20.51,6.78c5.79,0,10.8-1.19,15.02-3.58
		c4.22-2.39,7.39-5.51,9.53-9.38l8.84,5.18c-3.35,5.39-7.93,9.66-13.72,12.81c-5.79,3.15-12.4,4.73-19.82,4.73
		c-11.99,0-21.75-3.76-29.27-11.28c-7.52-7.52-11.28-17.07-11.28-28.66c0-11.38,3.71-20.89,11.13-28.51
		C1216.64,1589.41,1226.19,1585.6,1237.88,1585.6 M1237.88,1595.35c-7.93,0-14.56,2.36-19.9,7.09c-5.34,4.72-8.51,10.85-9.53,18.37
		h56.86c-1.02-8.03-4.12-14.28-9.3-18.75C1250.84,1597.59,1244.79,1595.35,1237.88,1595.35"/>
	<path class="st0" d="M1342.61,1585.6c9.25,0,16.54,2.82,21.88,8.46c5.34,5.64,8,13.24,8,22.79v46.8h-10.06v-46.8
		c0-6.81-1.81-12.09-5.41-15.86c-3.61-3.76-8.72-5.64-15.32-5.64c-7.32,0-13.26,2.31-17.84,6.94c-4.57,4.63-6.86,11.77-6.86,21.42
		v39.94h-10.06v-76.23H1317v11.89C1322.69,1590.17,1331.23,1585.6,1342.61,1585.6"/>
	<path class="st0" d="M1447.65,1597.18h-21.95v46.19c0,4.17,0.81,7.14,2.44,8.92c1.63,1.78,4.06,2.7,7.32,2.74
		c3.25,0.05,7.32-0.02,12.2-0.23v8.84c-10.67,1.63-18.68,0.86-24.01-2.29c-5.34-3.15-8-9.15-8-17.99v-46.19h-16.01v-9.76h16.01
		v-18.3l10.06-3.05v21.34h21.95V1597.18z"/>
	<path class="st0" d="M1540.65,1587.43h10.06v76.22h-10.06v-14.94c-7.01,11.18-17.28,16.77-30.8,16.77
		c-10.88,0-20.15-3.86-27.82-11.58c-7.68-7.72-11.51-17.18-11.51-28.36c0-11.18,3.83-20.63,11.51-28.35
		c7.67-7.72,16.95-11.59,27.82-11.59c13.52,0,23.78,5.59,30.8,16.77V1587.43z M1489.27,1646.96c5.79,5.85,12.91,8.77,21.34,8.77
		c8.44,0,15.55-2.92,21.34-8.77c5.79-5.84,8.69-12.98,8.69-21.42c0-8.43-2.9-15.57-8.69-21.42c-5.79-5.84-12.91-8.77-21.34-8.77
		c-8.44,0-15.55,2.92-21.34,8.77c-5.79,5.85-8.69,12.98-8.69,21.42C1480.58,1633.98,1483.48,1641.11,1489.27,1646.96"/>
	<path class="st0" d="M1628.15,1585.6c10.87,0,20.15,3.86,27.82,11.59c7.67,7.72,11.51,17.18,11.51,28.35
		c0,11.18-3.84,20.63-11.51,28.36c-7.68,7.72-16.95,11.58-27.82,11.58c-13.52,0-23.78-5.59-30.8-16.77v14.94h-10.06v-106.71h10.06
		v45.43C1604.37,1591.19,1614.64,1585.6,1628.15,1585.6 M1606.05,1646.96c5.79,5.85,12.91,8.77,21.34,8.77
		c8.44,0,15.55-2.92,21.34-8.77c5.79-5.84,8.69-12.98,8.69-21.42c0-8.43-2.9-15.57-8.69-21.42c-5.79-5.84-12.91-8.77-21.34-8.77
		c-8.44,0-15.55,2.92-21.34,8.77c-5.79,5.85-8.69,12.98-8.69,21.42C1597.36,1633.98,1600.26,1641.11,1606.05,1646.96"/>
	<path class="st0" d="M1709.71,1569.13c-1.43,1.42-3.15,2.14-5.18,2.14c-2.04,0-3.76-0.71-5.18-2.14c-1.42-1.42-2.13-3.15-2.13-5.18
		c0-2.03,0.71-3.76,2.13-5.18c1.42-1.42,3.15-2.14,5.18-2.14c2.03,0,3.76,0.71,5.18,2.14c1.42,1.42,2.13,3.15,2.13,5.18
		C1711.85,1565.98,1711.14,1567.71,1709.71,1569.13 M1699.5,1587.43h10.06v76.23h-10.06V1587.43z"/>
	<rect x="1746.15" y="1552.36" class="st0" width="10.06" height="111.29"/>
	<path class="st0" d="M1803.01,1569.13c-1.43,1.42-3.15,2.14-5.18,2.14c-2.03,0-3.76-0.71-5.18-2.14c-1.43-1.42-2.13-3.15-2.13-5.18
		c0-2.03,0.71-3.76,2.13-5.18c1.42-1.42,3.15-2.14,5.18-2.14c2.03,0,3.76,0.71,5.18,2.14c1.42,1.42,2.13,3.15,2.13,5.18
		C1805.15,1565.98,1804.44,1567.71,1803.01,1569.13 M1792.8,1587.43h10.06v76.23h-10.06V1587.43z"/>
	<path class="st0" d="M1847.38,1607.4c0,3.46,1.52,6.2,4.57,8.23c3.05,2.03,6.76,3.61,11.13,4.73c4.37,1.12,8.74,2.36,13.11,3.73
		c4.37,1.37,8.08,3.66,11.13,6.86c3.05,3.2,4.57,7.39,4.57,12.58c0,6.51-2.57,11.79-7.7,15.85c-5.13,4.07-11.77,6.1-19.9,6.1
		c-7.32,0-13.54-1.63-18.68-4.88c-5.13-3.25-8.72-7.47-10.75-12.65l8.54-5.03c1.42,3.96,3.99,7.09,7.7,9.38
		c3.71,2.29,8.1,3.43,13.19,3.43c4.98,0,9.15-0.99,12.5-2.97c3.35-1.98,5.03-5.05,5.03-9.22c0-3.45-1.52-6.2-4.57-8.23
		c-3.05-2.03-6.76-3.61-11.13-4.72c-4.37-1.12-8.74-2.36-13.11-3.74c-4.37-1.37-8.08-3.66-11.13-6.86
		c-3.05-3.2-4.57-7.39-4.57-12.58c0-6.2,2.46-11.38,7.39-15.55c4.93-4.17,11.15-6.25,18.68-6.25c6.2,0,11.64,1.4,16.31,4.19
		c4.67,2.8,8.13,6.58,10.37,11.36l-8.39,4.88c-2.95-7.11-9.05-10.67-18.29-10.67c-4.37,0-8.13,1.04-11.28,3.13
		C1848.95,1600.56,1847.38,1603.54,1847.38,1607.4"/>
	<path class="st0" d="M1956.84,1585.6c11.28,0,20.4,3.99,27.36,11.97c6.96,7.98,10.44,17.41,10.44,28.28c0,1.12-0.1,2.69-0.3,4.73
		h-66.93c1.01,7.72,4.29,13.85,9.83,18.37c5.54,4.52,12.37,6.78,20.5,6.78c5.79,0,10.8-1.19,15.02-3.58
		c4.22-2.39,7.39-5.51,9.53-9.38l8.84,5.18c-3.35,5.39-7.93,9.66-13.72,12.81c-5.79,3.15-12.4,4.73-19.82,4.73
		c-11.99,0-21.75-3.76-29.27-11.28c-7.52-7.52-11.28-17.07-11.28-28.66c0-11.38,3.71-20.89,11.13-28.51
		C1935.59,1589.41,1945.15,1585.6,1956.84,1585.6 M1956.84,1595.35c-7.93,0-14.56,2.36-19.9,7.09c-5.34,4.72-8.51,10.85-9.53,18.37
		h56.86c-1.02-8.03-4.12-14.28-9.3-18.75C1969.79,1597.59,1963.75,1595.35,1956.84,1595.35"/>
	<path class="st0" d="M2119.65,1597.18h-21.95v46.19c0,4.17,0.81,7.14,2.44,8.92c1.62,1.78,4.06,2.7,7.32,2.74
		c3.25,0.05,7.32-0.02,12.2-0.23v8.84c-10.67,1.63-18.68,0.86-24.01-2.29c-5.34-3.15-8-9.15-8-17.99v-46.19h-16.01v-9.76h16.01
		v-18.3l10.06-3.05v21.34h21.95V1597.18z"/>
	<path class="st0" d="M2211.05,1653.97c-7.77,7.68-17.25,11.51-28.43,11.51c-11.18,0-20.66-3.83-28.43-11.51
		c-7.77-7.67-11.66-17.15-11.66-28.43c0-11.28,3.89-20.76,11.66-28.43c7.78-7.67,17.25-11.51,28.43-11.51
		c11.18,0,20.66,3.84,28.43,11.51c7.78,7.68,11.66,17.15,11.66,28.43C2222.71,1636.82,2218.82,1646.3,2211.05,1653.97
		 M2161.27,1646.96c5.79,5.85,12.91,8.77,21.34,8.77c8.43,0,15.55-2.92,21.34-8.77c5.79-5.84,8.69-12.98,8.69-21.42
		c0-8.43-2.9-15.57-8.69-21.42c-5.79-5.84-12.91-8.77-21.34-8.77c-8.44,0-15.55,2.92-21.34,8.77c-5.79,5.85-8.69,12.98-8.69,21.42
		C2152.58,1633.98,2155.48,1641.11,2161.27,1646.96"/>
	<path class="st0" d="M2290.4,1585.6c9.25,0,16.54,2.82,21.88,8.46c5.34,5.64,8,13.24,8,22.79v46.8h-10.06v-46.8
		c0-6.81-1.8-12.09-5.41-15.86c-3.61-3.76-8.72-5.64-15.32-5.64c-7.32,0-13.26,2.31-17.84,6.94c-4.57,4.63-6.86,11.77-6.86,21.42
		v39.94h-10.06v-76.23h10.06v11.89C2270.48,1590.17,2279.01,1585.6,2290.4,1585.6"/>
	<polygon class="st0" points="2463.28,1587.43 2473.95,1587.43 2442.7,1663.65 2430.5,1663.65 2399.25,1587.43 2409.92,1587.43 
		2436.6,1653.13 	"/>
	<path class="st0" d="M2562.3,1653.97c-7.77,7.68-17.25,11.51-28.43,11.51c-11.18,0-20.66-3.83-28.43-11.51
		c-7.77-7.67-11.66-17.15-11.66-28.43c0-11.28,3.89-20.76,11.66-28.43c7.78-7.67,17.25-11.51,28.43-11.51
		c11.18,0,20.66,3.84,28.43,11.51c7.78,7.68,11.66,17.15,11.66,28.43C2573.96,1636.82,2570.07,1646.3,2562.3,1653.97
		 M2512.52,1646.96c5.79,5.85,12.91,8.77,21.34,8.77c8.43,0,15.55-2.92,21.34-8.77c5.79-5.84,8.69-12.98,8.69-21.42
		c0-8.43-2.9-15.57-8.69-21.42c-5.79-5.84-12.91-8.77-21.34-8.77c-8.44,0-15.55,2.92-21.34,8.77c-5.79,5.85-8.69,12.98-8.69,21.42
		C2503.83,1633.98,2506.73,1641.11,2512.52,1646.96"/>
	<path class="st0" d="M2657.81,1587.43h10.67l-32.62,83.24c-2.95,7.52-7.14,13.44-12.58,17.76c-5.44,4.32-11.51,6.22-18.22,5.72
		v-9.45c9.15,1.01,16.11-4.27,20.89-15.86l1.98-4.73l-34.15-76.68h10.67l28.66,63.88L2657.81,1587.43z"/>
	<path class="st0" d="M2758.43,1587.43h10.06v76.22h-10.06v-14.94c-7.01,11.18-17.28,16.77-30.8,16.77
		c-10.88,0-20.15-3.86-27.82-11.58c-7.67-7.72-11.51-17.18-11.51-28.36c0-11.18,3.84-20.63,11.51-28.35
		c7.67-7.72,16.95-11.59,27.82-11.59c13.52,0,23.78,5.59,30.8,16.77V1587.43z M2707.05,1646.96c5.79,5.85,12.91,8.77,21.34,8.77
		c8.43,0,15.55-2.92,21.34-8.77c5.79-5.84,8.69-12.98,8.69-21.42c0-8.43-2.9-15.57-8.69-21.42c-5.79-5.84-12.91-8.77-21.34-8.77
		c-8.44,0-15.55,2.92-21.34,8.77c-5.79,5.85-8.69,12.98-8.69,21.42C2698.36,1633.98,2701.26,1641.11,2707.05,1646.96"/>
	<path class="st0" d="M2870.63,1587.43h10.06v73.18c0,10.98-3.76,19.61-11.28,25.92c-7.52,6.3-16.52,9.45-26.98,9.45
		c-17.89,0-29.93-6.2-36.13-18.6l8.84-5.03c4.57,9.25,13.67,13.87,27.29,13.87c8.74,0,15.63-2.31,20.66-6.94
		c5.03-4.63,7.55-10.85,7.55-18.67v-11.89c-7.01,11.18-17.28,16.77-30.8,16.77c-10.88,0-20.15-3.86-27.82-11.58
		c-7.67-7.72-11.51-17.18-11.51-28.36c0-11.18,3.84-20.63,11.51-28.35c7.67-7.72,16.95-11.59,27.82-11.59
		c13.52,0,23.78,5.59,30.8,16.77V1587.43z M2819.25,1646.96c5.79,5.85,12.91,8.77,21.34,8.77c8.43,0,15.55-2.92,21.34-8.77
		c5.79-5.84,8.69-12.98,8.69-21.42c0-8.43-2.9-15.57-8.69-21.42c-5.79-5.84-12.91-8.77-21.34-8.77c-8.44,0-15.55,2.92-21.34,8.77
		c-5.79,5.85-8.69,12.98-8.69,21.42C2810.56,1633.98,2813.46,1641.11,2819.25,1646.96"/>
	<path class="st0" d="M2952.49,1585.6c11.28,0,20.4,3.99,27.36,11.97c6.96,7.98,10.44,17.41,10.44,28.28c0,1.12-0.1,2.69-0.31,4.73
		h-66.93c1.01,7.72,4.29,13.85,9.83,18.37c5.54,4.52,12.37,6.78,20.5,6.78c5.79,0,10.8-1.19,15.02-3.58
		c4.22-2.39,7.39-5.51,9.53-9.38l8.84,5.18c-3.35,5.39-7.93,9.66-13.72,12.81c-5.79,3.15-12.4,4.73-19.82,4.73
		c-11.99,0-21.75-3.76-29.27-11.28c-7.52-7.52-11.28-17.07-11.28-28.66c0-11.38,3.71-20.89,11.13-28.51
		C2931.25,1589.41,2940.8,1585.6,2952.49,1585.6 M2952.49,1595.35c-7.93,0-14.56,2.36-19.9,7.09c-5.34,4.72-8.51,10.85-9.53,18.37
		h56.86c-1.02-8.03-4.12-14.28-9.3-18.75C2965.45,1597.59,2959.4,1595.35,2952.49,1595.35"/>
</g>
<rect x="-571.86" y="-789.09" class="st2" width="5201" height="3368.08"/>
</svg>
