<?xml version="1.0" encoding="utf-8"?>
<!-- Generator: Adobe Illustrator 23.0.5, SVG Export Plug-In . SVG Version: 6.00 Build 0)  -->
<svg version="1.1" id="Layer_1" xmlns="http://www.w3.org/2000/svg" xmlns:xlink="http://www.w3.org/1999/xlink" x="0px" y="0px"
	 viewBox="0 0 446 360" style="enable-background:new 0 0 446 360;" xml:space="preserve">
<style type="text/css">
	.st0{fill:#407BFF;}
	.st1{opacity:0.8;fill:#FFFFFF;enable-background:new    ;}
	.st2{fill:#263238;stroke:#263238;stroke-width:1.1326;stroke-linecap:round;stroke-linejoin:round;}
	.st3{fill:#407BFF;stroke:#263238;stroke-width:1.1326;stroke-linecap:round;stroke-linejoin:round;}
	.st4{fill:#FFFFFF;stroke:#263238;stroke-width:1.1326;stroke-linecap:round;stroke-linejoin:round;}
	.st5{opacity:0.5;fill:#FFFFFF;enable-background:new    ;}
	.st6{fill:#FFFFFF;}
	.st7{opacity:8.000000e-02;enable-background:new    ;}
	.st8{opacity:0.7;fill:#FFFFFF;enable-background:new    ;}
	.st9{fill:none;stroke:#263238;stroke-width:1.1326;stroke-linecap:round;stroke-linejoin:round;}
	.st10{clip-path:url(#SVGID_2_);}
	.st11{clip-path:url(#SVGID_4_);}
	.st12{clip-path:url(#SVGID_6_);}
	.st13{fill:none;stroke:#263238;stroke-width:0.5663;stroke-linecap:round;stroke-linejoin:round;}
	.st14{fill:#263238;}
</style>
<g id="freepik--background-simple--inject-6">
	<path class="st0" d="M354.3,29.7c-27.4-18.9-60.7-26.4-97-11.5C221.3,32.9,202.4,69,171.2,90c-33.2,22.4-75.9,24-111.8,41.2
		c-25.3,12.1-42.7,35-46.9,62.9c-8.1,54.5,20.9,110.4,71.3,133.2c31.5,14.3,68.1,14.2,99.9,0.9c24.4-10.2,45.6-26.8,70-37.5
		c42.3-18.4,91.3-16.6,131.5-40.3c42.7-25.1,48.3-71,38.6-113.7C415.1,97.9,389.7,54.2,354.3,29.7z"/>
	<path class="st1" d="M354.3,29.7c-27.4-18.9-60.7-26.4-97-11.5C221.3,32.9,202.4,69,171.2,90c-33.2,22.4-75.9,24-111.8,41.2
		c-25.3,12.1-42.7,35-46.9,62.9c-8.1,54.5,20.9,110.4,71.3,133.2c31.5,14.3,68.1,14.2,99.9,0.9c24.4-10.2,45.6-26.8,70-37.5
		c42.3-18.4,91.3-16.6,131.5-40.3c42.7-25.1,48.3-71,38.6-113.7C415.1,97.9,389.7,54.2,354.3,29.7z"/>
</g>
<g id="freepik--Chair--inject-6">
	<path class="st2" d="M62,228.8h49c0,0,14.3,1.9,8.4,15.8h13c4.1-5.8,5.2-13.2,2.8-19.9c-4-11.5-17.4-13.6-17.4-13.6H66
		C66,211.2,53.3,216.4,62,228.8z"/>
	<path class="st3" d="M173.5,297.4c-5.2-16-12.7-28.2-10.8-46.1c0.8-7.5,4-14.9,4.3-22.5c0.7-20.7-25.1-20.5-31.6-38.2
		c-5.6-15.5-6.1-22.1-17.4-22.6s-49.4-4.7-58.3-2.4s-15.5,24-23,33.4s-16.5,22.6-10.3,40s14.6,40.4,15.5,60.1s0.9,38.5,0.9,38.5
		h134.9C177.8,337.8,178.7,313.4,173.5,297.4z M114.8,242.4H79.1c-7-0.2-12.5-6-12.3-13.1c0.2-6.7,5.6-12.1,12.3-12.3h35.7
		c7,0.2,12.5,6,12.3,13.1C126.9,236.8,121.5,242.2,114.8,242.4L114.8,242.4z"/>
	<path class="st2" d="M41.8,191.1c8.7,4.5,21.4,13.4,29,29c2.3-2,5.2-3,8.2-3h35.7c3.5,0,6.9,1.5,9.3,4.1l0.3,0.2
		c4-6.9,9.8-15.6,16.3-22.5c-2.3-2.3-4-5.1-5.2-8.1c-5.6-15.5-6.1-22.1-17.4-22.6s-49.4-4.7-58.3-2.4
		C52.9,167.6,47.4,180.8,41.8,191.1z"/>
	<path class="st2" d="M66.5,338.3h98.7c-0.7-8.9-2.4-30-3.9-42.3c-1.9-16-2.8-26.3-7.5-31s-34.3-26.8-42.8-27.8c0,0-24.4-1.9-32-0.5
		s-23,25.9-23,30.1C56,270.9,67,312,66.5,338.3z"/>
	<path class="st2" d="M47.1,295.1c-1.4-19.8-16.5-65.3-19.7-72.9c-0.9-2.4-1-5-0.3-7.4c-3.3,7.7-3.5,16.5-0.6,24.4
		c6.1,17.4,14.6,40.4,15.5,60.2s0.9,38.5,0.9,38.5h3.9C47.2,328,48.3,311.4,47.1,295.1z"/>
	<path class="st3" d="M129.4,265.9c-5.6-8.9-24-4.7-38.6-5.2s-16,3.8-16,11.8c0,6.8,7.1,51.9,9.3,65.3H144
		C144,311.6,134.7,274.4,129.4,265.9z"/>
	<path class="st4" d="M110.2,260.2c-6.1,0.1-12.8,0.7-18.8,0.6c2.6,8.3,12.6,42.8,13.5,77.1h18.9
		C122.8,322.2,119.7,287.9,110.2,260.2z"/>
</g>
<g id="freepik--Posters--inject-6">
	
		<rect x="109.8" y="28.7" transform="matrix(7.062699e-02 -0.9975 0.9975 7.062699e-02 84.7787 256.1073)" class="st0" width="140.1" height="107.6"/>
	
		<rect x="109.8" y="28.7" transform="matrix(7.062704e-02 -0.9975 0.9975 7.062704e-02 84.7716 256.1161)" class="st5" width="140.1" height="107.6"/>
	<path class="st6" d="M209.9,117.2l-64.4-5.2c-1.9-0.2-3.4-1.8-3.2-3.8c0,0,0,0,0,0l4.8-59.8c0.2-1.9,1.8-3.3,3.8-3.2l64.4,5.2
		c1.9,0.2,3.3,1.8,3.2,3.8l-4.7,59.8C213.5,115.9,211.8,117.4,209.9,117.2C209.9,117.2,209.9,117.2,209.9,117.2z"/>
	<path class="st7" d="M182.6,86.7c-0.2-1.7,1-3.2,2.7-3.4s3.2,1,3.4,2.7c0.2,1.7-1,3.2-2.7,3.4c-0.4,0-0.8,0-1.2-0.1
		C183.6,89,182.8,88,182.6,86.7z"/>
	<path class="st7" d="M171.5,85.9c-0.2-1.7,1-3.2,2.7-3.4s3.2,1,3.4,2.7c0.2,1.7-1,3.2-2.7,3.4c-0.4,0-0.8,0-1.2-0.1
		C172.6,88.1,171.7,87.1,171.5,85.9z"/>
	<path class="st7" d="M150.6,95.5c-0.4-3.2,1.9-6.1,5.1-6.5c3.2-0.4,6.1,1.9,6.5,5.1c0.4,3.2-1.9,6.1-5.1,6.5
		c-0.8,0.1-1.5,0-2.3-0.2C152.5,99.8,150.8,97.9,150.6,95.5z"/>
	<path class="st7" d="M195.6,99.2c-0.4-3.2,1.9-6.1,5.1-6.5s6.1,1.9,6.5,5.1c0.4,3.2-1.9,6.1-5.1,6.5c-0.8,0.1-1.5,0-2.3-0.2
		C197.6,103.5,195.9,101.6,195.6,99.2z"/>
	<polygon class="st7" points="186.4,99.9 181.4,99.5 181.8,94.5 177,94.2 176.6,99.1 171.6,98.8 171.2,103.6 176.2,104 175.8,109 
		180.6,109.4 181,104.4 186,104.8 	"/>
	<path class="st7" d="M207.2,80.6l-53.3-4.4c-1-0.1-1.8-1-1.8-2l1.7-20.7c0.1-1,1-1.8,2-1.8l53.3,4.4c1,0.1,1.8,1,1.8,2L209.1,79
		C209,80,208.2,80.7,207.2,80.6z"/>
	<path class="st8" d="M136.4,16.6l-9.1,125.1l96.1,7l9.1-125.1L136.4,16.6z M219.5,142.6l-87.3-6.3l8.2-113.7l87.3,6.3L219.5,142.6z
		"/>
	
		<rect x="298.5" y="49.1" transform="matrix(0.9948 -0.1023 0.1023 0.9948 -10.3358 36.6599)" class="st0" width="107.6" height="140.1"/>
	
		<rect x="298.5" y="49.1" transform="matrix(0.9948 -0.1023 0.1023 0.9948 -10.3358 36.6599)" class="st5" width="107.6" height="140.1"/>
	<path class="st6" d="M315.3,72.5l63.1-6.4c1.9-0.2,3.7,1.2,3.9,3.1l9.3,91.7c0.2,1.9-1.2,3.7-3.1,3.9l-63.1,6.4
		c-1.9,0.2-3.7-1.2-3.9-3.1l-9.3-91.7C312,74.4,313.4,72.7,315.3,72.5z"/>
	<path class="st7" d="M356.4,131.1c-0.6-1.8,0.5-3.8,2.3-4.4s3.8,0.5,4.4,2.3c0.6,1.8-0.5,3.8-2.3,4.4c-0.4,0.1-0.9,0.2-1.4,0.1
		C357.9,133.4,356.8,132.5,356.4,131.1z"/>
	<path class="st7" d="M343.7,132.4c-0.6-1.8,0.5-3.8,2.3-4.4s3.8,0.5,4.4,2.3c0.6,1.8-0.5,3.8-2.3,4.4c-0.4,0.1-0.9,0.2-1.4,0.1
		C345.3,134.7,344.1,133.8,343.7,132.4z"/>
	<path class="st7" d="M350.8,139.5c-0.6-1.8,0.5-3.8,2.3-4.4s3.8,0.5,4.4,2.3c0.6,1.8-0.5,3.8-2.3,4.4c-0.4,0.1-0.9,0.2-1.4,0.1
		C352.4,141.8,351.2,140.8,350.8,139.5z"/>
	<polygon class="st7" points="384.3,140.9 378.6,141.4 378.1,135.7 372.6,136.3 373.1,142 367.4,142.6 368,148.1 373.7,147.5 
		374.3,153.2 379.8,152.6 379.2,146.9 384.9,146.4 	"/>
	<polygon class="st7" points="342.7,145.1 337,145.7 336.5,140 331,140.5 331.5,146.2 325.8,146.8 326.4,152.3 332.1,151.7 
		332.7,157.4 338.2,156.9 337.6,151.2 343.3,150.6 	"/>
	<path class="st7" d="M322.7,78.9l50-5.1c1-0.1,1.9,0.6,2,1.6l4.4,43.3c0.1,1-0.6,1.9-1.6,2l-50,5.1c-1,0.1-1.9-0.6-2-1.6L321,80.9
		C320.9,79.9,321.7,79,322.7,78.9z"/>
	
		<rect x="349.2" y="153.7" transform="matrix(0.9948 -0.1014 0.1014 0.9948 -14.134 36.9205)" class="st7" width="13.9" height="7.6"/>
</g>
<g id="freepik--Character--inject-6">
	<path class="st4" d="M197.2,251.6c0,0,4.3,1.9,8.7,9.6s65.3,42.3,66.3,52s4.3,11.1-8.3,13s-30.1-11-51.3-22.6S181.3,293,181.3,293
		L197.2,251.6z"/>
	<path class="st4" d="M259.5,302.7c0,0-13.5,1.7-18.3,7.4s2.6,14.5,7.2,16.1s18.5,0.4,22.4-7s0.9-9.1-4.4-13"/>
	<path class="st4" d="M248.3,315.3c0,0-5,3.8-6.1,4.9s-2.8,5.7-4,6.5s-5.4,1.5-5.9,2.7s3.8,2.5,7.1,2.4s5.9-4,9.1-5.4
		c2.1-0.9,4.3-1.4,6.5-1.5c0,0,3-6.5,1.8-9.1S251,313.4,248.3,315.3z"/>
	<path class="st4" d="M260.2,308.3c-1.1-0.2-2.1-0.2-3.2,0c-2.6,0.4-5.1,0.9-7.6,1.6c-1.2,0.6-3.1,8.4-4,12.1s-4.6,10.3-3,10.6
		s5.4,1.2,6.1-1.2c1.1-3.8,3.4-10.8,3.4-10.8s-1.9,6.8-0.9,8s15.7,0.9,17.5,0.3s6.1-8.6,6.5-12.9
		C275.2,312.4,264.8,309.2,260.2,308.3z"/>
	<line class="st9" x1="257.3" y1="329.2" x2="261.1" y2="314.5"/>
	<line class="st9" x1="265.4" y1="329" x2="268.9" y2="315"/>
	<line class="st9" x1="251.9" y1="320.7" x2="253.8" y2="314"/>
	<path class="st4" d="M223.7,271.8c-14.9-13.2-31.6-31.1-50.9-37.6c-5-1.6-9.6-4.2-13.6-7.5c0,0-13.6-9.6-22.2-10.1
		c-9.8-0.5-17.4,9.9-22,17.3c-20.4,33.3-23,71.8-23.8,110h90.1c0,0-5.2-8.1,0.5-31.5c1.1-4.4,2.5-8.8,4.2-13
		c1.7,0.7,3.5,1.5,5.5,2.3c8.2,3.4,27,14,27,14l21.2-30.7C239.6,285,228,275.7,223.7,271.8z"/>
	<path class="st6" d="M141.5,222.9c-2.6-4.7-8.4-9.6-17.4-4.4c-11.6,6.7-46.3,75.8-48.6,86.3s46.2,17.2,65.3,17.2
		c11.8,0,23.6-0.6,35.3-1.9l3.8,2.3c0,0,0,9.1,3.3,10s13.8,1,17.2-1s2.4-7.1,2.4-7.1s2.4,10.5,6.2,11.4c1.3,0.3,2.6,0.3,3.9,0.1
		c1-0.2,1.5-1.2,1.3-2.1c-0.1-0.3-0.2-0.6-0.4-0.8l-1-1.2l-6.6-14.5c0,0-1.8-7.9-4.2-7.9s-21.5-0.3-21.5-0.3s-32.4-3.8-46.3-7.6
		s-21.1-9.1-21.1-9.1l26.5-43.3"/>
	<g>
		<defs>
			<path id="SVGID_1_" d="M141.5,222.9c-2.6-4.7-8.4-9.6-17.4-4.4c-11.6,6.7-46.3,75.8-48.6,86.3s46.2,17.2,65.3,17.2
				c11.8,0,23.6-0.6,35.3-1.9l3.8,2.3c0,0,0,9.1,3.3,10s13.8,1,17.2-1s2.4-7.1,2.4-7.1s2.4,10.5,6.2,11.4c1.3,0.3,2.6,0.3,3.9,0.1
				c1-0.2,1.5-1.2,1.3-2.1c-0.1-0.3-0.2-0.6-0.4-0.8l-1-1.2l-6.6-14.5c0,0-1.8-7.9-4.2-7.9s-21.5-0.3-21.5-0.3s-32.4-3.8-46.3-7.6
				s-21.1-9.1-21.1-9.1l26.5-43.3"/>
		</defs>
		<clipPath id="SVGID_2_">
			<use xlink:href="#SVGID_1_"  style="overflow:visible;"/>
		</clipPath>
		<g class="st10">
			<path class="st0" d="M175.3,316.1c-7.2-0.8-29.1-0.4-57.3-4.2s-35-10.5-29.5-12.2s24-5.5,25.3-5.5s-23.6-4.6-23.6-4.6l13.4-42.4
				c-13,22.6-26.6,51.2-28.1,57.6c-2.4,10.5,46.2,17.2,65.3,17.2c11.8,0,23.6-0.6,35.3-1.9l3.8,2.3c0,0,0,9.1,3.3,10
				c1,0.2,2,0.4,3,0.5c1.4-1.2,2.3-2.8,2.6-4.6C189.5,323.9,182.4,317,175.3,316.1z"/>
			<path class="st5" d="M175.3,316.1c-7.2-0.8-29.1-0.4-57.3-4.2s-35-10.5-29.5-12.2s24-5.5,25.3-5.5s-23.6-4.6-23.6-4.6l13.4-42.4
				c-13,22.6-26.6,51.2-28.1,57.6c-2.4,10.5,46.2,17.2,65.3,17.2c11.8,0,23.6-0.6,35.3-1.9l3.8,2.3c0,0,0,9.1,3.3,10
				c1,0.2,2,0.4,3,0.5c1.4-1.2,2.3-2.8,2.6-4.6C189.5,323.9,182.4,317,175.3,316.1z"/>
		</g>
	</g>
	<path class="st9" d="M141.5,222.9c-2.6-4.7-8.4-9.6-17.4-4.4c-11.6,6.7-46.3,75.8-48.6,86.3s46.2,17.2,65.3,17.2
		c11.8,0,23.6-0.6,35.3-1.9l3.8,2.3c0,0,0,9.1,3.3,10s13.8,1,17.2-1s2.4-7.1,2.4-7.1s2.4,10.5,6.2,11.4c1.3,0.3,2.6,0.3,3.9,0.1
		c1-0.2,1.5-1.2,1.3-2.1c-0.1-0.3-0.2-0.6-0.4-0.8l-1-1.2l-6.6-14.5c0,0-1.8-7.9-4.2-7.9s-21.5-0.3-21.5-0.3s-32.4-3.8-46.3-7.6
		s-21.1-9.1-21.1-9.1l26.5-43.3"/>
	<path class="st9" d="M195.2,317.1c0,0,3.5,10.4,3.5,12.1c-0.1,1.2-0.3,2.3-0.9,3.4"/>
	<path class="st9" d="M189.1,318.7c0,0,3.4,9.6,3.7,11.6c0.2,1-0.1,2.1-0.9,2.8"/>
	<line class="st9" x1="202.8" y1="324.3" x2="200.5" y2="315.5"/>
	<path class="st4" d="M179.9,322.4l4.7,1.6c0,0,2.8,1.4,0.6,3.4"/>
	<path class="st4" d="M143.3,224.1c0,0-2.5-8.5-12.7-8.8S113,226.9,108.2,234s-17.6,34.5-19,37.9s-9.6,18.1-9.6,18.1s4.2,4,14.4,4
		h22.4c0,0,0.8-0.3,1.4-2.8c0.3-1.1,0.5-2.3,0.6-3.4l25.5-42.2"/>
	<line class="st9" x1="212.8" y1="322.5" x2="214.9" y2="327.6"/>
	<line class="st9" x1="214.4" y1="319" x2="216.9" y2="325.1"/>
	<polyline class="st9" points="196.9,278.4 185.9,299.4 203,284 	"/>
	<path class="st4" d="M172.7,234.2c-5-1.6-9.6-4.2-13.6-7.5c0,0-2.2-1.6-5.5-3.5c1.8,8.8,7.3,34,11.6,38.3
		c4.1,4.1,12.9-13.5,16.4-23.4C178.7,236.5,175.8,235.2,172.7,234.2z"/>
	<ellipse class="st4" cx="200.1" cy="202.4" rx="12.1" ry="15.5"/>
	<path class="st6" d="M159.7,198.9c0,0-1.7,19.7-0.6,27.8s5.8,33.5,9.3,26.6s15.6-29.5,15.6-29.5S163.2,208.2,159.7,198.9z"/>
	<g>
		<defs>
			<path id="SVGID_3_" d="M159.7,198.9c0,0-1.7,19.7-0.6,27.8s5.8,33.5,9.3,26.6s15.6-29.5,15.6-29.5S163.2,208.2,159.7,198.9z"/>
		</defs>
		<clipPath id="SVGID_4_">
			<use xlink:href="#SVGID_3_"  style="overflow:visible;"/>
		</clipPath>
		<g class="st11">
			<path class="st0" d="M159.7,198.9c0,0-1.7,19.7-0.6,27.8c0.4,3.2,1.5,9.1,2.7,14.7l14.3-7.8l6-6.3l1.8-3.4
				C184,223.8,163.2,208.2,159.7,198.9z"/>
			<path class="st5" d="M159.7,198.9c0,0-1.7,19.7-0.6,27.8c0.4,3.2,1.5,9.1,2.7,14.7l14.3-7.8l6-6.3l1.8-3.4
				C184,223.8,163.2,208.2,159.7,198.9z"/>
		</g>
	</g>
	<path class="st9" d="M159.7,198.9c0,0-1.7,19.7-0.6,27.8s5.8,33.5,9.3,26.6s15.6-29.5,15.6-29.5S163.2,208.2,159.7,198.9z"/>
	<path class="st2" d="M156.2,195.4c0,0-4-24.3-0.6-33.6s16.2-13.9,31.2-9.3s23.7,9.3,26,19.7s-5.8,16.8-5.8,16.8s-6.9-16.2-15-17.9
		s-15.6-2.3-14.5,3.5s1.7,13.3-1.7,16.2s-4.1,4-5.8,8.7s-6.9,9.3-11,4S156.2,195.4,156.2,195.4z"/>
	<path class="st6" d="M160.3,197.2c0,0-1.1-7.5-6.4-4.6s2.3,13.9,2.3,13.9c0.8,7.8,3.8,15.2,8.7,21.4c8.1,10.4,22.1,11.8,30.1,5.2
		c9-7.5,13.3-41.6,13.3-41.6s3.5-4.6-4-16.2s-33-11.6-34.7-6.9s5.2,13.9,3.5,17.4c-1.7,3.5-6.9-0.6-8.1,5.8
		C163.8,197.7,162.6,202.4,160.3,197.2z"/>
	<g>
		<defs>
			<path id="SVGID_5_" d="M160.3,197.2c0,0-1.1-7.5-6.4-4.6s2.3,13.9,2.3,13.9c0.8,7.8,3.8,15.2,8.7,21.4
				c8.1,10.4,22.1,11.8,30.1,5.2c9-7.5,13.3-41.6,13.3-41.6s3.5-4.6-4-16.2s-33-11.6-34.7-6.9s5.2,13.9,3.5,17.4
				c-1.7,3.5-6.9-0.6-8.1,5.8C163.8,197.7,162.6,202.4,160.3,197.2z"/>
		</defs>
		<clipPath id="SVGID_6_">
			<use xlink:href="#SVGID_5_"  style="overflow:visible;"/>
		</clipPath>
		<g class="st12">
			<path class="st0" d="M204.2,175.2c-7.5-11.6-33-11.6-34.7-6.9s5.2,13.9,3.5,17.4s-6.9-0.6-8.1,5.8s-2.3,11-4.6,5.8
				c0,0-1.1-7.5-6.4-4.6s2.3,13.9,2.3,13.9c0.8,7.8,3.8,15.2,8.7,21.4c4.9,6.5,12.9,9.9,21.1,9c-3.5-0.5-6.8-1.7-9.8-3.4
				c-8-4.6-10.1-13.5-7.6-23.2s8.4-33.3,11.4-35.7s5-0.6,11.4,5.4s9.7,5.5,9.7,5.5l6.5-4.2C206.6,179.1,205.5,177.1,204.2,175.2z"/>
			<path class="st5" d="M204.2,175.2c-7.5-11.6-33-11.6-34.7-6.9s5.2,13.9,3.5,17.4s-6.9-0.6-8.1,5.8s-2.3,11-4.6,5.8
				c0,0-1.1-7.5-6.4-4.6s2.3,13.9,2.3,13.9c0.8,7.8,3.8,15.2,8.7,21.4c4.9,6.5,12.9,9.9,21.1,9c-3.5-0.5-6.8-1.7-9.8-3.4
				c-8-4.6-10.1-13.5-7.6-23.2s8.4-33.3,11.4-35.7s5-0.6,11.4,5.4s9.7,5.5,9.7,5.5l6.5-4.2C206.6,179.1,205.5,177.1,204.2,175.2z"/>
		</g>
	</g>
	<path class="st9" d="M160.3,197.2c0,0-1.1-7.5-6.4-4.6s2.3,13.9,2.3,13.9c0.8,7.8,3.8,15.2,8.7,21.4c8.1,10.4,22.1,11.8,30.1,5.2
		c9-7.5,13.3-41.6,13.3-41.6s3.5-4.6-4-16.2s-33-11.6-34.7-6.9s5.2,13.9,3.5,17.4c-1.7,3.5-6.9-0.6-8.1,5.8
		C163.8,197.7,162.6,202.4,160.3,197.2z"/>
	<path class="st9" d="M182.4,217.2c-7.3-1.6-8.9-7-8.9-7"/>
	<path class="st9" d="M184.3,201.9c-3.5-3.5-6.7-3.8-6.7-3.8"/>
	<line class="st9" x1="175.4" y1="209.5" x2="170.9" y2="210.5"/>
	<path class="st9" d="M173.5,210.2c-1.4,1.9-2,4.3-1.6,6.7c0.6,3.9,5.1,4.9,5.1,4.9s0.3-5.2,2.9-4.9
		C179.9,216.9,174.8,214,173.5,210.2z"/>
	<path class="st13" d="M173,210.4c0,0-0.7,6.6,4,8.4"/>
	<path class="st9" d="M198.5,192.5c0,0-4.8,4.8-4.8,10.1s4.8,8.8,0.9,10.1s-5.3,0.4-5.3,0.4"/>
	<path class="st14" d="M184.2,198c-0.4,1.6-1,0.9-1.8,0.7s-1.6,0.2-1.2-1.4s1.4-2.8,2.2-2.6S184.6,196.4,184.2,198z"/>
	<path class="st14" d="M200.8,200.7c-0.4,1.6-1.4,2.8-2.2,2.6s-1.2-1.7-0.8-3.3s1.4-2.8,2.2-2.6S201.3,199,200.8,200.7z"/>
	<path class="st9" d="M177.9,187.2c0,0,6.1-1.9,11.9,6.1"/>
	<path class="st9" d="M200.3,191.2c0,0,4.4-1.8,5.3,2.6"/>
	<path class="st2" d="M169.5,168.2c0,0,2.9,5.2,10.4,6.4s16.8,0,18.5,6.4s9.8,13.9,19.1,9.8s10.4-22,4.6-29.5s-12.7-6.4-19.7-9.3
		s-6.9-8.1-17.4-8.1s-22.6,9.8-15.6,15.6"/>
	<ellipse class="st4" cx="157.5" cy="196.4" rx="12.1" ry="15.5"/>
	<ellipse class="st2" cx="155.6" cy="196.4" rx="8.7" ry="11.2"/>
	<path class="st4" d="M153.9,194.8c-1.1,0-2.1-0.8-2.2-2c-0.6-5.3-0.6-10.7,0.1-16c0.1-1.2,1.3-2.1,2.5-2c1.2,0.1,2.1,1.3,2,2.5
		c-0.6,4.9-0.6,9.9-0.1,14.9c0.2,1.2-0.7,2.4-1.9,2.5c0,0,0,0,0,0C154.1,194.8,154,194.8,153.9,194.8z"/>
	<path class="st4" d="M200,150.8L200,150.8c0.8,0.5,1.6,0.9,2.4,1.3c4.2,1.7,8.4,2,12.3,3.6c-0.1-0.5-0.3-1-0.6-1.5
		c-5.5-8.7-21.5-22.4-42.9-12c-11.9,5.8-19.2,17.7-21.2,34.4c-0.2,2.2,1.3,4.1,3.5,4.4h0.5c2,0,3.7-1.5,3.9-3.5
		c1.1-9.7,5-22.4,16.9-28.2C185.8,143.9,194.4,146.9,200,150.8z"/>
</g>
<g id="freepik--Device--inject-6">
	<rect x="156" y="333.5" class="st4" width="140.5" height="5.7"/>
	<rect x="195.6" y="333.5" class="st4" width="140.5" height="5.7"/>
	<path class="st3" d="M112,324.4h20.7c4.8,0,8.6,3.9,8.6,8.6l0,0v10.4l0,0h-38l0,0V333C103.4,328.2,107.2,324.4,112,324.4z"/>
	<path class="st2" d="M113,328.8h8.8c4.8,0,8.6,3.9,8.6,8.6l0,0v10.4l0,0h-26l0,0v-10.4C104.4,332.6,108.3,328.8,113,328.8z"/>
	<path class="st3" d="M113,331.5h5.6c4.8,0,8.6,3.9,8.6,8.6l0,0v3.9l0,0h-22.8l0,0v-3.9C104.4,335.3,108.2,331.5,113,331.5z"/>
	<rect x="240.2" y="217.8" class="st4" width="129.8" height="99.1"/>
	<rect x="245.5" y="217.8" class="st2" width="129.8" height="99.1"/>
	<rect x="297.5" y="281.9" class="st4" width="30.2" height="57.3"/>
	<rect x="30.8" y="337.3" class="st4" width="402.1" height="10.6"/>
	<rect x="170.2" y="337.3" class="st2" width="262.8" height="10.6"/>
</g>
</svg>
