<?xml version="1.0" encoding="utf-8"?>
<!-- Generator: Adobe Illustrator 23.0.5, SVG Export Plug-In . SVG Version: 6.00 Build 0)  -->
<svg version="1.1" id="Layer_1" xmlns="http://www.w3.org/2000/svg" xmlns:xlink="http://www.w3.org/1999/xlink" x="0px" y="0px"
	 viewBox="0 0 432 432" style="enable-background:new 0 0 432 432;" xml:space="preserve">
<style type="text/css">
	.st0{fill:#EBEBEB;}
	.st1{fill:#A6A6A6;}
	.st2{fill:#FF714F;}
	.st3{fill:#DBDBDB;}
	.st4{fill:#FFFFFF;}
	.st5{fill:#C7C7C7;}
	.st6{fill:#37474F;}
	.st7{fill:#263238;}
	.st8{opacity:0.1;enable-background:new    ;}
	.st9{fill:#EB9481;}
	.st10{fill:#455A64;}
</style>
<g id="freepik--background-complete--inject-20">
	<path class="st0" d="M51.2,347.6l-13.1,0.3l-6.7,0.1c-2.2,0-4.5,0-6.7,0h-0.5v-0.5l0-11.2v-0.5h0.5l13.2,0.1
		c4.4,0,8.8,0.1,13.2,0.2h0.3v0.3c0,1.9-0.1,3.8-0.1,5.6L51.2,347.6z M51.2,347.6l-0.1-5.7c0-1.9-0.1-3.7-0.1-5.5l0.3,0.3
		c-4.4,0-8.8,0.2-13.2,0.2l-13.2,0.1l0.5-0.5l-0.1,11.2l-0.4-0.5c2.2,0,4.3,0,6.5,0.1l6.6,0.1L51.2,347.6z"/>
	<path class="st0" d="M36.4,361.7L23.3,362l-6.7,0.1c-2.2,0-4.5,0-6.7,0H9.5v-0.5v-11.2V350H10h13.2c4.4,0,8.8,0.1,13.2,0.2h0.3v0.3
		c0,1.9-0.1,3.8-0.1,5.6L36.4,361.7z M36.4,361.7l-0.2-5.7c0-1.9-0.1-3.7-0.1-5.5l0.3,0.3c-4.4,0-8.8,0.2-13.2,0.2L10,351l0.5-0.5
		l0,11.2l-0.4-0.5c2.2,0,4.3,0,6.5,0.1l6.6,0.1L36.4,361.7z"/>
	<rect x="39.5" y="350.5" class="st0" width="26.5" height="11.2"/>
	<path class="st0" d="M153.8,93l-13.1,0.3l-6.7,0.1c-2.2,0-4.5,0-6.7,0.1h-0.4V93l-0.1-11.2v-0.5h0.5l13.2,0.1
		c4.4,0,8.8,0.1,13.2,0.2h0.2v0.3c0,1.9-0.1,3.8-0.1,5.7L153.8,93z M153.8,93l-0.1-5.7c0-1.9-0.1-3.7-0.1-5.5l0.3,0.3
		c-4.4,0.1-8.8,0.2-13.2,0.2l-13.2,0.1l0.5-0.5l0,11.2l-0.4-0.4c2.2,0,4.4,0,6.6,0.1l6.6,0.1L153.8,93z"/>
	<path class="st0" d="M139,107.1l-13.1,0.3l-6.7,0.1c-2.2,0.1-4.5,0-6.7,0.1h-0.4v-0.4L112,95.9v-0.5h0.5l13.2,0.1
		c4.4,0,8.8,0.1,13.2,0.2h0.3v0.3c0,1.9-0.1,3.8-0.1,5.7L139,107.1z M139,107.1l-0.1-5.6c0-1.9-0.1-3.7-0.1-5.5l0.3,0.3
		c-4.4,0-8.8,0.2-13.2,0.2l-13.2,0.1l0.5-0.5v11.2l-0.4-0.4c2.2,0,4.4,0,6.6,0l6.6,0.1L139,107.1z"/>
	<rect x="142.1" y="95.9" class="st0" width="26.5" height="11.2"/>
	<rect x="380.8" y="350.5" class="st0" width="26.5" height="11.2"/>
	<rect x="380.8" y="9.2" class="st0" width="26.5" height="11.2"/>
	<path class="st0" d="M422,34.5l-13.1,0.3l-6.7,0.1c-2.2,0-4.5,0-6.7,0.1h-0.4v-0.4L395,23.4v-0.5h0.5l13.2,0.1
		c4.4,0,8.8,0.1,13.2,0.2h0.3v0.3c0,1.9-0.1,3.8-0.1,5.7L422,34.5z M422,34.5l-0.1-5.7c0-1.9-0.1-3.7-0.1-5.5l0.3,0.3
		c-4.4,0-8.8,0.2-13.2,0.2l-13.2,0.1l0.5-0.5l0,11.2l-0.5-0.4c2.2,0,4.4,0,6.5,0.1l6.6,0.1L422,34.5z"/>
	<path class="st0" d="M36.4,20.5l-13.1,0.3l-6.7,0.1c-2.2,0-4.5,0-6.7,0H9.5v-0.4V9.2V8.7H10l13.2,0.1c4.4,0,8.8,0.1,13.2,0.2h0.3
		v0.3c0,1.9-0.1,3.8-0.1,5.7L36.4,20.5z M36.4,20.5l-0.2-5.7c0-1.9-0.1-3.7-0.1-5.5l0.3,0.3c-4.4,0-8.8,0.2-13.2,0.2L10,9.8l0.5-0.5
		l-0.1,11.2L10,20c2.2,0,4.3,0,6.5,0l6.6,0.1L36.4,20.5z"/>
	<rect x="183.7" y="309.1" class="st0" width="26.5" height="11.2"/>
	<path class="st0" d="M198.5,295l13.1-0.3l6.7-0.1c2.2,0,4.5,0,6.7,0h0.4v0.4l0,11.2v0.5H225l-13.2-0.1c-4.4,0-8.8-0.1-13.2-0.2
		h-0.3v-0.3c0-1.9,0.1-3.8,0.1-5.6L198.5,295z M198.5,295l0.1,5.6c0.1,1.9,0.1,3.7,0.1,5.5l-0.3-0.3c4.4,0,8.8-0.2,13.2-0.2
		l13.2-0.1l-0.5,0.5V295l0.5,0.5c-2.2,0-4.4,0-6.6-0.1l-6.6-0.1L198.5,295z"/>
	<path class="st0" d="M259.2,194.2H15.5V10h243.8V194.2z M16.4,193.2h241.8V11H16.5L16.4,193.2z"/>
	<path class="st1" d="M24.6,15.2c0,1.3-1,2.3-2.3,2.3s-2.3-1-2.3-2.3c0-1.3,1-2.3,2.3-2.3S24.6,13.9,24.6,15.2L24.6,15.2z"/>
	<path class="st0" d="M34,15.2c0,1.3-1,2.3-2.3,2.3c-1.3,0-2.3-1-2.3-2.3c0-1.3,1-2.3,2.3-2.3l0,0C33,12.8,34,13.9,34,15.2
		C34,15.1,34,15.2,34,15.2z"/>
	<path class="st2" d="M43.4,15.2c0,1.3-1,2.3-2.3,2.3c-1.3,0-2.3-1-2.3-2.3c0-1.3,1-2.3,2.3-2.3c0,0,0,0,0,0
		C42.4,12.8,43.4,13.9,43.4,15.2C43.4,15.2,43.4,15.2,43.4,15.2z"/>
	<rect x="16" y="19.2" class="st0" width="242.8" height="1"/>
	<polygon class="st0" points="305.5,392.1 422.2,392.1 426,318.1 301.7,318.1 	"/>
	<path class="st3" d="M413.7,352H310.8l-1.4-25.8h106L413.7,352z M311.7,351h101l1.5-23.8H310.4L311.7,351z"/>
	<path class="st3" d="M412.3,381.6h-98.6l-1.2-23.3h101.2L412.3,381.6z M314.7,380.6h96.7l1.3-21.3h-99.1L314.7,380.6z"/>
	<path class="st3" d="M374.1,342h-21.9l-0.8-6.3h23.5L374.1,342z M353.1,341h20.1l0.5-4.3h-21.2L353.1,341z"/>
	<path class="st3" d="M374.1,373.1h-21.9l-0.8-6.3h23.5L374.1,373.1z M353.1,372.1h20.1l0.5-4.3h-21.2L353.1,372.1z"/>
	<polygon class="st0" points="321.6,392.1 320.5,400.2 318.2,416.4 313.8,416.4 313.8,392.1 	"/>
	<polygon class="st3" points="321.6,392.1 320.5,400.2 313.8,400.2 313.8,392.1 	"/>
	<polygon class="st0" points="406,392.1 407.2,400.2 409.5,416.4 413.9,416.4 413.9,392.1 	"/>
	<polygon class="st3" points="406,392.1 407.2,400.2 413.9,400.2 413.9,392.1 	"/>
	<rect x="367.5" y="28.2" class="st0" width="55.5" height="67.3"/>
	<rect x="373.8" y="34.3" class="st4" width="42.8" height="55"/>
	<rect x="373.8" y="34.3" class="st5" width="1.7" height="55"/>
	<rect x="422.9" y="28.2" class="st5" width="1.7" height="67.3"/>
	<rect x="396.1" y="47" class="st0" width="10.1" height="30"/>
	<path class="st0" d="M411.1,57.1h-27.9V41.4h27.9V57.1z M384.2,56.1h25.9V42.4h-25.9V56.1z"/>
	<rect x="367.5" y="193.9" class="st0" width="55.5" height="67.3"/>
	<rect x="373.8" y="200" class="st4" width="42.8" height="55"/>
	<rect x="373.8" y="200" class="st5" width="1.7" height="55"/>
	<rect x="422.9" y="193.9" class="st5" width="1.7" height="67.3"/>
	<rect x="388.1" y="212.8" class="st0" width="10.1" height="30"/>
	<path class="st0" d="M411.1,222.8h-27.9v-15.7h27.9V222.8z M384.2,221.8h25.9v-13.7h-25.9V221.8z"/>
	<rect x="367.5" y="111.3" class="st0" width="55.5" height="67.3"/>
	<rect x="373.8" y="117.5" class="st4" width="42.8" height="55"/>
	<rect x="373.8" y="117.5" class="st5" width="1.7" height="55"/>
	<rect x="422.9" y="111.3" class="st5" width="1.7" height="67.3"/>
	<rect x="391" y="131.7" class="st0" width="8.6" height="21.9"/>
	<path class="st3" d="M409.3,160.5h-24.2v-16.1h24.2V160.5z M386.1,159.5h22.2v-14.1h-22.2V159.5z"/>
</g>
<g id="freepik--Window--inject-20">
	<rect x="42" y="29.4" class="st4" width="347.9" height="248.1"/>
	<path class="st5" d="M390,277.5l-348,0.4h-0.4v-0.4L41.5,29.4v-0.5H42l347.9,0.2h0.3v0.3L390,277.5z M390,277.5l-0.3-248.1l0.3,0.3
		L42,29.9l0.5-0.5l-0.1,248.1l-0.4-0.4L390,277.5z"/>
	<rect x="42" y="29.4" class="st6" width="347.9" height="9.7"/>
	<path class="st5" d="M49.7,34.2c0,1.3-1.1,2.4-2.4,2.4s-2.4-1.1-2.4-2.4c0-1.3,1.1-2.4,2.4-2.4C48.6,31.8,49.7,32.9,49.7,34.2
		C49.7,34.2,49.7,34.2,49.7,34.2z"/>
	<path class="st4" d="M59.5,34.2c0,1.3-1.1,2.4-2.4,2.4s-2.4-1.1-2.4-2.4c0-1.3,1.1-2.4,2.4-2.4S59.5,32.9,59.5,34.2L59.5,34.2z"/>
	<path class="st2" d="M69.3,34.2c0,1.3-1.1,2.4-2.4,2.4s-2.4-1.1-2.4-2.4c0-1.3,1.1-2.4,2.4-2.4C68.2,31.8,69.3,32.9,69.3,34.2
		C69.3,34.2,69.3,34.2,69.3,34.2z"/>
	<path class="st2" d="M84.5,69.7c0,0.4-0.3,0.7-0.7,0.7c-0.4,0-0.7-0.3-0.7-0.7v-7.4l0,0c0-0.2,0.1-0.5,0.3-0.6
		c0.3-0.2,0.8-0.2,1,0.1c0,0,0,0,0,0l4.1,5.7v-5.3c0-0.4,0.3-0.7,0.7-0.7c0.4,0,0.7,0.3,0.7,0.7v7.4c0,0.4-0.3,0.7-0.7,0.7
		c-0.2,0-0.4-0.1-0.6-0.3c0,0-0.1,0-0.1-0.1l-4.1-5.7L84.5,69.7z"/>
	<path class="st2" d="M92.4,67.2c0-1.7,1.4-3.2,3.1-3.2c0,0,0,0,0,0c1.7,0,3,1.3,3.1,3v0.1c0,0,0,0.1,0,0.1
		c-0.1,0.3-0.3,0.5-0.7,0.5h-4.1c0.1,0.3,0.2,0.6,0.4,0.8c0.3,0.3,0.8,0.5,1.2,0.6c0.5,0,0.9-0.1,1.3-0.3c0.3-0.3,0.7-0.3,1,0
		c0.2,0.2,0.2,0.6,0,0.8c-0.6,0.6-1.4,0.9-2.3,0.8C93.8,70.5,92.4,69,92.4,67.2C92.4,67.3,92.4,67.2,92.4,67.2z M93.8,66.6h3.6
		c-0.3-0.8-1-1.3-1.9-1.4C94.7,65.2,94,65.8,93.8,66.6z"/>
	<path class="st2" d="M108.5,65.1l-2.1,5c0,0,0,0.1,0,0.1l0,0c0,0,0,0-0.1,0.1l0,0l-0.1,0.1l0,0c0,0-0.1,0.1-0.1,0.1l0,0h-0.1l0,0
		c0,0-0.1,0-0.1,0c0,0-0.1,0-0.1,0l0,0h-0.1l0,0c0,0-0.1,0-0.1-0.1l0,0c0,0-0.1,0-0.1-0.1l0,0c0,0-0.1,0-0.1-0.1l0,0
		c0,0,0-0.1-0.1-0.1l-0.9-2.2l-0.9,2.2l-0.1,0.1l0,0l-0.1,0.1l0,0l-0.1,0.1l-0.1,0.1l0,0h-0.1l0,0c0,0-0.1,0-0.1,0c0,0-0.1,0-0.1,0
		l0,0h-0.1l0,0c0,0-0.1,0-0.1-0.1l0,0l-0.1-0.1l0,0c0,0,0-0.1,0-0.1l0,0c0,0,0-0.1-0.1-0.1l-2.1-5c-0.1-0.3,0-0.7,0.3-0.9
		c0,0,0,0,0,0c0.3-0.1,0.7,0,0.8,0.3c0,0,0,0,0,0l1.5,3.4l0.9-2.1c0.1-0.2,0.4-0.4,0.6-0.4c0.3,0,0.5,0.2,0.6,0.4l0.9,2.1l1.5-3.4
		c0.1-0.3,0.5-0.5,0.8-0.4c0,0,0,0,0.1,0C108.8,64.5,108.8,64.8,108.5,65.1z"/>
	<path class="st2" d="M114.7,67.2c0-1.8,1.4-3.2,3.1-3.2c0,0,0,0,0,0c1.7,0,3,1.3,3.1,3v0.1c0,0,0,0.1,0,0.1
		c-0.1,0.3-0.3,0.5-0.7,0.5h-4.1c0.1,0.3,0.2,0.6,0.4,0.8c0.3,0.3,0.8,0.5,1.2,0.6c0.5,0,0.9-0.1,1.3-0.3c0.3-0.3,0.7-0.3,1,0
		c0.2,0.2,0.2,0.6,0,0.8c0,0,0,0,0,0c-0.6,0.6-1.4,0.9-2.3,0.8C116.1,70.5,114.7,69,114.7,67.2C114.7,67.2,114.7,67.2,114.7,67.2z
		 M116.1,66.6h3.6c-0.3-0.8-1-1.3-1.9-1.4C117,65.2,116.3,65.8,116.1,66.6L116.1,66.6z"/>
	<path class="st2" d="M128.3,66.7v3.1c0,0.4-0.3,0.7-0.7,0.7c-0.4,0-0.7-0.3-0.7-0.7v-3.1c0-0.7-0.6-1.3-1.3-1.3
		c-0.7,0-1.3,0.6-1.3,1.3c0,0,0,0,0,0v3.1c0,0,0,0.1,0,0.1c-0.1,0.3-0.4,0.5-0.7,0.6c-0.4,0-0.7-0.3-0.7-0.7c0,0,0,0,0,0v-5
		c0-0.4,0.3-0.7,0.6-0.7c0,0,0,0,0,0c0.3,0,0.5,0.1,0.6,0.4c0.4-0.3,0.9-0.4,1.3-0.5C127.1,64,128.3,65.2,128.3,66.7
		C128.3,66.7,128.3,66.7,128.3,66.7z"/>
	<path class="st2" d="M133.6,64.7c0,0.4-0.3,0.7-0.7,0.7h-0.3V69c0.4,0,0.7,0.3,0.7,0.7c0,0.4-0.3,0.7-0.7,0.7
		c-0.8,0-1.4-0.6-1.4-1.4v-3.6h-0.4c-0.4,0-0.7-0.3-0.7-0.7c0,0,0,0,0,0c0-0.4,0.3-0.7,0.7-0.7c0,0,0,0,0,0h0.4v-1.9
		c0-0.4,0.3-0.7,0.7-0.7c0.4,0,0.7,0.3,0.7,0.7V64h0.3C133.3,64,133.6,64.3,133.6,64.7C133.7,64.7,133.7,64.7,133.6,64.7z"/>
	<path class="st2" d="M138.9,64.7c0,0.4-0.3,0.7-0.7,0.7c-0.3,0-0.5,0.1-0.8,0.2c-0.2,0.2-0.4,0.4-0.6,0.6c-0.2,0.3-0.4,0.7-0.5,1.1
		v2.4c0,0.4-0.3,0.7-0.7,0.7c-0.4,0-0.7-0.3-0.7-0.7v-5c0-0.4,0.3-0.7,0.7-0.7c0,0,0,0,0,0c0.4,0,0.7,0.3,0.7,0.6c0,0,0,0,0,0v0.1
		c0.1-0.1,0.2-0.2,0.3-0.3c0.5-0.3,1-0.5,1.6-0.5C138.6,64.1,138.9,64.3,138.9,64.7z"/>
	<path class="st2" d="M145.4,64.7v4.8c0,1.7-1.3,3-2.9,3.1c-0.5,0-1-0.1-1.4-0.3c-0.3-0.1-0.5-0.5-0.4-0.9c0,0,0,0,0,0
		c0.2-0.3,0.6-0.4,0.9-0.3c0.2,0.1,0.5,0.2,0.7,0.2c0.7,0,1.4-0.5,1.6-1.2c-0.4,0.2-0.8,0.3-1.2,0.3c-1.5,0-2.7-1.2-2.7-2.7v-3
		c0-0.4,0.3-0.7,0.7-0.7c0.4,0,0.7,0.3,0.7,0.6c0,0,0,0,0,0.1v3c0,0.7,0.6,1.3,1.3,1.3c0.7,0,1.3-0.6,1.3-1.3v-3
		c0-0.4,0.3-0.7,0.6-0.7c0,0,0,0,0,0C145.1,64,145.4,64.3,145.4,64.7z"/>
	<path class="st2" d="M75.5,66c0,3-2.5,5.5-5.5,5.5S64.5,69,64.5,66c0-3,2.5-5.5,5.5-5.5C73,60.5,75.5,63,75.5,66
		C75.5,66,75.5,66,75.5,66z"/>
	<rect x="69.4" y="62.9" class="st4" width="1" height="6.2"/>
	<rect x="66.8" y="65.5" class="st4" width="6.2" height="1"/>
	<path class="st1" d="M85,87h-1.3c-0.1,0-0.2-0.1-0.2-0.2v0c0-0.1,0.1-0.2,0.2-0.2h3c0.1,0,0.2,0.1,0.2,0.2l0,0
		c0,0.1-0.1,0.2-0.2,0.2h-1.3v4c0,0.1-0.1,0.2-0.2,0.2l0,0c-0.1,0-0.2-0.1-0.2-0.2V87z"/>
	<path class="st1" d="M87.6,87.2c0-0.1,0.1-0.2,0.2-0.2l0,0c0.1,0,0.2,0.1,0.2,0.2v0.2c0,0.1,0,0.2-0.1,0.2c-0.1,0-0.2,0-0.2-0.1
		c0,0,0-0.1,0-0.1L87.6,87.2z M87.6,88.2c0-0.1,0.1-0.2,0.2-0.2c0.1,0,0.2,0.1,0.2,0.2v0V91c0,0.1-0.1,0.2-0.2,0.2
		c-0.1,0-0.2-0.1-0.2-0.2l0,0V88.2z"/>
	<path class="st1" d="M90.5,88.2c0,0.1-0.1,0.1-0.2,0.2H90v2.3c0,0.1,0.1,0.2,0.2,0.2c0.1,0,0.2,0.1,0.2,0.2c0,0.1-0.1,0.1-0.2,0.2
		c-0.3,0-0.5-0.2-0.5-0.5c0,0,0,0,0,0v-2.3h-0.4c-0.2,0-0.2-0.1-0.2-0.2s0-0.2,0.2-0.2h0.4v-1.2c0-0.1,0.1-0.2,0.2-0.2l0,0
		c0.1,0,0.2,0.1,0.2,0.2V88h0.4C90.5,88,90.5,88.1,90.5,88.2z"/>
	<path class="st1" d="M92,86.8c0-0.1,0.1-0.2,0.2-0.2c0.1,0,0.2,0.1,0.2,0.2V91c0,0.1-0.1,0.2-0.2,0.2c-0.1,0-0.2-0.1-0.2-0.2V86.8z
		"/>
	<path class="st1" d="M93.6,89.6c0-0.9,0.7-1.6,1.5-1.6c0.8,0,1.5,0.7,1.5,1.5l0,0c0,0.1-0.1,0.2-0.1,0.2h-2.6
		c0,0.7,0.6,1.2,1.2,1.2c0.4,0,0.8-0.2,1-0.6c0.1-0.1,0.2-0.1,0.2,0c0.1,0.1,0.1,0.1,0,0.2c-0.3,0.4-0.8,0.7-1.3,0.7
		C94.2,91.2,93.6,90.4,93.6,89.6z M94,89.4h2.4c-0.1-0.7-0.7-1.1-1.4-1C94.4,88.4,94,88.8,94,89.4z"/>
	<path class="st1" d="M305.6,108.8l-1,1.3c0,0-0.1,0.1-0.1,0.1l0,0c0,0-0.1,0-0.1-0.1l-1-1.3v2.4c0,0.1,0,0.1-0.1,0.1l0,0
		c-0.1,0-0.1,0-0.1-0.1c0,0,0,0,0,0v-2.8c0,0,0-0.1,0-0.1l0,0c0,0,0.1,0,0.1,0l1.1,1.5l1-1.5c0,0,0.1,0,0.1,0l0,0l0,0v2.8
		c0,0.1,0,0.1-0.1,0.1c0,0,0,0,0,0c0,0-0.1,0-0.1-0.1c0,0,0,0,0,0L305.6,108.8z"/>
	<path class="st1" d="M308.6,109.4v1.9c0,0.1,0,0.1-0.1,0.1l0,0c0,0-0.1,0-0.1-0.1c0,0,0,0,0,0V111c-0.2,0.3-0.5,0.4-0.8,0.4
		c-0.6,0-1-0.5-1-1c0-0.6,0.5-1,1-1c0.3,0,0.6,0.2,0.8,0.4v-0.3c0,0,0-0.1,0.1-0.1c0,0,0,0,0,0C308.5,109.3,308.6,109.4,308.6,109.4
		z M308.4,110.3c0-0.4-0.4-0.8-0.8-0.7s-0.8,0.4-0.7,0.8c0,0.4,0.4,0.7,0.8,0.7C308,111.2,308.4,110.8,308.4,110.3z"/>
	<path class="st1" d="M309.4,111.2l0.6-0.9l-0.6-0.9c0,0,0-0.1,0-0.1c0,0,0.1,0,0.1,0l0.6,0.8l0.6-0.8c0,0,0.1,0,0.1,0c0,0,0,0,0,0
		c0,0,0,0.1,0,0.1l-0.6,0.9l0.6,0.9c0,0,0,0.1,0,0.1c0,0,0,0,0,0s-0.1,0-0.1,0l-0.6-0.8l-0.6,0.8c0,0-0.1,0-0.1,0c0,0,0,0-0.1,0
		C309.3,111.3,309.3,111.3,309.4,111.2z"/>
	<path class="st1" d="M312.1,111c0.1,0,0.2,0.1,0.2,0.2c0,0.1-0.1,0.2-0.2,0.2c-0.1,0-0.2-0.1-0.2-0.2
		C311.8,111.1,311.9,111,312.1,111C312.1,111,312.1,111,312.1,111z"/>
	<path class="st1" d="M314,111.2l1.4-1.3c0.2-0.1,0.3-0.4,0.3-0.6c0-0.4-0.3-0.8-0.8-0.8c-0.2,0-0.4,0.1-0.5,0.2l-0.1,0.1
		c0,0-0.1,0-0.1,0c0,0,0,0,0,0c0,0,0-0.1,0-0.1l0.1-0.1c0.2-0.2,0.4-0.2,0.7-0.3c0.3,0,0.5,0.1,0.7,0.3c0.2,0.2,0.2,0.4,0.3,0.6
		c0,0.3-0.1,0.5-0.3,0.7l-1.2,1.1h1.4c0.1,0,0.1,0,0.1,0.1c0,0.1,0,0.1-0.1,0.1h-1.7c0,0-0.1,0-0.1,0
		C313.9,111.3,313.9,111.3,314,111.2C314,111.2,314,111.2,314,111.2z"/>
	<path class="st1" d="M316.6,111.1c0,0,0-0.1,0-0.1c0,0,0.1,0,0.2,0c0.3,0.3,0.8,0.3,1.1,0c0.2-0.2,0.2-0.4,0.2-0.6
		c0-0.2-0.1-0.4-0.2-0.6c-0.3-0.3-0.8-0.3-1.1,0c0,0-0.1,0.1-0.1,0c0,0,0,0,0,0l0,0l0,0l0,0l0,0l0.1-1.2c0,0,0-0.1,0-0.1
		c0,0,0,0,0.1,0h1.4c0.1,0,0.1,0,0.1,0.1s0,0.1-0.1,0.1h-1.3l-0.1,0.9c0.2-0.1,0.3-0.1,0.5-0.1c0.3,0,0.5,0.1,0.7,0.3
		c0.2,0.2,0.3,0.4,0.3,0.7c0,0.3-0.1,0.5-0.3,0.7c-0.2,0.2-0.5,0.3-0.7,0.3C317,111.5,316.7,111.3,316.6,111.1z"/>
	<path class="st1" d="M319.1,109.9c0-0.4,0.1-0.7,0.3-1c0.2-0.3,0.4-0.4,0.7-0.4c0.3,0,0.6,0.2,0.8,0.4c0.2,0.3,0.3,0.6,0.3,1
		c0,0.4-0.1,0.7-0.3,1c-0.2,0.3-0.4,0.4-0.8,0.4c-0.3,0-0.6-0.2-0.7-0.4C319.2,110.6,319.1,110.2,319.1,109.9z M319.3,109.9
		c0,0.3,0.1,0.6,0.3,0.9c0.1,0.2,0.3,0.3,0.6,0.4c0.2,0,0.5-0.2,0.6-0.4c0.3-0.6,0.3-1.3,0-1.9c-0.1-0.2-0.3-0.4-0.6-0.4
		c-0.2,0-0.5,0.1-0.6,0.4C319.4,109.2,319.3,109.6,319.3,109.9z"/>
	<path class="st1" d="M323.4,110.3c0-0.6,0.4-1,1-1c0,0,0,0,0.1,0c0.2,0,0.5,0.1,0.7,0.2c0,0,0,0.1,0,0.1c0,0,0,0,0,0
		c0,0-0.1,0-0.1,0c-0.2-0.1-0.3-0.2-0.5-0.2c-0.5,0-0.8,0.4-0.8,0.8s0.4,0.8,0.8,0.8c0,0,0,0,0,0c0.2,0,0.4-0.1,0.6-0.2
		c0,0,0.1,0,0.1,0c0,0,0,0.1,0,0.1c0,0,0,0,0,0c-0.2,0.1-0.4,0.2-0.7,0.2c-0.6,0-1-0.4-1.1-0.9C323.4,110.4,323.4,110.4,323.4,110.3
		z"/>
	<path class="st1" d="M327.5,110.1c0-0.4-0.3-0.7-0.7-0.7s-0.7,0.3-0.7,0.7v1.2l0,0l0,0c0,0,0,0-0.1,0.1l0,0c0,0-0.1,0-0.1,0l0,0
		v-2.8c0-0.1,0-0.1,0.1-0.1c0.1,0,0.1,0,0.1,0.1v1.1c0.2-0.2,0.4-0.3,0.7-0.3c0.5,0,0.8,0.3,0.9,0.8c0,0,0,0,0,0v1.2
		c0,0.1,0,0.1-0.1,0.1c0,0,0,0,0,0c-0.1,0-0.1,0-0.1-0.1v0L327.5,110.1z"/>
	<path class="st1" d="M330.5,109.4v1.9c0,0,0,0.1-0.1,0.1c0,0,0,0,0,0c-0.1,0-0.1,0-0.1-0.1v0V111c-0.2,0.3-0.5,0.4-0.8,0.4
		c-0.6,0-1-0.5-1-1c0-0.6,0.5-1,1-1c0.3,0,0.6,0.2,0.8,0.4v-0.3c0-0.1,0-0.1,0.1-0.1l0,0C330.5,109.3,330.5,109.3,330.5,109.4z
		 M330.3,110.3c0-0.4-0.4-0.8-0.8-0.7c-0.4,0-0.8,0.4-0.7,0.8c0,0.4,0.4,0.7,0.8,0.7C330,111.2,330.3,110.8,330.3,110.3
		C330.3,110.3,330.3,110.3,330.3,110.3z"/>
	<path class="st1" d="M331.4,109.4c0-0.1,0-0.1,0.1-0.1c0,0,0,0,0,0c0,0,0.1,0,0.1,0.1c0,0,0,0,0,0v0.5l0,0c0.2-0.3,0.5-0.5,0.8-0.5
		c0,0,0.1,0,0.1,0.1c0,0,0,0,0,0c0,0.1,0,0.1-0.1,0.1c0,0,0,0,0,0c-0.2,0-0.5,0.1-0.6,0.3c-0.1,0.1-0.2,0.3-0.3,0.5l0,0v0.9
		c0,0,0,0.1-0.1,0.1c0,0,0,0,0,0c-0.1,0-0.1,0-0.1-0.1c0,0,0,0,0,0L331.4,109.4z"/>
	<path class="st1" d="M334.9,109.4v1.9c0,0.1,0,0.1-0.1,0.1c0,0,0,0,0,0c-0.1,0-0.1,0-0.1-0.1v0V111c-0.2,0.3-0.5,0.4-0.8,0.4
		c-0.6,0-1-0.5-1-1c0-0.6,0.5-1,1-1c0.3,0,0.6,0.2,0.8,0.4v-0.3c0-0.1,0-0.1,0.1-0.1l0,0C334.9,109.3,334.9,109.3,334.9,109.4z
		 M334.7,110.3c0-0.4-0.4-0.8-0.8-0.7c-0.4,0-0.8,0.4-0.7,0.8c0,0.4,0.4,0.7,0.8,0.7C334.4,111.2,334.7,110.8,334.7,110.3
		C334.7,110.3,334.7,110.3,334.7,110.3L334.7,110.3z"/>
	<path class="st1" d="M335.6,110.3c0-0.6,0.5-1,1.1-1c0.2,0,0.5,0.1,0.7,0.2c0,0,0,0.1,0,0.1c0,0-0.1,0-0.1,0
		c-0.2-0.1-0.3-0.2-0.5-0.2c-0.5,0-0.8,0.4-0.8,0.8s0.4,0.8,0.8,0.8c0,0,0,0,0,0c0.2,0,0.4-0.1,0.5-0.2c0,0,0.1,0,0.1,0
		c0,0,0,0.1,0,0.1c-0.2,0.1-0.4,0.2-0.6,0.2C336.2,111.4,335.7,111,335.6,110.3C335.7,110.4,335.6,110.3,335.6,110.3z"/>
	<path class="st1" d="M339,109.4c0,0.1-0.1,0.1-0.1,0.1h-0.3v1.5c0,0.1,0.1,0.2,0.1,0.2c0.1,0,0.1,0,0.1,0.1c0,0.1,0,0.1-0.1,0.1
		c0,0,0,0,0,0c-0.2,0-0.4-0.1-0.4-0.3c0,0,0,0,0,0v-1.5h-0.3c-0.1,0-0.1-0.1-0.1-0.1s0-0.1,0.1-0.1h0.3v-0.8c0-0.1,0-0.1,0.1-0.1
		c0.1,0,0.1,0,0.1,0.1v0.8h0.3C338.9,109.3,339,109.3,339,109.4z"/>
	<path class="st1" d="M339.6,110.3c0-0.6,0.4-1,1-1s1,0.4,1,1l0,0l0,0c0,0,0,0.1-0.1,0.1c0,0,0,0,0,0h-1.7c0,0.4,0.4,0.8,0.8,0.8
		c0.3,0,0.5-0.1,0.7-0.4c0,0,0.1,0,0.1,0c0,0,0,0.1,0,0.1c-0.2,0.3-0.5,0.5-0.8,0.5C340,111.4,339.6,111,339.6,110.3
		C339.6,110.4,339.6,110.4,339.6,110.3z M339.8,110.2h1.6c-0.1-0.4-0.5-0.7-0.9-0.7C340.2,109.6,339.9,109.8,339.8,110.2z"/>
	<path class="st1" d="M342.3,109.4c0,0,0-0.1,0.1-0.1c0,0,0,0,0,0c0.1,0,0.1,0,0.1,0.1v0v0.5l0,0c0.2-0.3,0.5-0.5,0.8-0.5
		c0.1,0,0.1,0,0.1,0.1v0c0,0.1,0,0.1-0.1,0.1c-0.2,0-0.5,0.1-0.6,0.3c-0.1,0.1-0.2,0.3-0.3,0.5l0,0v0.9c0,0.1,0,0.1-0.1,0.1l0,0
		c0,0-0.1,0-0.1-0.1c0,0,0,0,0,0L342.3,109.4z"/>
	<path class="st1" d="M344,110.9c0,0,0.1,0,0.1,0c0.2,0.1,0.4,0.2,0.6,0.2c0.1,0,0.3,0,0.4-0.1c0.1,0,0.2-0.1,0.2-0.3
		c0-0.1-0.1-0.2-0.1-0.3c-0.1-0.1-0.3-0.1-0.4-0.1l0,0c-0.2,0-0.3-0.1-0.5-0.2c-0.1-0.1-0.2-0.2-0.2-0.4c0-0.2,0.1-0.3,0.2-0.4
		c0.2-0.1,0.3-0.1,0.5-0.1c0.2,0,0.4,0.1,0.6,0.2c0,0,0,0.1,0,0.1c0,0-0.1,0-0.1,0c-0.1-0.1-0.3-0.2-0.5-0.2c-0.1,0-0.3,0-0.4,0.1
		c-0.1,0.1-0.1,0.1-0.1,0.2c0,0.1,0,0.2,0.1,0.2c0.1,0.1,0.3,0.1,0.4,0.1l0,0c0.2,0,0.3,0.1,0.5,0.2c0.1,0.1,0.2,0.3,0.2,0.4
		c0,0.2-0.1,0.3-0.2,0.4c-0.2,0.1-0.3,0.2-0.5,0.2c-0.3,0-0.6-0.1-0.8-0.3C344,111,344,111,344,110.9z"/>
	<rect x="83.4" y="95.6" class="st0" width="262.4" height="10.2"/>
	<path class="st1" d="M85.9,144.1c0.5,0,1,0.2,1.4,0.5c0.1,0.1,0.1,0.2,0,0.2c0,0,0,0,0,0c-0.1,0.1-0.1,0.1-0.2,0c0,0,0,0,0,0
		c-0.4-0.3-0.8-0.4-1.3-0.4c-1.1-0.2-2.1,0.5-2.4,1.5c-0.2,1.1,0.5,2.1,1.5,2.4c0.3,0.1,0.6,0.1,0.8,0c0.5,0,0.9-0.2,1.2-0.4
		c0.1-0.1,0.2-0.1,0.2,0c0,0,0,0,0,0c0.1,0.1,0.1,0.2,0,0.2c0,0,0,0,0,0c-0.4,0.3-0.9,0.5-1.4,0.5c-1.3,0-2.3-1-2.3-2.3
		C83.6,145,84.7,144,85.9,144.1C85.9,144,85.9,144,85.9,144.1L85.9,144.1z"/>
	<path class="st1" d="M91.3,145.6v2.8c0,0.1-0.1,0.2-0.2,0.1c-0.1,0-0.2-0.1-0.2-0.1V148c-0.3,0.4-0.7,0.6-1.2,0.6
		c-0.9-0.1-1.5-0.8-1.4-1.7c0.1-0.8,0.7-1.4,1.4-1.4c0.5,0,0.9,0.2,1.2,0.6v-0.5c0-0.1,0.1-0.1,0.2-0.1S91.3,145.6,91.3,145.6
		L91.3,145.6z M91,147.1c0-0.7-0.6-1.1-1.3-1.1c-0.7,0-1.1,0.6-1.1,1.3c0,0.6,0.6,1.1,1.2,1.1C90.5,148.3,91,147.7,91,147.1
		C91,147.1,91,147.1,91,147.1L91,147.1z"/>
	<path class="st1" d="M93.7,145.6c0,0.1-0.1,0.2-0.2,0.2h-0.4v2.3c0,0.1,0.1,0.2,0.2,0.2c0.1,0,0.2,0,0.2,0.1c0,0.1,0,0.2-0.1,0.2
		c0,0-0.1,0-0.1,0c-0.3,0-0.5-0.2-0.5-0.5c0,0,0,0,0,0v-2.3h-0.4c-0.2,0-0.2-0.1-0.2-0.2s0-0.1,0.2-0.1h0.4v-1.2
		c0-0.1,0.1-0.2,0.2-0.2c0.1,0,0.2,0.1,0.2,0.2v1.2h0.4C93.6,145.5,93.7,145.6,93.7,145.6z"/>
	<path class="st1" d="M94.7,147.1c0.1-0.8,0.9-1.4,1.7-1.3c0.7,0.1,1.2,0.6,1.3,1.2l0,0l0,0c0,0.1-0.1,0.1-0.1,0.1H95
		c0,0.7,0.5,1.2,1.2,1.2c0.4,0,0.8-0.2,1-0.6c0-0.1,0.1-0.1,0.2-0.1c0.1,0.1,0.1,0.2,0,0.2c-0.3,0.4-0.8,0.7-1.3,0.7
		C95.3,148.6,94.7,147.9,94.7,147.1z M95,146.8h2.4c-0.1-0.7-0.7-1.1-1.4-1C95.5,145.9,95.1,146.3,95,146.8z"/>
	<path class="st1" d="M101.5,148.4c0,0.8-0.7,1.5-1.5,1.5l0,0c-0.2,0-0.4-0.1-0.6-0.1c-0.1,0-0.1-0.1-0.1-0.2c0-0.1,0.1-0.1,0.2-0.1
		c0,0,0,0,0,0c0.2,0.1,0.3,0.1,0.5,0.1c0.6,0,1.2-0.5,1.2-1.1c0,0,0,0,0,0V148c-0.3,0.4-0.7,0.6-1.2,0.6c-0.9-0.1-1.5-0.8-1.4-1.7
		c0.1-0.8,0.7-1.4,1.4-1.4c0.5,0,0.9,0.2,1.2,0.6v-0.5c0-0.1,0.1-0.2,0.2-0.1c0.1,0,0.1,0.1,0.1,0.1V148.4z M101.2,147.1
		c0-0.6-0.5-1.2-1.2-1.2c-0.6,0-1.2,0.5-1.2,1.2c0,0,0,0,0,0c0,0.6,0.5,1.2,1.2,1.2C100.7,148.2,101.2,147.7,101.2,147.1
		C101.2,147.1,101.2,147.1,101.2,147.1z"/>
	<path class="st1" d="M104.4,145.5c0.9,0,1.6,0.6,1.7,1.5s-0.6,1.6-1.5,1.7s-1.6-0.6-1.7-1.5c0,0,0-0.1,0-0.1
		C102.9,146.2,103.5,145.5,104.4,145.5z M104.4,148.3c0.7,0,1.3-0.5,1.3-1.2c0-0.7-0.5-1.3-1.2-1.3c-0.7,0-1.3,0.5-1.3,1.2
		c0,0,0,0.1,0,0.1C103.2,147.7,103.7,148.3,104.4,148.3z"/>
	<path class="st1" d="M106.9,145.7c0-0.1,0.1-0.2,0.2-0.2l0,0c0.1,0,0.1,0.1,0.1,0.2v0.7c0,0,0-0.1,0.1-0.1c0.3-0.5,0.7-0.7,1.3-0.8
		c0.1,0,0.2,0.1,0.1,0.2c0,0.1-0.1,0.1-0.1,0.1c-0.4,0-0.7,0.2-0.9,0.5c-0.2,0.2-0.3,0.5-0.4,0.7l0,0v1.4c0,0.1-0.1,0.1-0.1,0.1
		c-0.1,0-0.2-0.1-0.2-0.1c0,0,0,0,0,0L106.9,145.7z"/>
	<path class="st1" d="M109.4,145.6c0-0.1,0.1-0.1,0.1-0.1c0.1,0,0.2,0.1,0.2,0.1c0,0,0,0,0,0v1.7c0,0.6,0.4,1,1,1s1-0.4,1-1v-1.7
		c0,0,0-0.1,0-0.1l0,0l0,0c0,0,0,0,0.1,0h0.1c0,0,0.1,0,0.1,0c0,0,0,0,0,0.1c0,0,0,0,0,0.1v2.7c0,0.8-0.7,1.5-1.5,1.5c0,0,0,0,0,0
		c-0.2,0-0.4-0.1-0.6-0.1c-0.1,0-0.1-0.1-0.1-0.2c0-0.1,0.1-0.1,0.2-0.1c0.2,0.1,0.3,0.1,0.5,0.1c0.6,0,1.2-0.5,1.2-1.1c0,0,0,0,0,0
		v-0.2c-0.3,0.3-0.6,0.4-1,0.4c-0.7,0-1.3-0.6-1.3-1.3c0,0,0,0,0,0L109.4,145.6z"/>
	<path class="st1" d="M305.6,166.3l-1,1.3c0,0-0.1,0-0.1,0.1l0,0c0,0-0.1,0-0.1-0.1l-1-1.3v2.4c0,0.1,0,0.1-0.1,0.1
		c-0.1,0-0.1,0-0.1-0.1V166c0,0,0-0.1,0-0.1l0,0c0,0,0.1,0,0.1,0l1.1,1.5l1-1.5c0,0,0.1,0,0.1,0l0,0c0,0,0,0,0,0.1v2.8
		c0,0.1-0.1,0.1-0.1,0.1c-0.1,0-0.1,0-0.1-0.1v0L305.6,166.3z"/>
	<path class="st1" d="M308.6,166.9v1.9c0,0.1,0,0.1-0.1,0.1c-0.1,0-0.1,0-0.1-0.1v0v-0.3c-0.4,0.4-1,0.5-1.4,0.1
		c-0.2-0.2-0.4-0.5-0.4-0.8c0-0.6,0.4-1,1-1c0.3,0,0.6,0.2,0.8,0.4v-0.3C308.4,166.8,308.4,166.8,308.6,166.9
		C308.5,166.8,308.5,166.8,308.6,166.9C308.5,166.8,308.6,166.8,308.6,166.9z M308.4,167.8c0-0.4-0.3-0.8-0.7-0.9
		c-0.4,0-0.8,0.3-0.9,0.7c0,0.1,0,0.1,0,0.2c0,0.4,0.3,0.8,0.7,0.9c0.4,0,0.8-0.3,0.9-0.7C308.4,167.9,308.4,167.8,308.4,167.8z"/>
	<path class="st1" d="M309.4,168.7l0.6-0.9l-0.6-0.9c0,0,0-0.1,0-0.1c0,0,0.1,0,0.1,0l0.6,0.8l0.6-0.8c0,0,0.1,0,0.1,0c0,0,0,0,0,0
		c0,0,0,0.1,0,0.1l-0.6,0.9l0.6,0.9c0,0,0,0.1,0,0.1h0c0,0-0.1,0-0.1,0l-0.6-0.8l-0.6,0.8c0,0-0.1,0-0.1,0h-0.1
		C309.3,168.8,309.3,168.7,309.4,168.7z"/>
	<path class="st1" d="M312.1,168.4c0.1,0,0.2,0.1,0.2,0.2c0,0.1-0.1,0.2-0.2,0.2c-0.1,0-0.2-0.1-0.2-0.2c0,0,0,0,0,0
		C311.8,168.5,311.9,168.4,312.1,168.4L312.1,168.4z"/>
	<path class="st1" d="M314,168.6l1.4-1.3c0.3-0.3,0.3-0.7,0.1-1.1c0,0,0,0,0,0c-0.1-0.2-0.4-0.3-0.6-0.3c-0.2,0-0.4,0.1-0.5,0.2
		l-0.1,0.1c0,0-0.1,0-0.1,0c0,0,0-0.1,0-0.1l0.1-0.1c0.2-0.2,0.4-0.2,0.7-0.3c0.3,0,0.5,0.1,0.7,0.3c0.3,0.4,0.3,1-0.1,1.4l-1.2,1.1
		h1.4c0.1,0,0.1,0,0.1,0.1c0,0,0,0,0,0c0,0.1,0,0.1-0.1,0.1l0,0h-1.7c0,0,0,0-0.1,0C313.9,168.8,313.9,168.7,314,168.6
		C314,168.7,314,168.7,314,168.6z"/>
	<path class="st1" d="M316.6,168.5c0,0,0-0.1,0-0.1c0,0,0.1,0,0.2,0c0.2,0.1,0.4,0.2,0.6,0.2c0.2,0,0.4-0.1,0.6-0.2
		c0.2-0.1,0.2-0.3,0.2-0.6c0-0.2-0.1-0.4-0.2-0.6c-0.3-0.3-0.8-0.3-1.1,0c0,0,0,0,0,0c0,0-0.1,0-0.1,0l0,0l0,0l0,0l0,0l0.1-1.2
		c0,0,0-0.1,0-0.1h0.1h1.4c0.1,0,0.1,0,0.1,0.1c0,0.1,0,0.1-0.1,0.1c0,0,0,0,0,0h-1.3l-0.1,0.9c0.2-0.1,0.3-0.1,0.5-0.1
		c0.3,0,0.5,0.1,0.7,0.3c0.2,0.2,0.3,0.4,0.3,0.7c0,0.3-0.1,0.5-0.3,0.7c-0.4,0.4-1,0.4-1.4,0c0,0,0,0,0,0L316.6,168.5z"/>
	<path class="st1" d="M319.1,167.3c0-0.4,0.1-0.7,0.3-1c0.2-0.3,0.4-0.4,0.7-0.4c0.3,0,0.6,0.2,0.8,0.4c0.4,0.6,0.4,1.4,0,2.1
		c-0.2,0.3-0.4,0.4-0.8,0.4c-0.3,0-0.6-0.2-0.7-0.4C319.2,168.1,319.1,167.7,319.1,167.3z M319.3,167.3c0,0.3,0.1,0.6,0.3,0.9
		c0.1,0.2,0.3,0.3,0.6,0.4c0.2,0,0.5-0.1,0.6-0.4c0.3-0.6,0.3-1.3,0-1.8c-0.1-0.2-0.3-0.4-0.6-0.4c-0.2,0-0.5,0.1-0.6,0.4
		C319.4,166.7,319.3,167,319.3,167.3z"/>
	<path class="st1" d="M323.4,167.8c0-0.6,0.4-1,1-1c0,0,0,0,0.1,0c0.2,0,0.5,0.1,0.7,0.2c0,0,0,0.1,0,0.1c0,0,0,0,0,0
		c0,0-0.1,0-0.1,0c-0.2-0.1-0.3-0.2-0.5-0.2c-0.5-0.1-0.9,0.3-0.9,0.8c-0.1,0.5,0.3,0.9,0.8,0.9c0.1,0,0.1,0,0.2,0
		c0.2,0,0.4-0.1,0.5-0.2c0,0,0.1,0,0.1,0c0,0,0,0.1,0,0.1c0,0,0,0,0,0c-0.2,0.1-0.4,0.2-0.7,0.2c-0.6,0-1-0.4-1.1-0.9
		C323.4,167.9,323.4,167.8,323.4,167.8z"/>
	<path class="st1" d="M327.5,167.6c0-0.4-0.3-0.7-0.7-0.7s-0.7,0.3-0.7,0.7v1.2l0,0l0,0l0,0c0,0,0,0-0.1,0.1l0,0c0,0-0.1,0-0.1,0
		l0,0V166c0-0.1,0-0.1,0.1-0.1c0.1,0,0.1,0,0.1,0.1v1.1c0.2-0.2,0.4-0.3,0.7-0.3c0.5,0,0.8,0.3,0.9,0.8c0,0,0,0,0,0v1.2
		c0,0.1-0.1,0.1-0.1,0.1c-0.1,0-0.1,0-0.1-0.1L327.5,167.6z"/>
	<path class="st1" d="M330.5,166.9v1.9c0,0.1,0,0.1-0.1,0.1l0,0c-0.1,0-0.1,0-0.1-0.1v-0.3c-0.2,0.3-0.5,0.4-0.8,0.4
		c-0.6,0-1-0.5-1-1s0.5-1,1-1c0.3,0,0.6,0.2,0.8,0.4v-0.3c0-0.1,0-0.1,0.1-0.1C330.5,166.7,330.5,166.8,330.5,166.9
		C330.5,166.8,330.5,166.8,330.5,166.9z M330.3,167.8c0-0.4-0.4-0.8-0.8-0.7c-0.4,0-0.8,0.4-0.7,0.8c0,0.4,0.4,0.7,0.8,0.7
		C330,168.6,330.3,168.2,330.3,167.8C330.3,167.8,330.3,167.8,330.3,167.8L330.3,167.8z"/>
	<path class="st1" d="M331.4,166.9c0-0.1,0-0.1,0.1-0.1c0,0,0,0,0,0c0,0,0.1,0,0.1,0.1c0,0,0,0,0,0v0.5v-0.1
		c0.2-0.3,0.5-0.5,0.8-0.5c0.1,0,0.1,0,0.1,0.1c0,0.1,0,0.1-0.1,0.1c-0.2,0-0.5,0.1-0.6,0.3c-0.1,0.2-0.2,0.3-0.3,0.5v0.9
		c0,0,0,0.1-0.1,0.1c0,0,0,0,0,0c-0.1,0-0.1,0-0.1-0.1c0,0,0,0,0,0L331.4,166.9z"/>
	<path class="st1" d="M334.9,166.9v1.9c0,0.1-0.1,0.1-0.1,0.1c-0.1,0-0.1,0-0.1-0.1v-0.3c-0.2,0.3-0.5,0.4-0.8,0.4c-0.6,0-1-0.5-1-1
		s0.5-1,1-1c0.3,0,0.6,0.2,0.8,0.4v-0.3c0-0.1,0-0.1,0.1-0.1C334.9,166.7,334.9,166.8,334.9,166.9z M334.7,167.8
		c0-0.4-0.4-0.8-0.8-0.7c-0.4,0-0.8,0.4-0.7,0.8c0,0.4,0.4,0.7,0.8,0.7C334.4,168.6,334.7,168.2,334.7,167.8
		C334.7,167.8,334.7,167.8,334.7,167.8L334.7,167.8z"/>
	<path class="st1" d="M335.6,167.8c0-0.6,0.5-1,1.1-1c0.2,0,0.5,0.1,0.7,0.2c0,0,0,0.1,0,0.1c0,0-0.1,0-0.1,0
		c-0.2-0.1-0.3-0.2-0.5-0.2c-0.5-0.1-0.9,0.3-0.9,0.8c-0.1,0.5,0.3,0.9,0.8,0.9c0.1,0,0.1,0,0.2,0c0.2,0,0.4-0.1,0.5-0.2
		c0,0,0.1,0,0.1,0c0,0,0,0.1,0,0.1c-0.2,0.1-0.4,0.2-0.6,0.2C336.2,168.8,335.7,168.4,335.6,167.8
		C335.7,167.8,335.7,167.8,335.6,167.8z"/>
	<path class="st1" d="M339,166.9c0,0.1-0.1,0.1-0.1,0.1h-0.3v1.5c0,0.1,0.1,0.1,0.1,0.1c0.1,0,0.1,0.1,0.1,0.1
		c0,0.1-0.1,0.1-0.1,0.1c-0.2,0-0.4-0.1-0.4-0.3c0,0,0,0,0,0V167h-0.3c-0.1,0-0.1,0-0.1-0.1s0-0.1,0.1-0.1h0.3V166
		c0-0.1,0-0.1,0.1-0.1c0.1,0,0.1,0,0.1,0.1v0.8h0.3C338.9,166.8,339,166.8,339,166.9z"/>
	<path class="st1" d="M339.6,167.8c0-0.6,0.4-1,1-1c0.6,0,1,0.4,1,1l0,0c0,0,0,0.1-0.1,0.1c0,0,0,0,0,0h-1.7c0,0.4,0.4,0.8,0.8,0.8
		c0.3,0,0.5-0.1,0.7-0.4c0,0,0.1,0,0.1,0c0,0,0,0.1,0,0.1c-0.2,0.3-0.5,0.5-0.8,0.5C340,168.8,339.6,168.4,339.6,167.8
		C339.6,167.8,339.6,167.8,339.6,167.8z M339.8,167.6h1.6c-0.1-0.4-0.4-0.7-0.8-0.7C340.2,166.9,339.9,167.2,339.8,167.6
		L339.8,167.6z"/>
	<path class="st1" d="M342.3,166.9c0,0,0-0.1,0.1-0.1c0,0,0,0,0,0c0.1,0,0.1,0,0.1,0.1v0v0.5v-0.1c0.2-0.3,0.5-0.5,0.8-0.5
		c0.1,0,0.1,0,0.1,0.1c0,0.1,0,0.1-0.1,0.1c-0.2,0-0.5,0.1-0.6,0.3c-0.1,0.2-0.2,0.3-0.3,0.5v0.9c0,0.1,0,0.1-0.1,0.1l0,0
		c0,0-0.1,0-0.1-0.1c0,0,0,0,0,0L342.3,166.9z"/>
	<path class="st1" d="M344,168.4c0,0,0.1,0,0.1,0c0.2,0.2,0.4,0.2,0.6,0.3c0.1,0,0.3,0,0.4-0.1c0.1-0.1,0.2-0.2,0.2-0.3
		c0-0.1-0.1-0.2-0.1-0.3c-0.1-0.1-0.3-0.1-0.4-0.2l0,0c-0.2,0-0.3-0.1-0.5-0.2c-0.1-0.1-0.2-0.2-0.2-0.4c0-0.2,0.1-0.3,0.2-0.4
		c0.2-0.1,0.3-0.1,0.5-0.1c0.2,0,0.4,0.1,0.6,0.2c0,0,0,0.1,0,0.1c0,0-0.1,0-0.1,0c-0.1-0.1-0.3-0.2-0.5-0.2c-0.1,0-0.3,0-0.4,0.1
		c-0.1,0.1-0.1,0.1-0.1,0.2c0,0.1,0,0.2,0.1,0.2c0.1,0.1,0.3,0.1,0.4,0.1l0,0c0.2,0,0.3,0.1,0.5,0.2c0.2,0.1,0.3,0.4,0.2,0.7
		c0,0.1-0.1,0.1-0.2,0.2c-0.1,0.1-0.3,0.2-0.5,0.2c-0.3,0-0.6-0.1-0.8-0.3C344,168.5,344,168.4,344,168.4z"/>
	<rect x="83.4" y="153.1" class="st0" width="262.4" height="10.2"/>
	<path class="st1" d="M84,177.4L84,177.4c-0.1,0-0.1-0.1-0.1-0.2c0,0,0,0,0,0V173c0-0.1,0.1-0.2,0.2-0.2h0.8c1.2,0,2.2,1,2.2,2.2
		c0,1.2-1,2.2-2.2,2.2L84,177.4z M84.8,177c1.1,0,1.9-0.9,1.9-1.9s-0.9-1.9-1.9-1.9c0,0,0,0,0,0h-0.7v3.8L84.8,177z"/>
	<path class="st1" d="M88.1,175.8c0.1-0.8,0.9-1.4,1.7-1.3c0.7,0.1,1.2,0.6,1.3,1.2l0,0l0,0c0,0.1-0.1,0.1-0.2,0.1h-2.6
		c0,0.7,0.6,1.2,1.2,1.2c0.4,0,0.8-0.2,1-0.6c0.1-0.1,0.1-0.1,0.2,0c0,0,0,0,0,0c0.1,0,0.1,0.1,0.1,0.2c-0.3,0.4-0.8,0.7-1.3,0.7
		C88.7,177.3,88.1,176.6,88.1,175.8z M88.4,175.6h2.4c-0.1-0.7-0.7-1.1-1.4-1C88.9,174.6,88.5,175,88.4,175.6z"/>
	<path class="st1" d="M92,176.7c0.1-0.1,0.2-0.1,0.2,0c0.3,0.2,0.6,0.4,1,0.4c0.2,0,0.4-0.1,0.6-0.2c0.1-0.1,0.2-0.2,0.2-0.4
		c0-0.2-0.1-0.3-0.2-0.4c-0.2-0.1-0.4-0.2-0.7-0.2l0,0c-0.2,0-0.5-0.1-0.7-0.3c-0.2-0.1-0.3-0.3-0.3-0.6c0-0.2,0.1-0.5,0.3-0.6
		c0.2-0.1,0.5-0.2,0.8-0.2c0.3,0,0.7,0.1,0.9,0.3c0.1,0.1,0.1,0.2,0,0.2c0,0.1-0.1,0.1-0.2,0.1c-0.2-0.2-0.5-0.3-0.8-0.3
		c-0.2,0-0.4,0.1-0.6,0.2c-0.1,0.1-0.2,0.2-0.2,0.4c0,0.1,0.1,0.2,0.2,0.3c0.2,0.1,0.4,0.2,0.6,0.2l0,0c0.3,0,0.5,0.1,0.8,0.3
		c0.2,0.1,0.4,0.4,0.4,0.6c0,0.3-0.1,0.5-0.4,0.6c-0.2,0.2-0.5,0.3-0.8,0.3c-0.4,0-0.8-0.2-1.2-0.4C92,176.9,91.9,176.8,92,176.7
		C92,176.7,92,176.7,92,176.7z"/>
	<path class="st1" d="M95.1,175.8c0-0.9,0.7-1.6,1.6-1.6c0,0,0,0,0,0c0.4,0,0.7,0.1,1,0.3c0.1,0.1,0.1,0.1,0,0.2c0,0,0,0,0,0
		c-0.1,0.1-0.1,0.1-0.2,0c-0.2-0.2-0.5-0.3-0.8-0.3c-0.7,0-1.3,0.6-1.3,1.3c0,0.7,0.6,1.3,1.3,1.3l0,0c0.3,0,0.6-0.1,0.8-0.3
		c0.1-0.1,0.1-0.1,0.2,0c0,0,0,0,0,0c0.1,0,0.1,0.1,0,0.2c0,0,0,0,0,0c-0.7,0.5-1.7,0.4-2.2-0.3C95.3,176.4,95.2,176.1,95.1,175.8
		L95.1,175.8z"/>
	<path class="st1" d="M99,174.4c0-0.1,0.1-0.2,0.2-0.2l0,0c0.1,0,0.2,0.1,0.1,0.2v0.7V175c0.3-0.5,0.7-0.7,1.3-0.8
		c0.1,0,0.2,0.1,0.1,0.2c0,0.1-0.1,0.1-0.1,0.1c-0.4,0-0.7,0.2-0.9,0.5c-0.2,0.2-0.3,0.5-0.4,0.7c0,0,0,0,0,0.1v1.4
		c0,0.1-0.1,0.2-0.1,0.2c-0.1,0-0.2-0.1-0.2-0.2l0,0L99,174.4z"/>
	<path class="st1" d="M101.8,173.4c0-0.1,0.1-0.2,0.1-0.2c0.1,0,0.2,0.1,0.2,0.2l0,0v0.1c0,0.1,0,0.2-0.1,0.2c-0.1,0-0.2,0-0.2-0.1
		c0,0,0-0.1,0-0.1V173.4z M101.8,174.4c0-0.1,0.1-0.1,0.1-0.1c0.1,0,0.2,0.1,0.2,0.1c0,0,0,0,0,0v2.8c0,0.1-0.1,0.2-0.2,0.2l0,0
		c-0.1,0-0.2-0.1-0.1-0.2V174.4z"/>
	<path class="st1" d="M103.6,175.8v-1.5c0-0.1,0.1-0.1,0.1-0.1c0.1,0,0.2,0.1,0.2,0.1v0.4c0.3-0.4,0.7-0.6,1.2-0.6
		c0.9,0.1,1.5,0.8,1.4,1.7c-0.1,0.8-0.7,1.4-1.4,1.4c-0.5,0-0.9-0.2-1.2-0.6v1.8c0,0.1-0.1,0.2-0.2,0.2l0,0c-0.1,0-0.2-0.1-0.1-0.2
		V175.8z M103.9,175.8c-0.1,0.7,0.4,1.2,1.1,1.3c0.7,0.1,1.2-0.4,1.3-1.1c0-0.1,0-0.1,0-0.2c0-0.7-0.5-1.2-1.2-1.2c0,0,0,0,0,0
		C104.5,174.6,103.9,175.1,103.9,175.8L103.9,175.8z"/>
	<path class="st1" d="M108.9,174.4c0,0.1-0.1,0.2-0.2,0.1h-0.4v2.3c0,0.1,0.1,0.2,0.2,0.2c0.1,0,0.2,0.1,0.2,0.2
		c0,0.1-0.1,0.2-0.2,0.2c-0.3,0-0.5-0.2-0.6-0.5c0,0,0,0,0,0v-2.3h-0.4c-0.1,0-0.1-0.1-0.1-0.1s0-0.1,0.1-0.1h0.4v-1.2
		c0-0.1,0.1-0.2,0.2-0.2s0.2,0.1,0.2,0.2v1.2h0.4C108.9,174.2,108.9,174.3,108.9,174.4z"/>
	<path class="st1" d="M110.4,173.4c0-0.1,0.1-0.2,0.1-0.2c0.1,0,0.2,0.1,0.2,0.2l0,0v0.1c0,0.1,0,0.2-0.1,0.2c-0.1,0-0.2,0-0.2-0.1
		c0,0,0-0.1,0-0.1V173.4z M110.4,174.4c0-0.1,0.1-0.1,0.1-0.1c0.1,0,0.2,0.1,0.2,0.1c0,0,0,0,0,0v2.8c0,0.1-0.1,0.2-0.2,0.2l0,0
		c-0.1,0-0.2-0.1-0.1-0.2V174.4z"/>
	<path class="st1" d="M113.5,174.2c0.9,0,1.6,0.6,1.7,1.5s-0.6,1.6-1.5,1.7s-1.6-0.6-1.7-1.5c0,0,0-0.1,0-0.1
		C112,175,112.7,174.3,113.5,174.2z M113.5,177.1c0.7,0,1.3-0.5,1.3-1.2c0-0.7-0.5-1.3-1.2-1.3c-0.7,0-1.3,0.5-1.3,1.2
		c0,0,0,0.1,0,0.1C112.3,176.5,112.9,177,113.5,177.1z"/>
	<path class="st1" d="M118.4,175.5c0-0.6-0.4-1-1-1s-1,0.4-1,1v1.7c0,0,0,0,0,0.1c0,0-0.1,0.1-0.1,0.1l0,0c0,0-0.1-0.1-0.1-0.1l0,0
		v-2.9c0-0.1,0.1-0.2,0.2-0.2l0,0c0.1,0,0.1,0.1,0.1,0.2c0,0,0,0,0,0v0.3c0.4-0.5,1.2-0.6,1.8-0.2c0.3,0.2,0.5,0.6,0.5,1v1.7
		c0,0.1-0.1,0.2-0.2,0.2l0,0c-0.1,0-0.2-0.1-0.1-0.2L118.4,175.5z"/>
	<path class="st1" d="M305.1,227.4l-1,1.3c0,0-0.1,0-0.1,0l0,0c0,0-0.1,0-0.1,0l-1-1.3v2.5c0,0.1,0,0.1-0.1,0.1
		c-0.1,0-0.1,0-0.1-0.1v-2.8c0,0,0-0.1,0-0.1l0,0c0,0,0.1,0,0.1,0l1.1,1.5l1-1.5c0,0,0.1,0,0.1,0l0,0c0,0,0,0,0,0.1v2.8
		c0,0.1,0,0.1-0.1,0.1s-0.1,0-0.1-0.1L305.1,227.4z"/>
	<path class="st1" d="M308.1,228v1.9c0,0.1,0,0.1-0.1,0.1c-0.1,0-0.1,0-0.1-0.1l0,0v-0.3c-0.2,0.3-0.5,0.4-0.8,0.4c-0.6,0-1-0.5-1-1
		c0-0.6,0.5-1,1-1c0.3,0,0.6,0.2,0.8,0.4V228c0-0.1,0-0.1,0.1-0.1c0,0,0,0,0,0C308,227.9,308.1,227.9,308.1,228z M307.9,228.9
		c0-0.4-0.3-0.8-0.7-0.9c-0.4,0-0.8,0.3-0.9,0.7c0,0.1,0,0.1,0,0.2c0,0.4,0.3,0.8,0.7,0.9c0.4,0,0.8-0.3,0.9-0.7
		C307.9,229.1,307.9,229,307.9,228.9z"/>
	<path class="st1" d="M308.9,229.8l0.6-0.9l-0.6-0.9c0,0,0-0.1,0-0.1c0,0,0.1,0,0.1,0l0.6,0.8l0.6-0.8c0,0,0.1,0,0.1,0
		c0,0,0,0.1,0,0.1l-0.6,0.9l0.6,0.9c0,0,0,0.1,0,0.1h0c0,0-0.1,0-0.1,0l-0.6-0.8L309,230c0,0-0.1,0-0.1,0h-0.1
		C308.8,229.9,308.8,229.9,308.9,229.8z"/>
	<path class="st1" d="M311.5,229.6c0.1,0,0.2,0.1,0.2,0.2l0,0c0,0.1-0.1,0.2-0.2,0.2c0,0,0,0,0,0c-0.1,0-0.2-0.1-0.2-0.2
		C311.3,229.7,311.4,229.6,311.5,229.6C311.5,229.6,311.5,229.6,311.5,229.6z"/>
	<path class="st1" d="M313.5,229.7c0,0,0-0.1,0-0.1c0,0,0.1-0.1,0.1,0c0,0,0,0,0,0c0.2,0.1,0.4,0.2,0.6,0.2c0.2,0,0.4-0.1,0.6-0.2
		c0.1-0.1,0.2-0.4,0.2-0.6c0-0.2-0.1-0.4-0.2-0.6c-0.1-0.1-0.4-0.2-0.6-0.2c-0.2,0-0.4,0.1-0.6,0.2c0,0-0.1,0-0.1,0l0,0l0,0v-0.1
		l0.1-1.2c0,0,0-0.1,0-0.1h0.1h1.4c0.1,0,0.1,0,0.1,0.1l0,0c0,0.1,0,0.1-0.1,0.1c0,0,0,0,0,0h-1.3l-0.1,0.9c0.2-0.1,0.3-0.1,0.5-0.1
		c0.3,0,0.5,0.1,0.7,0.3c0.4,0.4,0.4,1,0,1.4c0,0,0,0,0,0c-0.2,0.2-0.5,0.3-0.7,0.3C314,230,313.7,229.9,313.5,229.7z"/>
	<path class="st1" d="M316.1,228.5c0-0.4,0.1-0.7,0.3-1c0.2-0.4,0.7-0.6,1.1-0.4c0.2,0.1,0.3,0.2,0.4,0.4c0.4,0.6,0.4,1.4,0,2.1
		c-0.2,0.4-0.7,0.6-1.1,0.4c-0.2-0.1-0.3-0.2-0.4-0.4C316.2,229.3,316.1,228.9,316.1,228.5z M316.3,228.5c0,0.3,0.1,0.6,0.3,0.9
		c0.1,0.2,0.3,0.3,0.6,0.4c0.2,0,0.5-0.2,0.6-0.4c0.2-0.3,0.3-0.6,0.3-0.9c0-0.3-0.1-0.6-0.3-0.9c-0.1-0.2-0.3-0.3-0.6-0.4
		c-0.2,0-0.5,0.1-0.6,0.4C316.4,227.8,316.3,228.2,316.3,228.5L316.3,228.5z"/>
	<path class="st1" d="M319.1,228.5c0-0.4,0.1-0.7,0.3-1c0.2-0.3,0.4-0.4,0.7-0.5c0.3,0,0.6,0.2,0.8,0.5c0.4,0.6,0.4,1.4,0,2.1
		c-0.2,0.3-0.4,0.4-0.8,0.5c-0.3,0-0.6-0.2-0.7-0.5C319.2,229.3,319.1,228.9,319.1,228.5z M319.3,228.5c0,0.3,0.1,0.6,0.3,0.9
		c0.1,0.2,0.3,0.3,0.6,0.4c0.2,0,0.5-0.1,0.6-0.4c0.2-0.3,0.3-0.6,0.3-0.9c0-0.3-0.1-0.7-0.3-0.9c-0.1-0.2-0.3-0.3-0.6-0.4
		c-0.2,0-0.5,0.1-0.6,0.4C319.4,227.9,319.3,228.2,319.3,228.5z"/>
	<path class="st1" d="M323.4,228.9c0-0.6,0.4-1,1-1c0,0,0,0,0.1,0c0.2,0,0.5,0.1,0.7,0.2c0,0,0,0.1,0,0.1c0,0,0,0,0,0
		c0,0-0.1,0-0.1,0c-0.2-0.1-0.3-0.2-0.5-0.2c-0.5-0.1-0.9,0.3-0.9,0.8s0.3,0.9,0.8,0.9c0.1,0,0.1,0,0.2,0c0.2,0,0.4-0.1,0.5-0.2
		c0,0,0.1,0,0.1,0c0,0,0,0.1,0,0.1c0,0,0,0,0,0c-0.2,0.1-0.4,0.2-0.7,0.2c-0.6,0-1-0.4-1.1-0.9C323.4,229,323.4,229,323.4,228.9z"/>
	<path class="st1" d="M327.5,228.7c0-0.4-0.3-0.7-0.7-0.7s-0.7,0.3-0.7,0.7v1.2l0,0l0,0l0,0c0,0,0,0.1-0.1,0.1l0,0c0,0-0.1,0-0.1,0
		l0,0v-2.8c0-0.1,0-0.1,0.1-0.1c0.1,0,0.1,0,0.1,0.1v1.1c0.2-0.2,0.4-0.3,0.7-0.3c0.5,0,0.8,0.3,0.9,0.8c0,0,0,0,0,0v1.2
		c0,0.1-0.1,0.1-0.1,0.1c-0.1,0-0.1,0-0.1-0.1L327.5,228.7z"/>
	<path class="st1" d="M330.5,228v1.9c0,0.1,0,0.1-0.1,0.1l0,0c-0.1,0-0.1,0-0.1-0.1v-0.3c-0.2,0.3-0.5,0.4-0.8,0.4c-0.6,0-1-0.5-1-1
		c0-0.6,0.5-1,1-1c0.3,0,0.6,0.2,0.8,0.4V228c0-0.1,0-0.1,0.1-0.1C330.5,227.9,330.5,227.9,330.5,228C330.5,228,330.5,228,330.5,228
		z M330.3,228.9c0-0.4-0.4-0.8-0.8-0.7c-0.4,0-0.8,0.4-0.7,0.8c0,0.4,0.4,0.7,0.8,0.7C330,229.8,330.3,229.4,330.3,228.9
		L330.3,228.9z"/>
	<path class="st1" d="M331.4,228c0-0.1,0-0.1,0.1-0.1c0,0,0,0,0,0c0,0,0.1,0,0.1,0.1c0,0,0,0,0,0v0.5v0c0.2-0.3,0.5-0.5,0.8-0.5
		c0,0,0.1,0,0.1,0.1c0,0,0,0,0,0c0,0.1,0,0.1-0.1,0.1l0,0c-0.2,0-0.5,0.1-0.6,0.3c-0.1,0.2-0.2,0.3-0.3,0.5l0,0v0.9
		c0,0,0,0.1-0.1,0.1c0,0,0,0,0,0c-0.1,0-0.1,0-0.1-0.1c0,0,0,0,0,0L331.4,228z"/>
	<path class="st1" d="M334.9,228v1.9c0,0.1-0.1,0.1-0.1,0.1c-0.1,0-0.1,0-0.1-0.1v-0.3c-0.2,0.3-0.5,0.4-0.8,0.4c-0.6,0-1-0.5-1-1
		c0-0.6,0.5-1,1-1c0.3,0,0.6,0.2,0.8,0.4V228c0-0.1,0-0.1,0.1-0.1C334.9,227.9,334.9,227.9,334.9,228z M334.7,228.9
		c0-0.4-0.4-0.8-0.8-0.7c-0.4,0-0.8,0.4-0.7,0.8c0,0.4,0.4,0.7,0.8,0.7C334.4,229.8,334.7,229.4,334.7,228.9L334.7,228.9z"/>
	<path class="st1" d="M335.6,228.9c0-0.6,0.5-1,1.1-1c0.2,0,0.5,0.1,0.7,0.2c0,0,0,0.1,0,0.1c0,0-0.1,0-0.1,0
		c-0.2-0.1-0.3-0.2-0.5-0.2c-0.5-0.1-0.9,0.3-0.9,0.8s0.3,0.9,0.8,0.9c0.1,0,0.1,0,0.2,0c0.2,0,0.4-0.1,0.5-0.2c0,0,0.1,0,0.1,0
		c0,0,0,0.1,0,0.1c-0.2,0.1-0.4,0.2-0.6,0.2C336.2,230,335.7,229.5,335.6,228.9C335.7,229,335.7,228.9,335.6,228.9z"/>
	<path class="st1" d="M339,228c0,0.1-0.1,0.1-0.1,0.1h-0.3v1.5c0,0.1,0.1,0.1,0.1,0.1c0.1,0,0.1,0.1,0.1,0.1c0,0.1-0.1,0.1-0.1,0.1
		c-0.2,0-0.4-0.1-0.4-0.3c0,0,0,0,0,0v-1.5h-0.3c-0.1,0-0.1,0-0.1-0.1s0-0.1,0.1-0.1h0.3v-0.8c0-0.1,0-0.1,0.1-0.1
		c0.1,0,0.1,0,0.1,0.1v0.8h0.3C338.9,227.9,339,227.9,339,228z"/>
	<path class="st1" d="M339.6,229c0-0.6,0.4-1,1-1c0.6,0,1,0.4,1,1l0,0c0,0.1,0,0.1-0.1,0.1h-1.7c0,0.4,0.4,0.8,0.8,0.8
		c0.3,0,0.5-0.1,0.7-0.4c0,0,0.1,0,0.1,0c0,0,0,0.1,0,0.1c-0.2,0.3-0.5,0.5-0.8,0.5C340,230,339.6,229.6,339.6,229
		C339.6,229,339.6,229,339.6,229z M339.8,228.8h1.6c-0.1-0.4-0.4-0.7-0.8-0.7C340.3,228.2,339.9,228.4,339.8,228.8L339.8,228.8z"/>
	<path class="st1" d="M342.3,228c0,0,0-0.1,0.1-0.1c0,0,0,0,0,0c0.1,0,0.1,0,0.1,0.1l0,0v0.5v0c0.2-0.3,0.5-0.5,0.8-0.5
		c0.1,0,0.1,0,0.1,0.1l0,0c0,0.1,0,0.1-0.1,0.1c-0.2,0-0.5,0.1-0.6,0.3c-0.1,0.2-0.2,0.3-0.3,0.5l0,0v0.9c0,0.1,0,0.1-0.1,0.1l0,0
		c0,0-0.1,0-0.1-0.1c0,0,0,0,0,0L342.3,228z"/>
	<path class="st1" d="M344,229.6c0,0,0.1,0,0.1,0c0,0,0,0,0,0c0.2,0.2,0.4,0.2,0.6,0.3c0.1,0,0.3,0,0.4-0.1c0.1-0.1,0.2-0.2,0.2-0.3
		c0-0.1,0-0.2-0.1-0.3c-0.1-0.1-0.3-0.1-0.4-0.2l0,0c-0.2,0-0.3-0.1-0.5-0.2c-0.1-0.1-0.2-0.2-0.2-0.4c0-0.2,0.1-0.3,0.2-0.4
		c0.2-0.1,0.3-0.1,0.5-0.1c0.2,0,0.4,0.1,0.6,0.2c0,0,0,0.1,0,0.1c0,0-0.1,0-0.1,0c-0.1-0.1-0.3-0.2-0.5-0.2c-0.1,0-0.3,0-0.4,0.1
		c-0.1,0.1-0.1,0.1-0.1,0.2c0,0.1,0,0.2,0.1,0.2c0.1,0.1,0.3,0.1,0.4,0.1l0,0c0.2,0,0.3,0.1,0.5,0.2c0.2,0.1,0.3,0.4,0.2,0.7
		c0,0.1-0.1,0.1-0.2,0.2c-0.1,0.1-0.3,0.2-0.5,0.2c-0.3,0-0.6-0.1-0.8-0.3C344,229.6,344,229.6,344,229.6z"/>
	<rect x="83.4" y="181.8" class="st0" width="262.4" height="42.7"/>
	<path class="st1" d="M86.2,118.7h-2l-0.4,1.1c0,0.1-0.1,0.1-0.2,0.1l0,0c-0.1,0-0.1-0.1-0.1-0.2c0,0,0,0,0,0l1.6-4.1
		c0-0.1,0.1-0.1,0.2-0.1c0.1,0,0.1,0,0.2,0.1l1.6,4.1c0,0.1,0,0.2-0.1,0.2l0,0c-0.1,0-0.1,0-0.2-0.1L86.2,118.7z M84.3,118.4h1.8
		l-0.9-2.4L84.3,118.4z"/>
	<path class="st1" d="M87.7,116.9c0-0.1,0.1-0.2,0.2-0.2c0.1,0,0.2,0.1,0.2,0.2l0,0v1.7c0,0.5,0.4,1,0.9,1c0.6,0,1-0.4,1-1v-1.7
		c0-0.1,0.1-0.2,0.2-0.2c0.1,0,0.2,0.1,0.2,0.2l0,0v1.7c0,0.7-0.6,1.3-1.3,1.3c0,0,0,0,0,0c-0.7,0-1.3-0.6-1.3-1.3c0,0,0,0,0,0
		L87.7,116.9z"/>
	<path class="st1" d="M92.8,116.9c0,0.1-0.1,0.2-0.2,0.2h-0.4v2.3c0,0.1,0.1,0.2,0.2,0.2c0.1,0,0.2,0,0.2,0.1c0,0.1,0,0.2-0.1,0.2
		c0,0-0.1,0-0.1,0c-0.3,0-0.5-0.2-0.5-0.5c0,0,0,0,0,0v-2.3h-0.4c-0.2,0-0.2-0.1-0.2-0.2s0-0.1,0.2-0.1h0.4v-1.2
		c0-0.1,0.1-0.2,0.2-0.2c0.1,0,0.2,0.1,0.2,0.2v1.2h0.4C92.7,116.8,92.8,116.8,92.8,116.9z"/>
	<path class="st1" d="M96.4,118c0-0.6-0.4-1-1-1s-1,0.4-1,1v1.8c0,0-0.1,0.1-0.1,0.1h-0.1c0,0-0.1,0-0.1-0.1l0,0c0,0,0,0,0-0.1v-4.2
		c0-0.1,0.1-0.1,0.1-0.1c0.1,0,0.2,0.1,0.2,0.1v1.6c0.2-0.3,0.6-0.5,1-0.5c0.7,0,1.3,0.5,1.3,1.2c0,0,0,0,0,0.1v1.8
		c0,0.1-0.1,0.2-0.2,0.1c-0.1,0-0.1-0.1-0.1-0.1L96.4,118z"/>
	<path class="st1" d="M99.4,116.8c0.9,0,1.6,0.6,1.6,1.5c0,0.9-0.6,1.6-1.5,1.6c-0.9,0-1.6-0.6-1.6-1.5c0,0,0-0.1,0-0.1
		C97.9,117.5,98.6,116.8,99.4,116.8z M99.4,119.6c0.7,0,1.3-0.6,1.3-1.3c0-0.7-0.6-1.3-1.3-1.3s-1.3,0.6-1.3,1.3
		C98.1,119,98.7,119.6,99.4,119.6z"/>
	<path class="st1" d="M101.9,116.9c0-0.1,0.1-0.2,0.1-0.2c0,0,0,0,0,0c0.1,0,0.1,0.1,0.1,0.1v0.7c0,0,0-0.1,0-0.1
		c0.3-0.5,0.7-0.7,1.3-0.8c0.1,0,0.2,0.1,0.2,0.1c0,0.1-0.1,0.2-0.2,0.1c-0.4,0-0.7,0.2-0.9,0.5c-0.2,0.2-0.3,0.5-0.4,0.7
		c0,0,0,0,0,0.1v1.4c0,0.1-0.1,0.1-0.1,0.1c-0.1,0-0.2-0.1-0.2-0.1c0,0,0,0,0,0L101.9,116.9z"/>
	<rect x="83.4" y="124.3" class="st0" width="154.7" height="10.2"/>
	<path class="st1" d="M251.8,119.9L251.8,119.9c-0.1,0-0.1-0.1-0.1-0.1v-4.2c0-0.1,0.1-0.2,0.2-0.1h0.8c1.2-0.1,2.3,0.9,2.4,2.1
		c0.1,1.2-0.9,2.3-2.1,2.4c-0.1,0-0.2,0-0.3,0L251.8,119.9z M252.6,119.6c1.1,0.1,2-0.7,2.1-1.8c0.1-1.1-0.7-2-1.8-2.1
		c-0.1,0-0.2,0-0.3,0H252v3.9H252.6z"/>
	<path class="st1" d="M258.2,116.9v2.8c0,0.1-0.1,0.1-0.1,0.1c-0.1,0-0.2-0.1-0.2-0.1v-0.5c-0.3,0.4-0.7,0.6-1.2,0.6
		c-0.9-0.1-1.5-0.8-1.4-1.7c0.1-0.8,0.7-1.4,1.4-1.4c0.5,0,0.9,0.2,1.2,0.6v-0.5c0-0.1,0.1-0.2,0.1-0.2c0,0,0,0,0,0
		C258.1,116.8,258.2,116.8,258.2,116.9L258.2,116.9z M257.9,118.3c0-0.7-0.6-1.1-1.2-1.1s-1.1,0.6-1.1,1.2c0,0.6,0.6,1.1,1.2,1.1
		C257.4,119.6,257.9,119,257.9,118.3z"/>
	<path class="st1" d="M260.6,116.9c0,0.1-0.1,0.2-0.1,0.2h-0.4v2.3c0,0.1,0.1,0.2,0.2,0.2c0.1,0,0.2,0,0.2,0.1c0,0.1,0,0.2-0.1,0.2
		c0,0-0.1,0-0.1,0c-0.3,0-0.5-0.2-0.5-0.5c0,0,0,0,0,0v-2.3h-0.4c-0.1,0-0.1-0.1-0.1-0.2s0-0.1,0.1-0.1h0.4v-1.2
		c0-0.1,0.1-0.2,0.1-0.2c0.1,0,0.2,0.1,0.2,0.2v1.2h0.4C260.6,116.8,260.6,116.8,260.6,116.9z"/>
	<path class="st1" d="M261.6,118.3c0.1-0.8,0.9-1.4,1.7-1.3c0.7,0.1,1.2,0.6,1.3,1.2l0,0l0,0c0,0.1-0.1,0.1-0.1,0.1c0,0,0,0,0,0
		h-2.6c0,0.7,0.5,1.2,1.2,1.2c0.4,0,0.8-0.2,1-0.6c0-0.1,0.1-0.1,0.2-0.1c0.1,0,0.1,0.1,0.1,0.2c-0.3,0.4-0.8,0.7-1.3,0.7
		C262.3,119.8,261.6,119.2,261.6,118.3z M261.9,118.1h2.4c-0.1-0.7-0.7-1.1-1.4-1C262.4,117.2,262,117.6,261.9,118.1z"/>
	<rect x="251.3" y="124.3" class="st0" width="95.5" height="10.2"/>
	<path class="st1" d="M251.6,60.7c0-0.1,0.1-0.2,0.2-0.2h2.3c0.1,0,0.1,0.1,0.1,0.2c0,0.1-0.1,0.2-0.1,0.2c0,0,0,0,0,0H252v1.8h1.9
		c0.1,0,0.2,0.1,0.2,0.2c0,0.1-0.1,0.2-0.2,0.2H252v1.8h2.1c0.1,0,0.2,0.1,0.2,0.1c0,0,0,0,0,0c0,0.1-0.1,0.2-0.1,0.2h-2.3
		c-0.1,0-0.1-0.1-0.1-0.2L251.6,60.7z"/>
	<path class="st1" d="M257.6,63.1c0-0.6-0.4-1-1-1s-1,0.4-1,1v1.7c0,0,0,0,0,0.1c0,0-0.1,0.1-0.1,0.1l0,0c0,0-0.1,0-0.1-0.1l0,0l0,0
		V62c0-0.1,0.1-0.2,0.2-0.2c0.1,0,0.1,0.1,0.1,0.2v0.3c0.3-0.3,0.6-0.5,1-0.4c0.7,0,1.3,0.6,1.3,1.3v1.7c0,0.1-0.1,0.2-0.1,0.2
		c0,0,0,0,0,0c-0.1,0-0.1-0.1-0.1-0.2L257.6,63.1z"/>
	<path class="st1" d="M260.4,62c0,0.1-0.1,0.2-0.2,0.2h-0.4v2.3c0,0.1,0.1,0.2,0.2,0.2c0.1,0,0.2,0.1,0.2,0.2c0,0.1-0.1,0.2-0.1,0.2
		c0,0,0,0-0.1,0c-0.3,0-0.5-0.2-0.5-0.5c0,0,0,0,0,0v-2.3h-0.4c-0.1,0-0.1-0.1-0.1-0.2s0-0.2,0.1-0.2h0.4v-1.2
		c0-0.1,0.1-0.2,0.1-0.2c0.1,0,0.2,0.1,0.2,0.2v1.2h0.4C260.3,61.8,260.4,61.9,260.4,62C260.4,62,260.4,62,260.4,62z"/>
	<path class="st1" d="M261.4,62c0-0.1,0.1-0.2,0.1-0.2c0,0,0,0,0,0c0.1,0,0.1,0.1,0.1,0.2v0.7c0,0,0-0.1,0-0.1
		c0.3-0.5,0.7-0.7,1.3-0.8c0.1,0,0.1,0.1,0.1,0.2s-0.1,0.2-0.1,0.2c-0.4,0-0.7,0.2-0.9,0.5c-0.2,0.2-0.3,0.5-0.4,0.7c0,0,0,0,0,0.1
		v1.4c0,0.1-0.1,0.2-0.1,0.2c-0.1,0-0.2-0.1-0.2-0.1c0,0,0,0,0,0L261.4,62z"/>
	<path class="st1" d="M263.9,62c0-0.1,0.1-0.1,0.1-0.2c0.1,0,0.2,0.1,0.2,0.2v1.7c0.1,0.5,0.7,0.8,1.2,0.7c0.3-0.1,0.6-0.4,0.7-0.7
		V62c0,0,0-0.1,0-0.1l0,0l0,0c0,0,0,0,0.1,0h0.1h0.1c0,0,0,0,0,0.1c0,0,0,0,0,0.1v2.7c0,0.8-0.6,1.4-1.4,1.4c-0.2,0-0.4,0-0.6-0.1
		c-0.1,0-0.1-0.1-0.1-0.2c0-0.1,0.1-0.1,0.2-0.1c0.2,0.1,0.3,0.1,0.5,0.1c0.6,0,1.2-0.5,1.2-1.2c0,0,0,0,0,0v-0.2
		c-0.4,0.5-1.2,0.6-1.8,0.2c-0.3-0.2-0.5-0.6-0.5-1L263.9,62z"/>
	<path class="st1" d="M271.1,60.8h-1.3c-0.1,0-0.2-0.1-0.2-0.2v0c0-0.1,0.1-0.2,0.2-0.2h3c0.1,0,0.1,0.1,0.1,0.2
		c0,0.1-0.1,0.2-0.1,0.2h-1.4v4c0,0.1-0.1,0.2-0.1,0.2c-0.1,0-0.2-0.1-0.2-0.2V60.8z"/>
	<path class="st1" d="M273.1,62c0-0.1,0.1-0.1,0.1-0.2c0.1,0,0.2,0.1,0.2,0.2v1.7c0,0.5,0.4,1,1,1c0.6,0,1-0.4,1-1V62
		c0,0,0-0.1,0-0.1l0,0l0,0c0,0,0,0,0.1,0h0.1h0.1c0,0,0,0,0,0.1c0,0,0,0,0,0.1v2.7c0,0.8-0.7,1.5-1.5,1.5c0,0,0,0,0,0
		c-0.2,0-0.4,0-0.6-0.1c-0.1,0-0.1-0.1-0.1-0.2c0-0.1,0.1-0.1,0.2-0.1c0.2,0.1,0.3,0.1,0.5,0.1c0.6,0,1.2-0.5,1.2-1.2c0,0,0,0,0,0
		v-0.2c-0.4,0.5-1.2,0.6-1.8,0.2c-0.3-0.2-0.5-0.6-0.5-1L273.1,62z"/>
	<path class="st1" d="M277.1,63.5V62c0-0.1,0.1-0.2,0.1-0.2c0.1,0,0.2,0.1,0.2,0.2v0.5c0.3-0.4,0.7-0.6,1.2-0.6
		c0.9,0.1,1.5,0.8,1.4,1.7c-0.1,0.8-0.7,1.4-1.4,1.4c-0.5,0-0.9-0.2-1.2-0.6v1.8c0,0.1-0.1,0.2-0.2,0.2c-0.1,0-0.1-0.1-0.1-0.2V63.5
		z M277.4,63.4c-0.1,0.7,0.4,1.2,1.1,1.3c0.7,0.1,1.2-0.4,1.3-1.1c0-0.1,0-0.1,0-0.2c0-0.7-0.5-1.2-1.2-1.2c0,0,0,0,0,0
		C278,62.2,277.5,62.7,277.4,63.4L277.4,63.4z"/>
	<path class="st1" d="M281.1,63.4c0.1-0.8,0.9-1.4,1.7-1.3c0.7,0.1,1.2,0.6,1.3,1.2l0,0l0,0c0,0.1-0.1,0.1-0.1,0.1c0,0,0,0,0,0h-2.6
		c0,0.7,0.5,1.2,1.2,1.2c0.4,0,0.8-0.2,1-0.6c0.1-0.1,0.2-0.1,0.2,0c0.1,0,0.1,0.1,0,0.2c-0.3,0.4-0.8,0.7-1.3,0.7
		C281.7,65,281,64.3,281.1,63.4z M281.4,63.2h2.4c-0.1-0.7-0.7-1.1-1.4-1C281.9,62.3,281.5,62.7,281.4,63.2z"/>
	<rect x="251.3" y="69.4" class="st0" width="95.5" height="10.2"/>
	<rect x="336.6" y="69.4" class="st5" width="10.2" height="10.2"/>
	<polygon class="st0" points="339.5,74.9 343.9,74.9 341.7,76.7 	"/>
	<polygon class="st0" points="343.9,74.2 339.5,74.2 341.7,72.4 	"/>
	<path class="st1" d="M257.1,76c0.1-0.1,0.1-0.1,0.2,0c0,0,0,0,0,0c0.4,0.3,0.8,0.5,1.3,0.6c0.4,0,0.7-0.1,1-0.3
		c0.3-0.1,0.4-0.4,0.5-0.7c0-0.2-0.1-0.5-0.3-0.6c-0.3-0.2-0.6-0.3-1-0.4l0,0c-0.4,0-0.7-0.2-1-0.4c-0.2-0.2-0.4-0.5-0.3-0.8
		c0.1-0.3,0.3-0.6,0.6-0.8c0.3-0.2,0.7-0.3,1.1-0.3c0.5,0,0.9,0.2,1.3,0.5c0.1,0,0.1,0.1,0,0.2c-0.1,0-0.1,0-0.2,0
		c-0.6-0.5-1.4-0.6-2.1-0.2c-0.2,0.1-0.4,0.3-0.5,0.6c0,0.2,0,0.4,0.2,0.5c0.3,0.2,0.6,0.3,0.9,0.3l0,0c0.4,0.1,0.7,0.2,1,0.4
		c0.3,0.2,0.4,0.5,0.3,0.8c-0.1,0.4-0.3,0.7-0.7,0.9c-0.4,0.2-0.8,0.3-1.2,0.3c-0.6,0-1.1-0.3-1.5-0.6C257,76.1,257,76,257.1,76
		C257.1,76,257.1,76,257.1,76z"/>
	<path class="st1" d="M261.3,75.3c0.2-0.9,0.9-1.5,1.8-1.5c0.3,0,0.7,0.1,0.9,0.4c0.2,0.2,0.4,0.6,0.4,0.9c0,0.1,0,0.1,0,0.2
		s0,0,0,0c0,0.1-0.1,0.1-0.1,0.1h-2.6c0,0.1,0,0.1,0,0.2c0,0.6,0.4,1,1,1c0.4,0,0.9-0.2,1.1-0.6c0.1-0.1,0.2-0.1,0.2,0
		c0.1,0.1,0.1,0.1,0,0.2c0,0,0,0,0,0c-0.3,0.4-0.8,0.7-1.4,0.7l0,0c-0.3,0-0.7-0.1-0.9-0.4c-0.2-0.3-0.4-0.6-0.4-0.9
		C261.3,75.4,261.3,75.4,261.3,75.3z M261.7,75h2.4c0-0.6-0.4-1-1-1C262.5,74.1,261.9,74.4,261.7,75L261.7,75z"/>
	<path class="st1" d="M266.5,72.6l-0.7,4.2c0,0.1-0.1,0.1-0.2,0.1l0,0c-0.1,0-0.1-0.1-0.1-0.2l0.7-4.2c0-0.1,0.1-0.1,0.2-0.1
		c0,0,0,0,0,0C266.5,72.4,266.5,72.5,266.5,72.6z"/>
	<path class="st1" d="M267.1,75.3c0.2-0.9,0.9-1.5,1.8-1.5c0.3,0,0.7,0.1,0.9,0.4c0.2,0.2,0.4,0.6,0.4,0.9c0,0.1,0,0.1,0,0.2l0,0
		c0,0.1-0.1,0.1-0.1,0.1h-2.6c0,0.1,0,0.1,0,0.2c0,0.6,0.4,1,1,1c0.4,0,0.9-0.2,1.1-0.6c0.1-0.1,0.2-0.1,0.2,0
		c0.1,0.1,0.1,0.1,0,0.2c0,0,0,0,0,0c-0.3,0.4-0.8,0.7-1.4,0.7l0,0c-0.3,0-0.7-0.1-0.9-0.4c-0.2-0.3-0.4-0.6-0.4-0.9
		C267.1,75.4,267.1,75.3,267.1,75.3z M267.5,75h2.4c0-0.6-0.4-1-1-1C268.2,74.1,267.7,74.4,267.5,75L267.5,75z"/>
	<path class="st1" d="M270.9,75.3c0.2-0.9,0.9-1.5,1.8-1.5c0.4,0,0.7,0.1,1,0.3c0.1,0.1,0.1,0.2,0,0.2c-0.1,0.1-0.2,0.1-0.2,0
		c-0.2-0.2-0.5-0.3-0.8-0.3c-0.8,0-1.4,0.6-1.5,1.3c0,0.1,0,0.1,0,0.2c0,0.6,0.4,1,1,1c0,0,0,0,0.1,0c0.3,0,0.6-0.1,0.9-0.3
		c0.1-0.1,0.1-0.1,0.2,0c0.1,0.1,0.1,0.2,0,0.2c-0.3,0.2-0.6,0.3-1,0.3c-0.4,0-0.7-0.1-1-0.4c-0.3-0.3-0.4-0.6-0.4-1
		C271,75.4,270.9,75.3,270.9,75.3z"/>
	<path class="st1" d="M276.5,73.9c0,0.1-0.1,0.2-0.1,0.2h-0.9l-0.4,2.3l0,0c0,0.1,0.1,0.2,0.1,0.2c0,0,0,0,0,0
		c0.1,0,0.2,0.1,0.2,0.2c0,0.1-0.1,0.2-0.2,0.2l0,0c-0.3,0-0.5-0.2-0.5-0.5c0,0,0,0,0,0v-0.1l0.4-2.2h-0.4c-0.1,0-0.2-0.1-0.2-0.2
		c0-0.1,0.1-0.2,0.2-0.2l0,0h0.5l0.2-1.2c0-0.1,0.1-0.1,0.2-0.1c0.1,0,0.1,0.1,0.1,0.2l-0.2,1.2h0.8
		C276.5,73.7,276.5,73.8,276.5,73.9C276.5,73.9,276.5,73.9,276.5,73.9z"/>
	<rect x="303.3" y="243.8" class="st2" width="42.6" height="14.1"/>
	<path class="st4" d="M314.3,250.5c0-1.3,1.1-2.3,2.3-2.3c0.5,0,1.1,0.2,1.5,0.5c0.2,0.1,0.2,0.4,0.1,0.5c-0.1,0.2-0.3,0.2-0.5,0.1
		c-0.3-0.2-0.6-0.4-1-0.4c-0.4,0-0.8,0.2-1.1,0.5c-0.3,0.3-0.5,0.7-0.5,1.1c0,0.4,0.2,0.8,0.5,1.1c0.3,0.3,0.7,0.5,1.1,0.5
		c0.4,0,0.7-0.1,1-0.4c0.2-0.1,0.4-0.1,0.5,0.1c0.1,0.2,0.1,0.4-0.1,0.5c-0.4,0.3-0.9,0.5-1.5,0.5
		C315.4,252.9,314.3,251.8,314.3,250.5z"/>
	<path class="st4" d="M321.3,250c0,0.2-0.2,0.3-0.3,0.3c-0.1,0-0.3,0-0.4,0.1c-0.1,0.1-0.2,0.2-0.3,0.3c-0.1,0.2-0.2,0.3-0.3,0.5
		v1.2c0,0.2-0.2,0.3-0.4,0.3c-0.1,0-0.3-0.1-0.3-0.3V250c0-0.2,0.2-0.3,0.4-0.3c0.1,0,0.3,0.1,0.3,0.3l0,0c0,0,0.1-0.1,0.1-0.1
		c0.2-0.2,0.5-0.2,0.8-0.3C321.2,249.6,321.3,249.8,321.3,250C321.3,250,321.3,250,321.3,250z"/>
	<path class="st4" d="M321.6,251.3c0-0.9,0.7-1.6,1.6-1.6c0.8,0,1.5,0.6,1.5,1.5v0.1c0,0.2-0.2,0.3-0.3,0.3h-2
		c0,0.2,0.1,0.3,0.2,0.4c0.2,0.2,0.4,0.3,0.6,0.3c0.2,0,0.5,0,0.7-0.2c0.1-0.1,0.3-0.1,0.5,0c0.1,0.1,0.1,0.3,0,0.4
		c-0.7,0.6-1.7,0.6-2.3-0.1C321.8,252,321.7,251.7,321.6,251.3L321.6,251.3z M322.3,250.9h1.8c-0.2-0.4-0.5-0.7-1-0.7
		C322.8,250.3,322.4,250.5,322.3,250.9z"/>
	<path class="st4" d="M328.4,251.3v1.3c0,0.2-0.1,0.3-0.3,0.3c-0.2,0-0.3-0.1-0.3-0.3c-0.2,0.2-0.5,0.3-0.9,0.3
		c-0.4,0-0.8-0.2-1.1-0.5c-0.3-0.3-0.4-0.7-0.4-1.1c0-0.4,0.2-0.8,0.4-1.1c0.3-0.3,0.7-0.5,1.1-0.5c0.3,0,0.6,0.1,0.9,0.3
		c0-0.2,0.2-0.3,0.3-0.3c0.2,0,0.3,0.2,0.3,0.3V251.3z M327.8,251.3c0-0.2-0.1-0.5-0.3-0.7c-0.2-0.2-0.4-0.3-0.6-0.3
		c-0.2,0-0.4,0.1-0.6,0.3c-0.2,0.2-0.2,0.4-0.2,0.7c0,0.2,0.1,0.5,0.2,0.7c0.2,0.2,0.4,0.3,0.6,0.3c0.2,0,0.4-0.1,0.6-0.3
		C327.7,251.7,327.8,251.5,327.8,251.3L327.8,251.3z"/>
	<path class="st4" d="M331.1,250c0,0.2-0.2,0.4-0.4,0.4h-0.2v1.8c0.2,0,0.4,0.2,0.4,0.3c0,0,0,0,0,0c0,0.2-0.1,0.3-0.3,0.4
		c0,0,0,0,0,0c-0.4,0-0.7-0.3-0.7-0.7v-1.8h-0.2c-0.2,0-0.4-0.2-0.4-0.4c0-0.2,0.2-0.4,0.3-0.4c0,0,0,0,0,0h0.2v-0.9
		c0-0.2,0.2-0.4,0.3-0.4c0,0,0,0,0,0c0.2,0,0.3,0.1,0.4,0.3c0,0,0,0,0,0v0.9h0.2C331,249.6,331.1,249.8,331.1,250z"/>
	<path class="st4" d="M331.8,251.3c0-0.9,0.7-1.6,1.5-1.6c0,0,0,0,0,0c0.8,0,1.5,0.7,1.5,1.5l0,0c0,0,0,0,0,0.1
		c0,0.2-0.2,0.3-0.3,0.3h-2c0,0.2,0.1,0.3,0.2,0.4c0.2,0.2,0.4,0.3,0.6,0.3c0.2,0,0.4,0,0.6-0.2c0.1-0.1,0.3-0.1,0.5,0
		c0.1,0.1,0.1,0.3,0,0.4c-0.3,0.3-0.7,0.4-1.1,0.4C332.5,252.8,331.8,252.1,331.8,251.3z M332.5,250.9h1.8c-0.2-0.4-0.5-0.7-0.9-0.7
		C332.9,250.3,332.6,250.5,332.5,250.9z"/>
	<rect x="251.2" y="243.8" class="st0" width="42.6" height="14.1"/>
	<path class="st1" d="M262.2,250.5c0-1.3,1.1-2.3,2.3-2.3c0.5,0,1.1,0.2,1.5,0.5c0.2,0.1,0.2,0.4,0.1,0.5c-0.1,0.2-0.3,0.2-0.5,0.1
		c-0.3-0.2-0.6-0.4-1-0.4c-0.4,0-0.8,0.2-1.1,0.5c-0.3,0.3-0.5,0.7-0.5,1.1c0,0.4,0.2,0.8,0.5,1.1c0.3,0.3,0.7,0.5,1.1,0.5
		c0.4,0,0.7-0.1,1-0.4c0.2-0.1,0.4-0.1,0.5,0.1c0.1,0.2,0.1,0.4-0.1,0.5c-1,0.8-2.5,0.6-3.3-0.4C262.4,251.5,262.2,251,262.2,250.5z
		"/>
	<path class="st1" d="M270,251.3v1.3c0,0.2-0.2,0.3-0.3,0.3c-0.2,0-0.3-0.1-0.3-0.3c-0.2,0.2-0.5,0.3-0.9,0.3
		c-0.4,0-0.8-0.2-1.1-0.5c-0.3-0.3-0.4-0.7-0.4-1.1c0-0.4,0.1-0.8,0.4-1.1c0.5-0.6,1.3-0.6,1.9-0.2c0-0.2,0.2-0.3,0.3-0.3
		c0.2,0,0.3,0.2,0.3,0.3V251.3z M269.3,251.3c0-0.2-0.1-0.5-0.3-0.7c-0.3-0.3-0.8-0.3-1.1,0c0,0,0,0,0,0c-0.2,0.2-0.2,0.4-0.2,0.7
		c0,0.2,0.1,0.5,0.2,0.7c0.3,0.3,0.8,0.3,1.2,0c0,0,0,0,0,0C269.2,251.7,269.3,251.5,269.3,251.3L269.3,251.3z"/>
	<path class="st1" d="M273.8,251v1.5c0,0.2-0.1,0.3-0.3,0.3c0,0,0,0,0,0c-0.2,0-0.3-0.2-0.3-0.3V251c0-0.4-0.3-0.7-0.7-0.6
		c-0.4,0-0.6,0.3-0.6,0.6c0,0,0,0,0,0v1.5c0,0,0,0,0,0.1c0,0.2-0.2,0.3-0.3,0.3c-0.2,0-0.3-0.2-0.3-0.3V250c0-0.2,0.2-0.3,0.3-0.3
		c0.1,0,0.3,0.1,0.3,0.2c0.2-0.1,0.4-0.2,0.7-0.2C273.2,249.7,273.8,250.3,273.8,251C273.8,251,273.8,251,273.8,251z"/>
	<path class="st1" d="M274.8,251.3c0-0.9,0.7-1.6,1.6-1.6c0.4,0,0.7,0.1,1,0.4c0.2,0.1,0.2,0.3,0.1,0.5c-0.1,0.2-0.3,0.2-0.5,0.1
		c0,0-0.1,0-0.1-0.1c-0.2-0.1-0.4-0.2-0.6-0.2c-0.5-0.1-1,0.3-1,0.8c-0.1,0.5,0.3,1,0.8,1c0.1,0,0.1,0,0.2,0c0.2,0,0.4-0.1,0.6-0.2
		c0.2-0.1,0.4-0.1,0.5,0.1c0.1,0.1,0.1,0.4-0.1,0.5c-0.3,0.2-0.6,0.3-1,0.3C275.6,252.9,274.9,252.1,274.8,251.3z"/>
	<path class="st1" d="M278.4,251.3c0-0.9,0.7-1.6,1.6-1.6c0.8,0,1.5,0.7,1.5,1.5l0,0c0,0,0,0,0,0.1c0,0.2-0.2,0.3-0.3,0.3h-2
		c0,0.2,0.1,0.3,0.2,0.4c0.2,0.2,0.4,0.3,0.6,0.3c0.2,0,0.5,0,0.7-0.2c0.1-0.1,0.3-0.1,0.5,0c0.1,0.1,0.1,0.3,0,0.4c0,0,0,0,0,0
		c-0.7,0.6-1.7,0.6-2.3-0.1C278.6,252,278.4,251.6,278.4,251.3L278.4,251.3z M279.1,250.9h1.8c-0.2-0.4-0.6-0.7-1-0.7
		C279.5,250.3,279.2,250.6,279.1,250.9z"/>
	<path class="st1" d="M282.9,248.4c0.2,0,0.4,0.2,0.4,0.4v3.8c0,0.2-0.2,0.3-0.4,0.3c-0.2,0-0.3-0.1-0.3-0.3v-3.8
		C282.6,248.5,282.7,248.4,282.9,248.4L282.9,248.4z"/>
</g>
<g id="freepik--Floor--inject-20">
	<polygon class="st7" points="426,416.4 373.5,416.7 321,416.8 216,416.9 111,416.8 58.5,416.7 6,416.4 58.5,416.2 111,416.1 
		216,415.9 321,416.1 373.5,416.2 	"/>
</g>
<g id="freepik--Character--inject-20">
	<path class="st2" d="M49.6,415.8l171.5,0.7c41.7-32.7,46-81.2,16.3-110.6c-18-17.8-40.9-14.2-62.6-17h-0.1c-7.6-1-15-2.8-22.1-6.5
		c-22.4-11.8-35-39.7-53.9-63.2c-2.4-2.9-4.8-5.8-7.4-8.6c-15.5-16.6-46.4-17.1-62.5,6.2C-12.2,276,6.6,364,49.6,415.8z"/>
	<path class="st8" d="M45.8,280.5c4.5,70.4,85.8,96.6,136.5,75.6c44.1-18.3,29.7-60.2-7.6-67.2h-0.1c-7.6-1-15-2.8-22.1-6.5
		c-22.4-11.8-35-39.7-53.9-63.2C70.6,204.6,42.5,228.9,45.8,280.5z"/>
	<path class="st9" d="M199.9,426.9c-2.6-1-62.4-48.8-63.6-52c-0.4-1.2,6-10.4,14.1-21.1c1.8-2.3,3.6-4.7,5.4-7.1
		c12.1-15.7,25.3-32.2,25.3-32.2l40.1,31.8l-26.4,31.3l-5.8,6.9c0,0,14.7,28.5,15.6,32.2S202.6,427.8,199.9,426.9z"/>
	<path class="st7" d="M199.9,426.9c-2.6-1-62.4-48.7-63.6-52c-0.4-1,3.9-7.2,9.8-15.3c8.7,10.4,39,41.3,47.3,45.5
		c5.3,2.6,4.2-2.5,2.3-7.7c4,8.1,8.5,17.3,9,19.3C205.5,420.4,202.6,427.8,199.9,426.9z"/>
	<path class="st7" d="M261.8,285c-2.7,20.8-54.1,80.9-60,87.8l-1.4,1.6L158,341.8l0.5-0.6l37.4-49c0,0-61.9,36.1-92.8,19.7
		c-13.9-7.4-24.2-20.4-24.2-20.4l40.4-21.5c0,0,11.2,3.6,18.3,2.6c24.6-3.6,79.8-24.5,92.8-24C247.3,249.2,264.3,265.9,261.8,285z"
		/>
	<path class="st10" d="M201.4,305.2c-3.7-2-7.7-3.6-11.8-4.7l0.2-0.3c7.2,2.2,14.8,4.9,19.4,11.2c2.1,2.9,3.4,6.8,2.6,10.4
		c-0.8,3.5-4.1,5.7-7.6,5.2c-9.5-1.1-11.2-12.9-18.6-17.2c-0.7-0.4-1.5-0.8-2.3-1l0.2-0.3c1.5,0.5,3,1.2,4.2,2.3
		c3.6,2.9,5.5,7.1,8.3,10.7s7.2,6.4,11.7,4.8c5-1.8,4.6-8.3,2.7-12.3S205.1,307.3,201.4,305.2z M192.9,359c-2,2.3-2.6,5.6-1.5,8.5
		l0.4,0.3c-0.2-0.4-0.3-0.8-0.4-1.3c-1.3-5.1,2-9,6.8-10.1c4.5-1.1,9.1,0.1,13.7-0.3c1.6-0.1,3.2-0.5,4.7-1.2l0.4-0.5
		c-4.3,2.4-9.4,1.3-14.1,1.3C199.5,355.7,195.4,356.3,192.9,359z M172.9,322.3c2.1,6.9,8.8,12.2,15.3,14.4c4,1.3,8.2,1.7,12.3,1
		c5-0.8,10.4-2.8,15.4-0.9s6.8,8,5.3,12.7l0.5-0.6c0.5-2,0.5-4.1-0.1-6.1c-0.7-2.9-2.8-5.3-5.6-6.4c-4.5-1.7-9.4-0.2-13.9,0.6
		c-4.7,1-9.6,0.7-14.2-0.8c-4.4-1.5-8.3-4.3-11.3-7.9c-1.5-1.9-2.7-4.1-3.4-6.4L172.9,322.3z M166.5,348.4l0.2,0.2
		c0.3-1,0.8-2.1,1.2-3.1c1.6-3.2,4.8-5.6,8.5-4.3c4.1,1.5,6.6,6.4,6.8,10.5c0,2.9-0.4,5.7-1.3,8.5l0.3,0.2c0.7-2.5,1.2-5,1.3-7.6
		c0.2-3.7-1.2-7.3-3.9-9.9c-2.3-2.2-5.5-3.1-8.4-1.6c-2.4,1.3-3.7,3.9-4.6,6.4C166.7,347.9,166.6,348.1,166.5,348.4L166.5,348.4z
		 M243.7,256c0.8-0.8,1.8-1.4,2.9-1.9l-0.3-0.2c-0.2,0.1-0.4,0.2-0.6,0.3c-3.4,1.8-5.3,5.6-4.8,9.5c0.6,4.6,3.4,8.7,3,13.5
		c0,2.3-1.3,4.5-3.3,5.6c-2.3,1-5,0.6-7-0.8c-4.3-3-5.2-9.3-5.3-14.2c-0.1-2.8,0.3-5.7,0.9-8.4c0.6-2.4,1.5-4.6,1.9-7
		c0.2-1.3,0.2-2.5,0-3.8h-0.3c0.5,2.7-0.4,5.4-1.1,7.9c-1.6,4.8-2.1,9.9-1.5,15c0.5,4,1.8,8.7,5.5,11c2.9,1.8,6.9,1.8,9-1.1
		s1.5-7.1,0.5-10.4C241.7,266,239.3,260.2,243.7,256z M242.2,321.6c0.2-0.2,0.3-0.4,0.5-0.6c0.9-4.9,1-10.1,5-13.4
		c1.5-1.1,3.2-1.8,5-2c0.1-0.1,0.2-0.3,0.2-0.4c-1.5,0.2-3,0.6-4.3,1.4C243.2,309.6,243.4,316,242.2,321.6L242.2,321.6z M222.6,325
		c2.4,4.5,8.3,7.1,13.1,5.6l0.4-0.5c-2.1,0.7-4.3,0.8-6.4,0.2c-4.1-1.1-7.2-4.5-8-8.6c-0.8-4.6,0.3-9.3,3.2-13.1
		c2.9-3.9,7.2-6.6,11.6-8.4c7.7-3.2,17-3.6,23.6-9l0.3-0.8c-1.4,1.2-2.9,2.3-4.5,3.1c-4.5,2.3-9.6,3.2-14.5,4.6
		c-4.3,1.2-8.4,3.1-12,5.6C223,308.4,218.6,317.3,222.6,325z M187.1,259.4l-0.3,0.1c1,1.1,1.9,2.2,2.6,3.5c4.9,8.4,4.3,18.8,9,27.4
		c1.9,3.3,4.6,6.4,8.2,7.8c3.2,1.3,6.7,1.2,9.8-0.1c3.1-1.5,5.1-4.7,5-8.2c0-3.9-2-7.6-4.5-10.4c-3.2-3.5-7.3-5.9-10.9-9
		c-3.9-3.1-6.6-7.5-7.7-12.4c-0.1-0.6-0.2-1.3-0.3-1.9l-0.3,0.1c0.3,2.5,1,5,2.2,7.3c2,4,5.3,6.9,8.8,9.5c3.8,2.9,7.8,5.7,10.2,9.9
		c2.3,4,3.2,9.3-0.2,13c-2.8,2.9-7.3,3.4-11,2.3c-4.4-1.2-7.5-4.8-9.5-8.7c-4.4-8.6-3.8-19-8.9-27.2
		C188.8,261.3,188,260.3,187.1,259.4L187.1,259.4z M163.9,274.9c0.4,4.3,1.7,8.4,3.8,12.2c2.2,3.7,5.4,6.7,9.3,8.7
		c2.2,1.1,4.4,2.1,6.7,2.8l0.4-0.2c-3-1-6-2.3-8.7-3.9c-4.1-2.6-7.3-6.5-9.1-11c-2.3-5.5-2.8-11.6-1.6-17.4l-0.3,0.1
		C163.8,269,163.6,272,163.9,274.9L163.9,274.9z M141.1,314.1l0.3-0.1c1.3-4,3.7-7.6,8.1-8.5c3.7-0.7,7.6,0.4,10.3,3.1l0.3-0.1
		c-1.2-1.3-2.7-2.2-4.4-2.8c-3.4-1.2-7.1-0.8-10.1,1.2C143.4,308.8,141.8,311.3,141.1,314.1L141.1,314.1z M112.1,315.2
		c0.3,0.1,0.5,0.1,0.8,0.2c0.3,0,0.6,0,0.9,0c0.9,0,1.8,0.2,2.6,0.6c0.3,0,0.5,0.1,0.8,0.1C115.7,315.1,113.9,314.8,112.1,315.2
		L112.1,315.2z M142.6,282.7c-0.2,3.5,0,7.1,2.3,10c1.9,2.5,5.1,3,7.3,0.5c2.8-3.2,3.1-8.6,2.9-12.6c-0.3-3.8-1-7.5-2.2-11.2
		l-0.3,0.1c0.3,1.1,0.6,2.1,0.9,3.2c1.3,5.3,2,10.8,0.5,16.1c-0.7,2.4-1.9,5.4-4.8,5.8c-2.1,0.3-3.7-1.3-4.7-3
		c-2.3-3.9-1.7-8.4-1.3-12.7c0.2-2.5,0.6-5,0.7-7.4c-0.1,0-0.2,0-0.3,0.1C143.4,275.2,142.8,278.9,142.6,282.7L142.6,282.7z
		 M117.9,276.5c0.4,4.8-0.2,9.6,0,14.5c0.2,4,1.3,8.1,4.8,10.6c2.9,2.2,7,1.7,9.3-1c2.9-3.2,2.9-7.7,2.1-11.7
		c-1.2-5.4-3-10.7-4.6-16c-0.1-0.2-0.1-0.4-0.2-0.6l-0.4-0.1c0.1,0.3,0.1,0.5,0.2,0.8c0.8,2.7,1.6,5.4,2.4,8.1c1.5,5,4,11.1,2,16.3
		c-0.8,2.3-2.6,4.2-4.9,5c-2.4,0.6-5-0.2-6.7-2c-4-3.8-3.8-9.6-3.5-14.6c0.3-4.5,0.1-8.9-0.7-13.3c-0.1-0.4-0.2-0.9-0.3-1.4
		l-0.3,0.1C117.4,272.9,117.7,274.7,117.9,276.5L117.9,276.5z M82.9,289.4c4.7,4.8,7.7,11.4,14.9,12.8c2.8,0.5,6.1,0.2,8-2.2
		c2.7-3.3,1.4-8-0.1-11.5c-1.3-3.1-3.1-5.9-4.7-8.8l-0.3,0.1c0.4,0.8,0.8,1.5,1.2,2.2c2.5,4.3,6.1,9.9,4.8,15.1
		c-1.1,4.5-5.8,5.5-9.7,4.4c-6.6-1.7-9.6-7.9-13.9-12.5L82.9,289.4z"/>
	<path class="st6" d="M209.3,274c-1.4,1.6-2.7,3.2-3.9,4.9c-1.3,1.7-2.7,3.5-4,5.2l0,0c0.2-0.5,0.5-1,0.7-1.5
		c0.8-1.7,1.5-3.5,2.5-5.2c0,0,0-0.1,0-0.1c0,0-0.1,0-0.1,0c0,0,0,0,0,0c-1,1.6-2.2,3.2-3.1,4.9c-0.4,0.8-0.8,1.6-1.2,2.5
		c-0.2,0.5-0.4,0.9-0.6,1.4c-0.1,0.2-0.2,0.4-0.3,0.7c-0.6,0.8-1.2,1.6-1.7,2.4c-1.3,1.8-2.4,3.8-3.6,5.6c-0.1,0.1,0.1,0.2,0.1,0.1
		c1.3-1.7,2.7-3.3,4.1-5s2.6-3.5,3.9-5.3s2.4-3.5,3.6-5.2c1.3-1.7,2.6-3.5,3.7-5.4C209.4,274,209.4,273.9,209.3,274
		C209.3,273.9,209.3,274,209.3,274L209.3,274z"/>
	<path class="st6" d="M166.5,334.4c2.3,2.2,4.8,4.2,7.3,6.2s4.9,4,7.4,6c5,4,9.9,8,15,11.9c2.8,2.1,5.6,4.3,8.4,6.3
		c0.1,0.1,0.3-0.1,0.2-0.2c-4.7-4.3-9.8-8.2-14.7-12.2s-10-8-15-11.9c-2.8-2.1-5.5-4.3-8.4-6.3C166.5,334.1,166.4,334.3,166.5,334.4
		z"/>
	<path class="st7" d="M132.3,226c0.1,1.1-0.5,2.1-1.4,2.6c-0.7,0.5-1.5,1-2.3,1.4c0.1-2.9-0.1-5.9-0.3-8.8c-0.2-3.4-0.6-6.7-1.1-10
		 M127.1,211.2c0.3,3.4,0.4,6.8,0.6,10.1c0.1,3,0.1,6,0.3,8.9c-0.8,0.4-1.6,0.7-2.5,1c0-1,0-2.1,0-3.1c0-3.1-0.3-6.2-0.4-9.3
		c0-0.1-0.1-0.1-0.1,0c0.1,3,0,6.1,0,9.1c0,1.2,0,2.3-0.1,3.5c-0.6,0.2-1.2,0.4-1.7,0.6l-1.1,0.3c0-2-0.2-4.1-0.2-6.1
		c-0.1-3.2-0.4-6.4-0.6-9.7c0,0,0-0.1-0.1-0.1s-0.1,0-0.1,0.1c0.1,3.2,0.1,6.4,0.2,9.7c0.1,2.1,0,4.2,0.1,6.3
		c-5.1,1.2-10.4,1.5-15.7,0.8c-3-0.4-6-0.9-9-1.7c-0.7-0.2-2.5-0.7-4.3-1.3c0-1-0.1-2-0.1-2.9c0-2.1-0.2-4.3-0.1-6.5
		c0-0.1-0.1-0.1-0.1,0c-0.1,2.2-0.3,4.3-0.4,6.5c0,0.9,0,1.8-0.1,2.7c-0.6-0.2-1.3-0.4-1.8-0.6c0.2-4.1,0-8.2-0.1-12.2
		c0-0.1-0.1-0.1-0.1,0c-0.2,4-0.5,8-0.5,12c-0.4-0.1-0.8-0.3-1.2-0.5c-0.9-0.7-0.3-16.8-0.2-20.6c0.1-7,0.9-17.3,2.9-24
		c1.6-5.9,5.7-10.8,11.3-13.3c2.6-1.2,5.7-1,8.5-0.9c2.9,0.1,5.8,1,8.3,2.6c2.5,1.4,4.7,3.4,6.3,5.8c1.6,2.7,2.8,5.5,3.6,8.5
		c2.1,7.1,2.9,26.6,3.4,33.4c0.1,1.9,0.4,3.7,0.4,5.6L127.1,211.2z"/>
	<path class="st9" d="M97,226.7c10.3,19.5,26.7,41.7,32,44.6c6.7,3.7,43.2,2.1,45,1.9c4.5-0.7,6-32.8,1.2-32.2
		c-7.3,0.9-33.3,6.3-35.3,5.1s-16.5-12-31.7-24.4C97.8,213,90.6,214.6,97,226.7z"/>
	<path class="st9" d="M169.2,271.7c4.3,1.4,8.7,2.5,13.2,3.3c3.5,0.4,13.8,1.4,14.6-2.5c0.6-2.6-5.4-3.9-9.5-4.9
		c-2.2-0.5-5.1-2.3-4.7-3.7c0.7-2.5,6.4-1,10.2,0.4c7.4,2.8,17.5,8.4,21.1,4.3c1.3-1.5-0.9-3.6-3.9-5.5c4.7,2,9.7,3.5,11.3,1.8
		c0.9-1,0.8-2,0-3.1c1.2,0.3,2.5-0.1,3.2-1.1c1.1-1.7,0.1-3.7-1.8-5.7c0.5-0.1,0.9-0.5,1.1-1c2.2-5-14.7-15.5-20-15.9
		c-15.6-1.1-32.4,3.7-32.4,3.7C166.4,247.5,169.2,271.7,169.2,271.7z"/>
	<path class="st7" d="M189.1,254.2c3.7,0,7.3,0.7,10.7,2.2c4.2,1.9,7.3,4.4,10.9,6.9c0.1,0.1,0,0.2-0.1,0.1c-1.8-1.2-9-5.4-10.8-6.4
		C196.5,255.4,192.8,254.4,189.1,254.2C189.1,254.3,189,254.2,189.1,254.2z"/>
	<path class="st7" d="M190.8,247.4c4.2,0.3,8.3,1,12.4,2.1c4.4,1.4,8,4.2,11.7,6.9c2.2,1.6,4.3,3.3,6.4,5c0.1,0.1,0,0.2-0.1,0.1
		c-3.7-2.8-7.4-5.5-11.3-8.1c-3.6-2.4-7.5-4.1-11.8-5C195.7,248,193.3,247.7,190.8,247.4L190.8,247.4z"/>
	<path class="st7" d="M194.1,241.1c4,0.2,7.4,0.3,11.2,1.8c5,2,10.1,5.9,11.9,7.3c2,1.5,3.9,3.1,5.8,4.7c0.1,0.1,0,0.2-0.1,0.1
		c-4.3-3.5-8.9-6.8-13.6-9.7c-2.2-1.4-4.7-2.5-7.3-3.2C199.4,241.6,196.8,241.2,194.1,241.1L194.1,241.1z"/>
	<path class="st10" d="M111.8,255.1l11.5-25.2c-5.6-4.4-11.5-8.5-17.6-12.1c-10.3-6.3-15.3-2.7-9,12.3
		C100.6,239.1,105.6,247.5,111.8,255.1z"/>
	<path class="st7" d="M119.6,228.2c-1.1,1.8-1.9,3.7-2.8,5.6s-1.8,3.5-2.6,5.4c-1.7,3.7-3.3,7.5-4.8,11.3c0,0.1,0.1,0.1,0.1,0
		c1.8-3.6,3.6-7.3,5.3-11c0.9-1.8,1.6-3.7,2.4-5.5s1.8-3.8,2.5-5.7C119.8,228.2,119.7,228.2,119.6,228.2z"/>
	<path class="st8" d="M96.8,230c3.8,9,8.8,17.5,15,25.1l9.6-21.1l-25-19C93.3,216.1,93,221,96.8,230z"/>
	<path class="st10" d="M58.3,299.9c2.3,0.8,70.4-16.8,70.4-16.8l-7.3-23.6c0,0,4.1-7.4,2.5-14.7c-2.2-9.8-19.6-26.2-21-27.1
		c-5.6-3.9-10.8-4-15.6-1.6C67.5,225.8,58.3,299.9,58.3,299.9z"/>
	<path class="st7" d="M99.8,257.2c2.9-0.5,5.9-0.7,8.8-0.7c1.5,0,2.9,0.1,4.4,0.2c0.7,0.1,1.4,0.1,2.2,0.1c0.8,0.1,1.5,0,2.3-0.1
		c0.1,0,0.1,0.1,0,0.1c-0.7,0.2-1.4,0.4-2.1,0.5c-0.7,0.1-1.4,0.1-2.1,0.1c-1.5,0-3-0.1-4.5-0.1c-3,0-6,0-9,0.2
		C99.7,257.4,99.7,257.2,99.8,257.2z"/>
	<path class="st7" d="M93.4,261.5c2.3-0.8,4.6-1.5,7-2.1c1.2-0.3,2.4-0.5,3.6-0.7l1.7-0.2c0.6-0.1,1.3-0.1,1.9-0.1
		c0.1,0,0.1,0.1,0,0.1c-0.6,0.1-1.2,0.3-1.8,0.4l-1.8,0.4c-1.2,0.3-2.4,0.5-3.6,0.8c-2.4,0.5-4.7,1-7.1,1.6
		C93.3,261.7,93.3,261.5,93.4,261.5z"/>
	<path class="st9" d="M79.1,224.4c-9.5,14-29.7,62-19.9,69.4s57.4-9.6,70.3-17.8c3.9-2.4-14.6-26.1-19.5-26.1
		c-4.1,0-22.5,11.2-23.2,10.1c-0.8-1.3,1.8-11.1,4.6-29.5C94.7,209.5,84.5,216.4,79.1,224.4z"/>
	<path class="st9" d="M129.4,239.4c9.8-2.5,12.7-1.7,19.8-8.2c4.7-4.3,9.4-3.1,7.2,3.1c-3.6,10.1-15.6,16-20.3,16.9L129.4,239.4z"/>
	<path class="st9" d="M104.1,252c0,0,10.4-7.5,20.6-11.2c7-2.6,22.9-6.5,40.2,7.6c4.1,3.4,7.6,11-1.1,8c-6.2-2.2-9.4-5.4-13.2-6
		c0,0,3.2,10.3-0.3,14.3c-3.1,3.5-6.4,6.7-9.9,9.7c-0.7-0.5-1.4-1.1-2-1.7c0,0-3.6,3.4-11.2,3.6L104.1,252z"/>
	<path class="st9" d="M131.8,239.4c3.7,1.4,11.4,4.5,16.8,9.2c6,5.3,16.2,17,12.3,21.4c-2.9,3.2-7.1-0.9-7.1-0.9s3.2,5.7-0.1,8.1
		c-2.9,2.1-6.1-1.3-6.1-1.3s1.3,3.8-1.9,5.3c-3.9,1.8-6-6.5-11.6-8C132.8,272.9,131.8,239.4,131.8,239.4z"/>
	<path class="st7" d="M142,254c3.2,1.9,9.4,8,11.8,14.9c0.1,0.2,0,0.3-0.1,0.1C150.4,263.6,146.4,258.6,142,254
		C141.9,254.1,141.9,254,142,254z"/>
	<path class="st7" d="M136.8,260.3c2.6,1.9,8.8,8.5,10.9,15.5c0.1,0.2-0.1,0.3-0.1,0.1C144.6,270.4,141,265.1,136.8,260.3
		C136.8,260.3,136.8,260.3,136.8,260.3z"/>
	<path class="st7" d="M150.5,250.3c3.4,0.6,5.6,1.9,8.6,3.5c1.5,0.8,2.9,1.5,4.5,2.2c1.4,0.6,3.5,1.4,4.7,0.1
		c0.6-0.8,0.7-1.8,0.3-2.7c-0.5-1.3-1.3-2.4-2.2-3.5c0,0,0-0.1,0.1-0.1c0.9,0.9,1.7,2,2.3,3c0.4,0.8,0.6,1.6,0.6,2.5
		c-0.3,1.8-2.4,2.3-3.9,2c-0.9-0.2-1.8-0.5-2.7-0.9c-0.8-0.4-1.6-0.8-2.5-1.2c-1.7-0.9-3.3-1.8-4.9-2.7c-1.6-0.8-3.3-1.5-5-2.2
		C150.4,250.4,150.4,250.3,150.5,250.3z"/>
	<path class="st7" d="M158.6,260.9c-2.5-3.7-5.2-7.2-8.2-10.5c0,0,0-0.1,0.1-0.1c2.8,2.1,7.6,8,8.8,9.9s2.5,4.3,2.8,6.6
		c0.4,3.4-1.8,4.3-2.6,4.5c-1,0.3-2,0.2-2.9-0.1c-1.1-0.5-2.1-1.2-2.9-2.1c0,0,0-0.1,0.1-0.1c1.3,1.2,3.4,2.3,5.2,1.8
		c0.8-0.2,1.5-0.7,2-1.4c0.4-0.9,0.5-1.9,0.2-2.8C160.6,264.6,159.8,262.7,158.6,260.9z"/>
	<path class="st7" d="M86.8,260.1c-1.5,1.1-3,2.1-4.6,3c-1.6,1-3.2,1.8-4.8,2.6c1.4-1.2,2.9-2.3,4.5-3.3
		C83.4,261.5,85,260.7,86.8,260.1z"/>
	<path class="st10" d="M63.3,249.8l27.7-2.1c1.1-7,1.9-14.1,2.2-21.2c0.5-12.1-5-14.7-15.1-1.9C72,232.2,67,240.8,63.3,249.8z"/>
	<path class="st7" d="M90.7,243.7c-2.1-0.1-4.2,0.1-6.2,0.3s-3.9,0.2-5.9,0.3c-4.1,0.3-8.2,0.7-12.2,1.2c-0.1,0-0.1,0.1,0,0.1
		c4-0.2,8.1-0.4,12.1-0.7c2-0.1,4-0.3,6-0.5s4.2-0.3,6.2-0.6C90.7,243.8,90.7,243.7,90.7,243.7z"/>
	<path class="st7" d="M91.8,245c0.2-1,0.3-2,0.4-3c0-0.2,0-0.4,0.1-0.6c0.4-1.2,0.8-2.4,1.1-3.6c0,0,0-0.1-0.1,0
		c-0.3,0.9-0.6,1.8-0.9,2.8c0.2-1.5,0.3-3.1,0.3-4.6 M92.6,235.9c-0.4,2-0.6,4-0.9,6c-0.1,1-0.7,5.8-0.8,5.8s-2.3,0.3-2.4,0.3
		s-0.1,0.2,0,0.2l2.9-0.2c0,0,0.3-2.1,0.4-2.9L92.6,235.9z"/>
	<rect x="118.2" y="273.4" class="st5" width="76.5" height="3.4"/>
	<polygon class="st1" points="194.6,273.4 194.6,276.8 148.8,276.8 151.4,273.4 	"/>
	<polygon class="st1" points="160.1,276.8 234.6,276.8 240.8,226.2 166.3,226.2 	"/>
	<polygon class="st5" points="164,276.8 238.5,276.8 244.7,226.2 170.2,226.2 	"/>
	<path class="st4" d="M199.8,251.5c-0.1,2.5,1.9,4.5,4.3,4.5c0,0,0.1,0,0.1,0c2.5,0,4.6-2,4.6-4.5c0-2.5-1.9-4.5-4.3-4.5
		c0,0-0.1,0-0.1,0C201.9,247,199.9,249,199.8,251.5z"/>
	<path class="st9" d="M92,217.7c0.1,1.3,4.4,10.1,9.9,10.8c1.8,0.2,3.5-9.6,3.5-9.6l0.3-0.7l4.1-9.7l-12.1-11
		C97.7,197.5,92,217.1,92,217.7z"/>
	<path class="st7" d="M109.9,208.5l-4.1,9.7c-5.1-3-8.8-8.1-9.9-14c1-3.4,1.8-6.3,1.9-6.7c0,0,0,0,0-0.1l1.6,1.3L109.9,208.5z"/>
	<path class="st9" d="M125.6,195.1c-1.7,18.4-12.9,19.5-16.9,19.1c-3.6-0.3-15.8-1.9-16.1-20.4s8.8-23.5,17.1-23.2
		S127.3,176.7,125.6,195.1z"/>
	<path class="st7" d="M123.3,192.5c-0.4-0.1-0.8-0.3-1.2-0.5c-0.4-0.1-0.8-0.3-1.1-0.7c-0.1-0.3-0.1-0.6,0.1-0.8
		c0.5-0.3,1.1-0.4,1.6-0.1c0.6,0.2,1.1,0.6,1.4,1.1c0.2,0.3,0,0.8-0.3,0.9C123.6,192.5,123.4,192.6,123.3,192.5z"/>
	<path class="st7" d="M110.5,191.9c0.4,0,0.9,0,1.3-0.1c0.5,0,0.9-0.1,1.3-0.3c0.2-0.2,0.3-0.5,0.1-0.8c-0.4-0.5-0.9-0.7-1.5-0.6
		c-0.6,0-1.2,0.2-1.6,0.6c-0.3,0.3-0.3,0.7,0,1C110.2,191.8,110.4,191.9,110.5,191.9z"/>
	<path class="st7" d="M112.7,195.1c0,0-0.1,0-0.1,0.1c-0.1,1.3-0.5,2.7-1.7,2.9c0,0-0.1,0.1,0,0.1
		C112.3,198.1,112.8,196.3,112.7,195.1z"/>
	<path class="st7" d="M111.8,193.6c-2-0.4-2.7,3.6-0.9,4S113.4,194,111.8,193.6z"/>
	<path class="st7" d="M110.9,193.7c-0.4,0.2-0.8,0.5-1.2,0.5s-0.8-0.5-1-1c0,0-0.1,0-0.1,0c-0.1,0.8,0,1.6,0.8,1.9s1.4-0.4,1.7-1.1
		C111.2,193.9,111.1,193.6,110.9,193.7z"/>
	<path class="st7" d="M120.1,196.1c0,0,0.1,0.1,0.1,0.1c-0.3,1.2-0.4,2.7,0.7,3.3c0,0,0,0.1,0,0.1
		C119.4,199.1,119.6,197.2,120.1,196.1z"/>
	<path class="st7" d="M121.4,195c2,0.2,1.4,4.2-0.4,4S119.7,194.8,121.4,195z"/>
	<path class="st7" d="M122.2,195.4c0.3,0.3,0.5,0.7,0.9,0.8s0.8-0.3,1.2-0.7h0.1c-0.1,0.8-0.5,1.5-1.2,1.6s-1.1-0.7-1.2-1.5
		C121.9,195.4,122.1,195.3,122.2,195.4z"/>
	<path class="st7" d="M110.5,205.5c0.2,0.4,0.4,0.8,0.9,1c0.5,0.1,0.9,0.1,1.4,0 M112.8,206.6c-0.5,0.4-1.1,0.5-1.7,0.3
		c-0.5-0.3-0.7-0.8-0.7-1.3c0-0.1,0.1-0.1,0.2,0L112.8,206.6z"/>
	<path class="st7" d="M116.7,201.7c0,0-0.1,1.9-0.3,2.8c0,0.1-0.2,0.1-0.5,0l0,0c-1.6,0-3-0.9-3.7-2.3c0,0,0-0.1,0.1-0.1
		c0,0,0.1,0,0.1,0c1,1,2.2,1.6,3.6,1.8c0.1-0.2,0.1-3.3,0.2-3.2c0.7,0.2,1.3,0.5,1.9,0.8c0.3-3.9,0-7.9,0.4-11.8
		c0-0.1,0.2-0.1,0.2,0c0.4,4.2,0.5,8.5,0.1,12.8C118.7,202.9,117,201.9,116.7,201.7z"/>
	<path class="st7" d="M92.9,194.9c3,0.7,4.6-6.2,4.6-6.2s6.1,1,9.6-7.5c-0.6,2.6-2,5-3.9,6.9c0,0,11.1,1.3,17.2-7
		c0,0-2.6,4.3-4.6,5.7c0,0,4.8-0.5,7.6-3.9c0,0,1,5.6,2.3,7.2c0,0,2.7-19-15.2-19.9c0,0-11.1-1.1-16.5,7S92.9,194.9,92.9,194.9z"/>
	<path class="st9" d="M95.5,195.5c0,0-3-6.4-5.8-5.4s-1.3,9.7,1.5,11.4c1.4,1,3.4,0.6,4.4-0.8c0,0,0-0.1,0.1-0.1L95.5,195.5z"/>
	<path class="st7" d="M90.2,192.6C90.2,192.6,90.1,192.7,90.2,192.6c2,1.3,2.7,3.5,3.2,5.7c-0.3-0.9-1.3-1.4-2.2-1
		c-0.1,0-0.2,0.1-0.2,0.1c-0.1,0,0,0.1,0,0.1c0.8-0.1,1.6,0.3,2,1c0.3,0.6,0.5,1.2,0.7,1.9c0.1,0.2,0.4,0.2,0.4-0.1c0,0,0,0,0-0.1
		C94.5,197.6,93,193.4,90.2,192.6z"/>
	<path class="st9" d="M354.9,372.7c-1,2.6-49,62.3-52.2,63.4c-1.2,0.4-10.3-6-21.1-14.2c-2.3-1.8-4.7-3.6-7.1-5.5
		c-15.7-12.1-32.1-25.4-32.1-25.4l32-40l31.2,26.5l6.9,5.8c0,0,28.6-14.6,32.3-15.5S355.9,370.1,354.9,372.7z"/>
	<path class="st7" d="M354.9,372.7c-1,2.6-49,62.3-52.2,63.4c-1.1,0.4-8.2-4.5-17.1-11.2c9.1-6.6,43.9-38,48.6-46.4
		c2.5-4.5-1.1-4.4-5.5-3.2c7.2-3.5,14.4-7,16.1-7.4C348.4,367.1,355.9,370.1,354.9,372.7z"/>
	<path class="st7" d="M303.9,371.5l-33.3,44.9l-112.3-77.9l-10.8-7.5c0,0-3.1,2.1-7.7,4.6c-6.4,3.5-15.8,8-24.1,9.3
		c-13.9,2.1-37.2,1.9-49-13.9c-9.9-13.2-4.5-30.5-4.5-30.5l15.3-6.6c0,0,36.2-30.2,59.7-31.1c10-0.4,24.5,7.1,37.9,15
		S303.9,371.5,303.9,371.5z"/>
	<path class="st10" d="M300.2,368.8c0.2,2,0.4,4,0.5,5.9c0,0.4,0.1,0.7,0.1,1l-0.4,0.5c-0.3-2.6-0.5-5.1-0.7-7.7
		C299.9,368.6,300,368.7,300.2,368.8z M280.9,354.5l-0.4-0.3c0.1,1.3,0.3,2.6,0.6,3.9c1.1,4.5,3.4,8.7,5.6,12.8
		c2.6,4.7,4.9,9.5,6.9,14.5l0.2-0.3c-1.5-3.8-3.2-7.5-5.1-11.1c-2.4-4.6-5.1-9.3-6.8-14.3C281.4,358,281.1,356.3,280.9,354.5z
		 M266.8,405.3c-0.5,2.3-1.7,4.4-3.4,6.1l0.2,0.2c1.3-1.3,2.4-2.9,3-4.6c1.5-4.2,0.9-8.8,0.3-13c-0.7-4.6-2-10.1-0.3-14.6
		c0.7-2.4,2.9-4,5.4-4c2.1,0.2,4.1,1.2,5.5,2.8c3.7,4,2.9,9.2,1.5,14c-1.2,4.2-2.9,8.4-2.6,12.9c0.1,1.1,0.2,2.1,0.5,3.1l0.2-0.3
		c-2.2-8.2,4.5-16.1,3.3-24.4c-0.5-3.4-2.7-6.2-5.8-7.7c-2.9-1.5-6.4-0.3-7.9,2.6c0,0.1-0.1,0.2-0.1,0.2c-1.8,3.7-1.1,8.4-0.5,12.3
		C266.8,395.5,267.9,400.5,266.8,405.3z M238.8,394.4l0.3,0.2c0.3-1.8,1-3.6,1.8-5.3c2.2-4.2,5.5-7.6,9.5-10.1
		c3.7-2.3,8-3.8,11.7-6.2c3.6-2.2,6.2-5.6,7.6-9.6c1.5-4,2-8.4,1.6-12.6c-0.2-1.5-0.6-2.9-1.1-4.3c-0.1-0.1-0.3-0.2-0.4-0.3
		c1.4,3.4,1.8,7.1,1.2,10.7c-0.6,5-2.3,10.2-6.2,13.7c-3.4,3.1-7.8,4.7-11.9,6.8C246.3,381,240.5,386.9,238.8,394.4L238.8,394.4z
		 M235.8,369.8c2.7,1.8,6.3,2.3,9,0.3c3-2.3,3.8-6.4,3.8-10c0-4.9-1.6-10.3,1-14.8c2-3,5.2-5,8.9-5.3c0.9-0.1,1.9-0.1,2.8,0
		l-0.4-0.3c-1-0.1-2,0-3,0.1c-3,0.4-5.8,1.9-7.7,4.3c-2.7,3.4-2.4,8-2.1,12.1c0.4,4.3,0.7,9.6-2.6,12.9c-3.5,3.5-8.6,1.7-11.6-1.5
		c-6.8-7.1-3.8-19,3.3-24.7c4.9-4,11.1-5.8,16.7-8.6l-0.3-0.2c-0.8,0.4-1.6,0.8-2.4,1.1c-7,3.2-15.1,5.9-19,13.1
		C228.3,355.4,228.9,365.2,235.8,369.8L235.8,369.8z M239.1,328.6c1-0.9,1.7-2,2.3-3.3l-0.3-0.2c-0.2,0.5-0.5,1-0.8,1.5
		c-2.3,3.6-6.6,4.7-10.6,3.6c-4.1-1.1-7.2-4.5-8-8.6c-0.6-3.3-0.2-6.7,1.2-9.7l-0.2-0.1c-2,4.2-2.4,8.9-0.2,13.3
		C225.5,330.6,234.2,333.3,239.1,328.6L239.1,328.6z M216.5,376.6c-0.9,0.1-1.9,0.2-2.8,0.3l0.4,0.3h0.2c5-0.7,10.6-1,14,3.5
		c1.7,2.3,2.6,5.1,2.3,8l0.3,0.2c0.3-3.3-0.8-6.6-3-9.1C225,376.5,220.6,376.2,216.5,376.6L216.5,376.6z M217.3,354.3
		c-4.3,2.6-9.6,1.4-14.3,1.4c-3.5,0-7.6,0.6-10.2,3.3c-0.6,0.7-1.2,1.5-1.5,2.4l0.3,0.2c1.2-2.7,3.7-4.6,6.6-5.1
		c4.5-1.1,9.1,0.1,13.7-0.3c3.5-0.3,6.8-1.6,8.6-4.8c1.4-2.6,1.7-5.7,0.9-8.5c-0.7-2.9-2.8-5.3-5.6-6.4c-4.5-1.7-9.4-0.2-13.9,0.6
		c-4.7,1-9.6,0.7-14.2-0.8c-4.4-1.5-8.3-4.3-11.3-7.9c-3.2-4-5.4-9.7-3.1-14.7c1.8-4.2,6.6-6.2,10.9-4.5c0.4,0.2,0.8,0.4,1.1,0.6
		c7.4,4.3,9.1,16.1,18.6,17.2c3.5,0.6,6.9-1.7,7.6-5.2c0.8-3.6-0.5-7.5-2.6-10.4c-4.9-6.7-13.2-9.4-20.8-11.7
		c-4.4-1.4-9-2.8-12.9-5.3c-4.1-2.6-7.3-6.5-9.1-11c-1.5-3.7-2.3-7.7-2.3-11.7c-0.1-0.1-0.2-0.1-0.3-0.1c0,1.1,0,2.2,0.1,3.3
		c0.4,4.3,1.7,8.4,3.8,12.2c2.2,3.7,5.4,6.7,9.3,8.7c7.7,4.1,16.8,5,24.4,9.4c3.6,2.1,7,5,8.9,8.8s2.3,10.5-2.7,12.3
		c-4.5,1.7-9-1.4-11.7-4.8s-4.7-7.8-8.3-10.7c-3-2.4-7-3.6-10.5-1.6c-3.2,2.1-5.1,5.7-4.8,9.5c0.4,8.5,8.3,15.4,15.9,17.9
		c4,1.3,8.2,1.7,12.3,1c5-0.8,10.4-2.8,15.4-0.9C222.8,339.4,223.7,350.5,217.3,354.3L217.3,354.3z M167.9,345.1l0.3,0.2
		c1.6-3.1,4.8-5.4,8.4-4.1c4.1,1.5,6.6,6.4,6.8,10.5c0,1.3-0.1,2.6-0.3,3.9l0.3,0.2c0.2-1,0.3-2,0.3-3c0.2-3.7-1.2-7.3-3.9-9.9
		c-2.3-2.2-5.5-3.1-8.4-1.6C169.8,342.2,168.6,343.5,167.9,345.1L167.9,345.1z M139.3,333.7c0,0.8-0.1,1.5-0.1,2.3l0.4-0.2
		c0.5-6.6-0.1-13.4,1.4-19.7c1.1-4.8,3.5-9.5,8.7-10.6c4.7-0.9,9.5,1.2,12,5.4c2.4,4.1,2.7,9.1,0.9,13.5c-1.8,4.4-4.9,8-7.8,11.6
		l0.2,0.1c5.2-6.5,11.3-13.9,8.2-22.7c-1.2-3.5-3.8-6.3-7.3-7.7c-3.4-1.2-7.1-0.7-10.1,1.3c-3.6,2.6-4.9,7.5-5.5,11.6
		C139.4,323.6,139.5,328.7,139.3,333.7L139.3,333.7z M103.3,339.3c0.3,2.1,0.4,4.3,0.3,6.4h0.3c0.2-7.5-2.7-15.2-0.2-22.6
		c1.4-4.1,5.5-8.1,10.1-8s7.3,4.6,7.9,8.7c1,6.7-2.8,13.6-2.4,20.2l0.3-0.1c-0.1-0.9-0.1-1.8,0-2.6c0.4-5,2.5-9.8,2.6-14.8
		c0-3.4-0.9-7.1-3.4-9.5c-2.5-2.3-6.2-2.8-9.2-1.2C100.8,320.3,102.4,331.3,103.3,339.3L103.3,339.3z M142.6,282.6
		c-0.2,3.5,0,7.1,2.3,10c1.9,2.5,5.1,3,7.3,0.5c2.8-3.2,3.1-8.6,2.9-12.6c-0.3-5-1.7-9.7-3.2-14.5l-0.4-0.1c0.7,2.2,1.4,4.5,1.9,6.7
		c1.3,5.3,2,10.8,0.5,16.1c-0.7,2.4-1.9,5.4-4.8,5.8c-2.1,0.3-3.7-1.3-4.7-3c-2.3-3.9-1.7-8.4-1.3-12.7c0.4-4.6,1.1-9.2,0.7-13.8
		c0-0.5-0.1-1-0.2-1.5l-0.3-0.1c0.3,1.7,0.4,3.5,0.3,5.2C143.6,273.4,142.9,278,142.6,282.6L142.6,282.6z M117.8,276.4
		c0.4,4.8-0.2,9.6,0,14.5c0.2,4,1.3,8.1,4.8,10.6c2.9,2.2,7,1.7,9.3-1c2.9-3.2,2.9-7.7,2.1-11.7c-1.2-5.4-3-10.7-4.6-16
		c-0.9-2.7-1.6-5.4-2.2-8.2l-0.3,0.1c0,0.1,0,0.2,0,0.3c0.5,2.7,1.2,5.3,2.1,7.9c0.8,2.7,1.6,5.4,2.4,8.1c1.5,5,4,11.1,2,16.3
		c-0.8,2.3-2.6,4.2-4.9,5c-2.4,0.6-5-0.2-6.7-2c-4-3.8-3.8-9.6-3.5-14.6c0.3-4.5,0.1-8.9-0.7-13.3c-0.2-1.3-0.6-2.5-1.1-3.7
		l-0.2,0.1C117.1,271.3,117.6,273.8,117.8,276.4L117.8,276.4z M97.8,302.2c2.8,0.5,6.1,0.2,8-2.2c2.7-3.3,1.4-8-0.1-11.5
		c-1.6-3.7-3.9-7.1-5.6-10.7c-0.1,0.1-0.2,0.1-0.3,0.2c0.7,1.4,1.4,2.7,2.2,4c2.5,4.3,6.1,9.9,4.8,15.1c-1.1,4.5-5.8,5.5-9.7,4.4
		c-6.5-1.6-9.5-7.7-13.8-12.3l-0.2,0.2C87.6,294.4,90.7,300.8,97.8,302.2z M61.6,319.4c0,0.1,0,0.2,0,0.2c0.8-0.1,1.5-0.3,2.2-0.6
		c3.7-1.8,5.6-5.9,8.8-8.3c4-2.9,9.6-4.1,14-1.5c4.1,2.4,6.5,7.3,4.9,11.9c-1.4,4-5,6.8-8,9.6c-2.8,2.6-4.9,5.9-6,9.5
		c0.1,0.1,0.2,0.1,0.3,0.1c1-3.3,2.8-6.4,5.3-8.8c2.7-2.8,5.9-5.2,7.8-8.5c1.9-3.1,1.9-6.9,0.1-10c-2-3.3-5.5-5.4-9.3-5.6
		c-4.1-0.1-8.1,1.5-11,4.5C68.1,314.6,65.7,319,61.6,319.4z"/>
	<path class="st6" d="M147.5,331c0,0-3.1,2.1-7.7,4.6c-8.2-9.8-25.4-27.5-26-28.1L147.5,331z"/>
	<path class="st6" d="M90.8,283.9c-2.2,1.5-4.3,3.1-6.4,4.6s-4.3,3-6.3,4.6s-4,3.5-5.9,5.3c-0.9,0.9-1.8,1.8-2.7,2.7
		c-0.9,0.9-1.8,1.8-2.6,2.8c-0.1,0.1,0.1,0.2,0.2,0.1c1-0.7,2-1.5,2.9-2.4c1-0.9,2-1.7,3-2.6c1.9-1.7,3.9-3.3,5.9-4.9
		s3.7-3.5,5.6-5.1S88.8,285.6,90.8,283.9C90.9,283.9,90.9,283.8,90.8,283.9z"/>
	<path class="st6" d="M292.5,367c-2,2.5-3.9,5.1-5.7,7.7s-3.7,5.2-5.6,7.8c-3.7,5.2-7.4,10.4-11,15.7c-2,2.9-3.9,5.8-5.8,8.8
		c-0.1,0.1,0.1,0.3,0.2,0.1c4-5,7.6-10.2,11.3-15.5s7.3-10.5,10.9-15.7c2-2.9,4-5.8,5.8-8.8C292.8,367,292.6,366.9,292.5,367z"/>
	<path class="st6" d="M204,370.4c-5.6-4.4-11.4-8.6-17.2-12.7s-11.5-8.2-17.4-12.2c-1.7-1.1-3.4-2.3-5.1-3.4s-3.4-2.2-5.1-3.3
		c-0.1-0.1-0.2,0.1-0.1,0.2c1.5,1.1,3,2.3,4.4,3.4s2.8,2.2,4.3,3.2c2.8,2.1,5.6,4.1,8.5,6.2c5.7,4.1,11.5,8.2,17.4,12.2
		c3.3,2.3,6.6,4.6,10,6.7C203.9,370.9,204.1,370.5,204,370.4z"/>
	<path class="st6" d="M239.9,324.1c-5.2-4.3-10.7-8.1-16.1-12.1s-10.9-8-16.4-12L191,288.2c-5.3-3.8-10.5-7.7-16.1-11.1
		c-3.1-1.8-6.2-3.5-9.4-5.1c-3.1-1.6-6.4-2.9-9.7-4c-0.1,0-0.1,0.1-0.1,0.2c2.8,1.5,5.6,2.8,8.4,4.3s5.5,3,8.1,4.6
		c5.5,3.4,10.8,7.2,16,11c10.9,7.9,21.8,15.7,32.8,23.5c6.1,4.3,12.2,8.9,18.6,12.9C239.8,324.5,240,324.2,239.9,324.1z"/>
</g>
<g id="freepik--Plant--inject-20">
	<path class="st2" d="M388.8,342.7c-1.3,3.4-2.4,7-3.1,10.6c0.1,0.2,0,0.9-0.1,0.7c-0.1,0.6-1,0.4-0.9-0.2c0-0.4,0.1-0.8,0.2-1.1
		c-1.8-2.9-4.7-4.8-7-7.4c-1.8-2-3-4.5-3.5-7.1c-1.3-7.3,1.4-14.6-0.3-22c-1.5-6.3-4.8-12-7.4-17.9c-2.8-6.2-4.7-12.6-4.2-19.5
		c0.4-5.3,1.7-12.2,6.1-15.7c4.7-3.7,9.6,0,12.5,4c8.3,11.8,11.2,25.9,11.5,40c0.1,7.8,0.3,15.7-0.7,23.5
		C391.1,334.6,390.2,338.7,388.8,342.7z"/>
	<path class="st7" d="M385.4,356.2c1.3-7.2,2-14.6,2-21.9c0,0,0,0,0-0.1c0.7-5.9,1.8-11.7,2.2-17.7c0.4-6.4,0.2-12.9-0.6-19.3
		c0-0.1-0.1-0.1-0.1,0c0.5,6.3,0.5,12.5,0.1,18.8c-0.2,3.4-0.6,6.7-1.1,10c-0.2,1.1-0.4,2.2-0.6,3.3l0,0c-0.7-16.9-5-33.4-12.7-48.4
		c-0.1-0.2-0.5,0-0.4,0.2c5.4,11.4,9,23.5,10.7,36c-3.6-8.9-9.8-16.5-14-25.1c0,0-0.1,0-0.1,0c3.6,9.4,10.4,17.3,14.3,26.6
		c0.5,3.7,0.8,7.4,0.9,11.1c0.1,5.1,0,10.2-0.5,15.2c-2.2-5.4-4.5-10.7-6.2-16.4c0-0.1-0.1-0.1-0.1-0.1c-0.1,0-0.1,0.1-0.1,0.1
		c1.3,5.9,3.3,12.2,6.4,17.4c-0.4,3.6-0.8,7.2-1.4,10.7c-1.6,9.5-4.2,18.8-6,28.2c0,0.1,0.1,0.2,0.2,0.3c0.1,0,0.2-0.1,0.2-0.2
		C381.5,375.7,383.8,366,385.4,356.2z"/>
	<path class="st7" d="M383.1,281.5c0-0.1-0.1,0-0.1,0c1.2,5,1.7,10,2.4,15.1c0,0.1,0.1,0.2,0.2,0.1c0.1,0,0.1-0.1,0.1-0.1
		C385.8,291.5,384.5,286.3,383.1,281.5z"/>
	<path class="st2" d="M425.2,306.3c-1.5,2.7-3.1,5.3-4.9,7.8c-3.8,5.4-7.6,10.3-8.9,16.8c-0.4,3-1.1,5.9-2.2,8.7
		c-1.1,2.4-2.5,4.6-4.2,6.5c-3.9,4.6-8.6,8.4-12.3,13.2c-3.8,5-6.9,10.6-9,16.6c-0.1,0.3-0.6,0.2-0.5-0.1c0,0,0-0.1,0-0.1
		c0,0,0,0,0-0.1c1-14.3,3.6-28.5,9.4-41.7c2.6-5.8,5.5-11.4,8.8-16.8c2.7-4.8,6.4-9,10.7-12.4c2.9-2.1,9.1-6,12.6-3.2
		C426.5,302.8,426.1,304.6,425.2,306.3z"/>
	<path class="st7" d="M407.5,337.1c-2.9,3.9-6.1,7.5-9.5,11c-1.6,1.7-3.2,3.3-4.7,5c-0.7,0.8-1.6,1.6-2.3,2.4
		c0.5-1.5,1.1-2.9,1.6-4.4c2.6-7,5.1-14.1,8.6-20.7c3.5-6.4,7.5-12.5,11.9-18.3c0.1-0.2-0.1-0.3-0.3-0.1c-3.5,4.6-7.1,9.3-10.2,14.2
		c-1.7,2.8-3.2,5.6-4.6,8.6c1.9-6.4,4.2-12.6,6.9-18.7c0-0.1,0-0.1-0.1,0c-3.4,6-5.8,12.6-7.1,19.4l0,0c-0.8,1.8-1.6,3.6-2.3,5.4
		c-3.1,7.7-5.9,15.6-8.6,23.5c0.5-5.3,1.5-10.6,3-15.7c0-0.1-0.1-0.2-0.2-0.1c-2,5.3-3,10.9-3.1,16.6c-1,3-2,6-3,9
		c-2.1,6.4-4.5,12.9-6,19.5c0,0.1,0,0.1,0.1,0.2s0.1,0,0.2-0.1l0,0c1.4-3.5,2.3-7.1,3.5-10.7s2.4-7.1,3.6-10.7
		c1.8-5.2,3.6-10.3,5.5-15.5c1.1-1.8,3-3.4,4.4-4.9s3.2-3.3,4.7-4.9c2.9-3.1,5.6-6.4,8-9.9C407.7,337.1,407.6,337,407.5,337.1z"/>
	<path class="st7" d="M408.8,331.1c-3.6,3.7-6.7,7.7-9.5,12c0,0.1,0,0.1,0.1,0.1c3.2-4,6.3-8,9.5-12
		C408.9,331.1,408.8,331,408.8,331.1z"/>
	<path class="st2" d="M349.5,312c1.5,3.4,3.2,7.4,2,11.1c-0.8,2.4-2.7,4.1-3.3,6.6c-1.3,5.4,3.8,9.5,7.4,12.5
		c9.1,7.5,21.9,14.6,22.3,27.9c0,0.5,0.8,0.4,0.8,0c0,0,0-0.1,0-0.1c0,0,0,0,0.1-0.1c2-6.5,2.6-13.3,1.9-20
		c-0.7-6.9-3-13.3-5.9-19.6c-4.8-10.7-10-21.6-18.1-30.2c-2.2-2.4-6.9-6.8-9.4-2.1S347.6,307.9,349.5,312z"/>
	<path class="st7" d="M356.2,334.2c5.7,7.7,15.6,12.7,20.4,21.2c-1.9-12.3-6.6-24-13.8-34.1c-0.1-0.1,0-0.3,0.1-0.4
		c0.1-0.1,0.2,0,0.3,0c5.4,6.4,9.4,13.9,11.9,21.8c-1-5.5-2.5-10.9-4.4-16.1c-0.1-0.2,0.2-0.3,0.3-0.1c2.5,5.7,4.1,11.8,4.7,18.1
		c5.5,18.6,4,39.5,0.4,58.1c0,0.3-0.5,0.2-0.4,0c2-14.8,3.3-29.8,1.3-44.6c0-0.3-0.1-0.6-0.1-0.9c-5.2-9.1-15-14.1-20.8-22.9
		C356,334.3,356.1,334.2,356.2,334.2z"/>
	<path class="st7" d="M355.3,328c3.1,3.5,6.1,7,9.2,10.5c0,0,0,0.1-0.1,0.1c-3.6-3-6.7-6.5-9.3-10.4
		C355,328.1,355.2,327.9,355.3,328z"/>
	<path class="st7" d="M356.2,314.5c2.5,5.3,5.4,10.3,8.7,15.1c0,0.1,0,0.1-0.1,0.1c-3.8-4.5-6.8-9.6-8.8-15.1c0-0.1,0-0.1,0.1-0.1
		C356.1,314.4,356.2,314.4,356.2,314.5z"/>
	<polygon class="st10" points="366,416.4 396,416.4 392,376.1 370.6,376.1 	"/>
	<polygon class="st7" points="369.9,382.7 392.6,382.7 392,376.1 370.6,376.1 	"/>
	<rect x="367" y="371.6" class="st10" width="28.1" height="6.4"/>
</g>
</svg>
