<?xml version="1.0" encoding="utf-8"?>
<!-- Generator: Adobe Illustrator 23.0.5, SVG Export Plug-In . SVG Version: 6.00 Build 0)  -->
<svg version="1.1" id="Layer_1" xmlns="http://www.w3.org/2000/svg" xmlns:xlink="http://www.w3.org/1999/xlink" x="0px" y="0px"
	 viewBox="0 0 470 484" style="enable-background:new 0 0 470 484;" xml:space="preserve">
<style type="text/css">
	.st0{fill:#F0F0F0;}
	.st1{fill:#E0E0E0;}
	.st2{fill:#407BFF;}
	.st3{opacity:0.8;fill:#FFFFFF;enable-background:new    ;}
	.st4{fill:#EBEBEB;}
	.st5{fill:#FAFAFA;}
	.st6{opacity:0.7;}
	.st7{fill:#FFFFFF;}
	.st8{fill:#37474F;}
	.st9{fill:#263238;}
	.st10{fill:#455A64;}
	.st11{opacity:0.5;enable-background:new    ;}
	.st12{opacity:0.2;enable-background:new    ;}
	.st13{opacity:0.4;fill:#FFFFFF;enable-background:new    ;}
	.st14{opacity:0.4;enable-background:new    ;}
	.st15{opacity:0.3;fill:#407BFF;enable-background:new    ;}
	.st16{fill:#FFA8A7;}
	.st17{fill:#F5F5F5;}
	.st18{fill:#E6E6E6;}
	.st19{fill:#F28F8F;}
	.st20{opacity:0.75;fill:#FFFFFF;enable-background:new    ;}
	.st21{opacity:0.1;enable-background:new    ;}
	.st22{opacity:0.1;}
	.st23{opacity:0.3;enable-background:new    ;}
	.st24{fill:#B16668;}
	.st25{opacity:0.3;fill:#FFFFFF;enable-background:new    ;}
	.st26{opacity:0.35;fill:#FFFFFF;enable-background:new    ;}
	.st27{opacity:0.7;fill:#FFFFFF;enable-background:new    ;}
	.st28{fill:#9A4A4D;}
	.st29{opacity:0.3;}
</style>
<g id="freepik--Floor--inject-8">
	<ellipse id="freepik--floor--inject-8" class="st0" cx="235" cy="345.6" rx="223.4" ry="129"/>
</g>
<g id="freepik--Shadows--inject-8">
	<path id="freepik--Shadow--inject-8" class="st1" d="M320,355.5l27.2,15.7c2,1,4.3,1,6.2,0l56.5-32.6c1.7-1,1.7-2.6,0-3.6
		l-27.2-15.7c-2-1-4.3-1-6.2,0L320,351.9C318.3,352.9,318.3,354.5,320,355.5z"/>
	<polygon id="freepik--shadow--inject-8" class="st1" points="21.8,364.6 80.3,398.4 272.6,287.4 214.1,253.6 	"/>
	<ellipse class="st1" cx="263.5" cy="319.9" rx="45.1" ry="26.1"/>
	<ellipse class="st1" cx="136.8" cy="387.5" rx="45.1" ry="26.1"/>
</g>
<g id="freepik--Window--inject-8">
	<g>
		<g id="freepik--window--inject-8">
			<polygon class="st2" points="264.3,147 452.4,255.6 452.4,122.1 264.3,13.5 			"/>
			<polygon class="st3" points="264.3,147 452.4,255.6 452.4,122.1 264.3,13.5 			"/>
		</g>
		<g id="freepik--Plane--inject-8">
			<path class="st1" d="M369.6,91.7L369.6,91.7L369.6,91.7c2-3.1,1.1-7.2-2-9.2c-1.1-0.7-2.3-1.1-3.6-1.1c-0.5,0-1.1,0.1-1.6,0.2
				h-0.1c-3.9,0.9-14.3,4.2-21.7,9l9.8,16.1l0.3-0.2c5.3-3.2,14.5-10.3,17.8-13.7c0.3-0.3,0.6-0.6,0.9-1l0,0L369.6,91.7z"/>
			<path class="st4" d="M338.7,94.9c0.3,4.7,2.7,9,6.7,11.6c3.7,2.1,6.7,0.4,6.7-3.8c-0.3-4.7-2.7-9-6.7-11.6
				C341.7,89,338.7,90.7,338.7,94.9z"/>
			<path class="st1" d="M340.6,96c0.2,3.4,2,6.5,4.8,8.3c2.6,1.5,4.8,0.3,4.8-2.8c-0.2-3.4-2-6.4-4.8-8.3
				C342.7,91.7,340.6,93,340.6,96z"/>
			<polygon class="st0" points="380,80.3 345.4,60.3 356.3,94 			"/>
			<path class="st5" d="M380,117.3c0,0-44.9,25.9-50.7,29.3s-15.9,8-23.6,8.7c-8.6,0.8-11.9-1-13.7-2.5c-3.8-3.1-1.5-10.1,2.7-13.9
				c0.8-4,2.7-7.7,5.4-10.8c4.5-5.1,18.6-13.4,30.9-20.7S380,80.3,380,80.3l32,18.5L380,117.3z"/>
			<path class="st2" d="M299.5,136.4l-1.6,4.6c-1.3-0.4-2.4-1.2-3.2-2.2c0.3-1.6,0.8-3.1,1.5-4.6
				C297.1,135.2,298.3,135.9,299.5,136.4z"/>
			<path class="st2" d="M305.2,137.3l-0.2,5c-2.2,0.1-4.4-0.2-6.5-1l1.6-4.6C301.8,137.2,303.5,137.4,305.2,137.3z"/>
			<path class="st2" d="M305.9,137.3c2-0.2,3.9-0.7,5.7-1.3v5c-1.9,0.7-3.9,1.2-5.9,1.3L305.9,137.3z"/>
			<path class="st2" d="M316,133.9v4.9c-1.2,0.7-2.4,1.3-3.6,1.8v-5C313.6,135.1,314.8,134.6,316,133.9z"/>
			<g class="st6">
				<path class="st7" d="M299.5,136.4l-1.6,4.6c-1.3-0.4-2.4-1.2-3.2-2.2c0.3-1.6,0.8-3.1,1.5-4.6
					C297.1,135.2,298.3,135.9,299.5,136.4z"/>
				<path class="st7" d="M305.2,137.3l-0.2,5c-2.2,0.1-4.4-0.2-6.5-1l1.6-4.6C301.8,137.2,303.5,137.4,305.2,137.3z"/>
				<path class="st7" d="M305.9,137.3c2-0.2,3.9-0.7,5.7-1.3v5c-1.9,0.7-3.9,1.2-5.9,1.3L305.9,137.3z"/>
				<path class="st7" d="M316,133.9v4.9c-1.2,0.7-2.4,1.3-3.6,1.8v-5C313.6,135.1,314.8,134.6,316,133.9z"/>
			</g>
			<path class="st1" d="M328.4,141.1c-0.2,0-0.4,0-0.5-0.1c-0.4-0.3-0.6-0.7-0.6-1.2v-10c0.1-1.1,0.6-2.1,1.6-2.7l3-1.8
				c0.5-0.4,1.3-0.3,1.7,0.2c0.2,0.3,0.3,0.6,0.2,0.9v10c-0.1,1.1-0.6,2.1-1.6,2.7l-3,1.8C329,141,328.7,141.1,328.4,141.1z
				 M332.7,125.6c-0.2,0-0.3,0.1-0.5,0.1l-3,1.7c-0.7,0.5-1.2,1.3-1.3,2.2v10c0,0.2,0.1,0.5,0.3,0.6c0.2,0.1,0.5,0,0.7-0.1l3-1.8
				c0.7-0.5,1.2-1.3,1.3-2.2v-10c0-0.2-0.1-0.5-0.3-0.6C332.8,125.7,332.8,125.6,332.7,125.6z"/>
			<path class="st1" d="M342.7,124.4v2.6c0,0.5,0.4,0.8,0.9,0.5l1-0.6c0.5-0.3,0.8-0.9,0.9-1.5v-2.7c0-0.5-0.4-0.8-0.9-0.5l-1,0.6
				C343,123.3,342.7,123.8,342.7,124.4z"/>
			<path class="st1" d="M358.7,115.2v2.7c0,0.6,0.4,0.8,0.9,0.5l1-0.6c0.5-0.3,0.8-0.9,0.9-1.5v-2.7c0-0.5-0.4-0.8-0.9-0.5l-1,0.6
				C359,114,358.7,114.6,358.7,115.2z"/>
			<path class="st1" d="M364,112.1v2.7c0,0.6,0.4,0.8,0.9,0.5l1-0.6c0.5-0.3,0.8-0.9,0.9-1.5v-2.7c0-0.5-0.4-0.8-0.9-0.5l-1,0.6
				C364.4,111,364,111.5,364,112.1z"/>
			<path class="st1" d="M369.4,109v2.7c0,0.6,0.4,0.8,0.9,0.5l1-0.6c0.5-0.3,0.8-0.9,0.9-1.5v-2.7c0-0.5-0.4-0.8-0.9-0.5l-1,0.6
				C369.7,107.9,369.4,108.4,369.4,109z"/>
			<path class="st1" d="M388,98.3v2.7c0,0.6,0.4,0.8,0.9,0.5l1-0.6c0.5-0.3,0.8-0.9,0.9-1.5v-2.7c0-0.5-0.4-0.8-0.9-0.5l-1,0.6
				C388.3,97.1,388,97.7,388,98.3z"/>
			<path class="st1" d="M393.4,95.2v2.7c0,0.6,0.4,0.8,0.9,0.5l1-0.6c0.5-0.3,0.8-0.9,0.9-1.5v-2.7c0-0.5-0.4-0.8-0.9-0.5l-1,0.6
				C393.7,94,393.4,94.6,393.4,95.2z"/>
			<path class="st1" d="M399.6,95.2l1-0.6c0.5-0.3,0.8-0.9,0.9-1.5v-0.6l-2.4-1.4c-0.2,0.3-0.2,0.5-0.3,0.8v2.7
				C398.7,95.3,399.1,95.5,399.6,95.2z"/>
			<path class="st1" d="M374.7,106v2.7c0,0.6,0.4,0.8,0.9,0.5l1-0.6c0.5-0.3,0.8-0.9,0.9-1.5v-2.7c0-0.5-0.4-0.8-0.9-0.5l-1,0.6
				C375,104.9,374.7,105.4,374.7,106z"/>
			<path class="st1" d="M380,102.9v2.7c0,0.6,0.4,0.8,0.9,0.5l1-0.6c0.5-0.3,0.8-0.9,0.9-1.5v-2.7c0-0.5-0.4-0.8-0.9-0.5l-1,0.6
				C380.3,101.7,380,102.3,380,102.9z"/>
			<path class="st1" d="M348,121.4v2.6c0,0.5,0.4,0.8,0.9,0.5l1-0.6c0.5-0.3,0.8-0.9,0.9-1.5v-2.7c0-0.5-0.4-0.8-0.9-0.5l-1,0.6
				C348.3,120.2,348,120.7,348,121.4z"/>
			<path class="st1" d="M420.3,121L420.3,121L420.3,121c0.7-1.1,1.1-2.3,1.1-3.6c0-3.7-3-6.6-6.6-6.6l0,0c-0.5,0-1.1,0.1-1.6,0.2
				H413c-3.9,0.9-14.3,4.2-21.7,9l9.8,16l0.3-0.2c5.3-3.2,14.5-10.2,17.8-13.7c0.3-0.3,0.6-0.6,0.9-1l0,0L420.3,121z"/>
			<path class="st4" d="M389.4,124.2c0.3,4.7,2.7,9,6.6,11.6c3.7,2.1,6.7,0.4,6.7-3.9c-0.3-4.7-2.7-9-6.7-11.6
				C392.4,118.2,389.4,120,389.4,124.2z"/>
			<path class="st1" d="M391.3,125.3c0.2,3.4,1.9,6.4,4.8,8.3c2.6,1.5,4.8,0.3,4.8-2.8c-0.2-3.4-2-6.4-4.8-8.3
				C393.4,121,391.3,122.3,391.3,125.3z"/>
			<polygon class="st0" points="377.4,115.6 441.1,115.6 409.4,97.3 			"/>
		</g>
	</g>
</g>
<g id="freepik--Chairs--inject-8">
	<g id="freepik--chairs--inject-8">
		<path class="st8" d="M257.4,245.4l-2.1-3.6l4.2-2.4c1.6-1.2,2.4-3.2,2-5.1l-5.9-23.8c-0.8-2.6-2.5-4.8-4.7-6.3l-24.6-14.2
			c-0.7-0.4-1-0.3-1.1-0.3s-0.3,0.3-0.3,1.1v18.7c-0.1,3.8-2.1,7.3-5.2,9.3l-4.2,2.4l-2.1-3.6l4.2-2.4c1.9-1.3,3-3.5,3.2-5.8v-18.7
			c-0.3-2.6,1.5-5,4.1-5.3c1.2-0.2,2.4,0.2,3.4,0.9l24.5,14.2c3.2,2.1,5.6,5.2,6.7,8.9l5.9,23.8c0.9,3.7-0.7,7.6-3.9,9.7
			L257.4,245.4z"/>
		<path class="st8" d="M81,339.7h-5.2v46.2l0,0c0.1,0.4,0.3,0.8,0.8,1c1.1,0.6,2.5,0.6,3.6,0c0.4-0.2,0.7-0.6,0.8-1l0,0L81,339.7z"
			/>
		<path class="st8" d="M47.5,320.4h-5.1v46.2l0,0c0.1,0.4,0.3,0.8,0.7,1c1.1,0.6,2.5,0.6,3.6,0c0.4-0.2,0.7-0.6,0.8-1l0,0V320.4z"/>
		<path class="st8" d="M123.8,315h-5.1v46.2l0,0c0.1,0.4,0.3,0.8,0.7,1c1.1,0.6,2.5,0.6,3.6,0c0.4-0.2,0.7-0.6,0.8-1l0,0L123.8,315z
			"/>
		<path class="st8" d="M90.4,295.7h-5.1v46.2l0,0c0.1,0.4,0.3,0.8,0.8,1c1.1,0.6,2.5,0.6,3.6,0c0.4-0.2,0.7-0.6,0.8-1l0,0V295.7z"/>
		<path class="st8" d="M166.6,290.2h-5.1v46.2l0,0c0.1,0.4,0.3,0.8,0.8,1c1.1,0.6,2.5,0.6,3.6,0c0.4-0.2,0.7-0.6,0.8-1l0,0V290.2z"
			/>
		<path class="st8" d="M133.2,270.9h-5.1v46.2l0,0c0,0.5,0.3,0.9,0.8,1c1.1,0.6,2.5,0.6,3.6,0c0.4-0.2,0.7-0.6,0.8-1l0,0V270.9z"/>
		<path class="st8" d="M209.5,265.5h-5.1v46.2l0,0c0.1,0.4,0.3,0.8,0.8,1c1.1,0.6,2.5,0.6,3.6,0c0.4-0.2,0.7-0.6,0.8-1l0,0V265.5z"
			/>
		<path class="st8" d="M176.1,246.2h-5.1v46.2l0,0c0,0.5,0.3,0.9,0.8,1c1.1,0.6,2.5,0.6,3.6,0c0.4-0.2,0.7-0.6,0.8-1l0,0V246.2z"/>
		<path class="st8" d="M252.4,240.7h-5.1v46.2l0,0c0.1,0.4,0.3,0.8,0.8,1c1.1,0.6,2.5,0.6,3.6,0c0.4-0.2,0.7-0.6,0.8-1l0,0V240.7z"
			/>
		<path class="st8" d="M218.9,221.5h-5.1v46.2l0,0c0.1,0.4,0.3,0.8,0.8,1c1.1,0.6,2.5,0.6,3.6,0c0.4-0.2,0.7-0.6,0.8-1l0,0V221.5z"
			/>
		<polygon class="st9" points="231,244.1 205.3,229.7 76.1,304.3 76.1,307.1 101.2,321.6 231,246.9 		"/>
		<polygon class="st10" points="76.1,304.3 205.3,229.7 231,244.1 101.2,318.8 		"/>
		
			<rect x="42.9" y="290.1" transform="matrix(0.9949 -0.1012 0.1012 0.9949 -30.3029 6.1024)" class="st8" width="4.1" height="23"/>
		
			<rect x="74.6" y="273.8" transform="matrix(0.9949 -0.1012 0.1012 0.9949 -28.4862 9.2288)" class="st8" width="4.1" height="23"/>
		<path class="st2" d="M141.1,317.7L141.1,317.7c-2.7-4.7-6.7-8.7-11.4-11.4L91,283.9l0,0l-54.4,31.4v2.4l37.3,21.6
			c4.7,2.7,8.7,6.7,11.4,11.4l54.3-31.4l0,0L141.1,317.7z"/>
		<path class="st2" d="M36.6,315.3l38.7,22.4c4.7,2.7,8.7,6.7,11.4,11.4l0,0l54.3-31.4l0,0c-2.7-4.7-6.7-8.7-11.4-11.4L91,283.9l0,0
			L36.6,315.3z"/>
		<polygon class="st11" points="86.8,349 85.3,350.6 139.7,319.3 139.7,319.3 141.1,317.7 		"/>
		<path class="st12" d="M36.6,317.7l37.3,21.6c4.7,2.7,8.7,6.7,11.4,11.4l1.4-1.6l-0.1-0.2c-2.7-4.6-6.6-8.5-11.3-11.2l-38.7-22.4
			V317.7z"/>
		<polygon class="st2" points="86.8,276.6 78.4,209.1 76.1,207.8 21.8,239.1 30.2,306.7 32.4,308 		"/>
		<polygon class="st12" points="21.8,239.1 24.1,240.4 32.4,308 30.2,306.7 		"/>
		<polygon class="st2" points="32.4,308 86.8,276.6 78.4,209.1 24.1,240.4 		"/>
		<polygon class="st13" points="21.8,239.1 24.1,240.4 78.4,209.1 76.1,207.8 		"/>
		
			<rect x="105.6" y="253.9" transform="matrix(0.9949 -0.1012 0.1012 0.9949 -26.3161 12.2638)" class="st8" width="4.1" height="23"/>
		
			<rect x="137.3" y="237.6" transform="matrix(0.9949 -0.1012 0.1012 0.9949 -24.4995 15.3903)" class="st8" width="4.1" height="23"/>
		<path class="st2" d="M203.8,281.5L203.8,281.5c-2.7-4.7-6.7-8.7-11.4-11.4l-38.7-22.4l0,0l-54.3,31.4v2.4l37.3,21.5
			c4.7,2.7,8.7,6.7,11.4,11.4l54.3-31.4l0,0L203.8,281.5z"/>
		<path class="st2" d="M99.3,279.1l38.7,22.4c4.7,2.7,8.7,6.7,11.4,11.4l0,0l54.3-31.4l0,0c-2.7-4.7-6.7-8.7-11.4-11.4l-38.7-22.4
			l0,0L99.3,279.1z"/>
		<polygon class="st11" points="149.5,312.9 148.1,314.5 202.4,283.1 202.4,283.1 203.8,281.5 		"/>
		<path class="st12" d="M99.3,281.5l37.3,21.5c4.7,2.7,8.7,6.7,11.4,11.4l1.4-1.6l-0.1-0.2c-2.7-4.6-6.6-8.5-11.3-11.2L99.3,279
			V281.5z"/>
		<polygon class="st2" points="149.5,240.4 141.1,172.9 138.8,171.6 84.5,202.9 92.9,270.5 95.1,271.8 		"/>
		<polygon class="st12" points="84.5,202.9 86.8,204.2 95.1,271.8 92.9,270.5 		"/>
		<polygon class="st2" points="95.1,271.8 149.5,240.4 141.1,172.9 86.8,204.2 		"/>
		<polygon class="st13" points="84.5,202.9 86.8,204.2 141.1,172.9 138.8,171.6 		"/>
		
			<rect x="168.3" y="217.7" transform="matrix(0.9949 -0.1012 0.1012 0.9949 -22.3283 18.4253)" class="st8" width="4.1" height="23"/>
		
			<rect x="200" y="201.4" transform="matrix(0.9949 -0.1012 0.1012 0.9949 -20.5126 21.5518)" class="st8" width="4.1" height="23"/>
		<path class="st2" d="M266.5,245.3L266.5,245.3c-2.7-4.7-6.7-8.7-11.4-11.4l-38.7-22.4l0,0L162,242.9v2.4l37.3,21.6
			c4.7,2.7,8.7,6.7,11.4,11.4l54.4-31.4l0,0L266.5,245.3z"/>
		<path class="st2" d="M162,242.9l38.7,22.4c4.7,2.7,8.7,6.7,11.4,11.4l0,0l54.3-31.4l0,0c-2.7-4.7-6.7-8.7-11.4-11.4l-38.7-22.4
			l0,0L162,242.9z"/>
		<polygon class="st11" points="212.2,276.6 210.8,278.2 265.1,246.9 265.1,246.9 266.5,245.3 		"/>
		<path class="st12" d="M162,245.3l37.3,21.6c4.7,2.7,8.7,6.7,11.4,11.4l1.4-1.6l-0.1-0.2c-2.7-4.6-6.6-8.5-11.3-11.2L162,242.9
			V245.3z"/>
		<polygon class="st2" points="212.2,204.2 203.8,136.7 201.5,135.4 147.2,166.7 155.6,234.3 157.8,235.6 		"/>
		<polygon class="st12" points="147.2,166.7 149.5,168 157.8,235.6 155.6,234.3 		"/>
		<polygon class="st2" points="157.8,235.6 212.2,204.2 203.8,136.7 149.5,168 		"/>
		<polygon class="st13" points="147.2,166.7 149.5,168 203.8,136.7 201.5,135.4 		"/>
		<path class="st8" d="M78,342l-2.7,1.6c-0.9,0.5-1.9,0.8-3,0.8c-0.7,0-1.4-0.1-2.1-0.4c-1.7-0.8-3-2.4-3.4-4.3l-1.3-5.4l-0.7-2.8
			l-3.9-15.6c-0.8-2.6-2.5-4.8-4.7-6.3L38,299.1c-0.7-0.4-1-0.3-1.1-0.3s-0.3,0.3-0.3,1.1v18.7c0,0.9,0.2,1.2,0.3,1.2
			c0.3,0,0.6-0.1,0.8-0.3l1-0.6l4.1,2.4l-3.1,1.8c-1.5,1-3.4,1.1-4.9,0.3c-1.6-1.1-2.5-2.9-2.3-4.8v-18.7c-0.3-2.6,1.5-4.9,4.1-5.3
			c1.2-0.1,2.4,0.2,3.4,0.9l18.2,10.5c3.2,2.1,5.6,5.2,6.7,8.9l4.8,19.5l0.7,2.8l0.4,1.5c0.1,0.6,0.5,1.2,1,1.5
			c0.5,0.2,1,0.1,1.4-0.2l1-0.6C75.5,340.2,76.8,341,78,342z"/>
	</g>
</g>
<g id="freepik--Signal--inject-8">
	<g id="freepik--signal--inject-8">
		<g id="freepik--speach-bubble--inject-8">
			<path class="st2" d="M165.8,29.2L58.3,91.3c-0.7,0.4-1.1,1.2-1.2,2v31c0,0.8,0.5,1.6,1.2,2l4.1,2.3c0.7,0.4,1.6,0.4,2.3,0
				l107.5-62.1c0.7-0.4,1.1-1.2,1.1-2v-31c0-0.8-0.5-1.6-1.2-2l-4.1-2.3C167.4,28.8,166.6,28.8,165.8,29.2z"/>
			<path class="st2" d="M63.6,128V97c0-0.8,0.5-1.6,1.2-2l107.5-62.2c0.6-0.4,1.1-0.1,1.1,0.7v31c0,0.8-0.5,1.6-1.1,2L64.8,128.6
				C64.1,129,63.6,128.7,63.6,128z"/>
			<path class="st12" d="M64.8,128.6c-0.7,0.4-1.6,0.4-2.3,0l-4.1-2.3c-0.7-0.4-1.1-1.2-1.2-2v-31c0-0.4,0.1-0.8,0.4-1.2l6.5,3.7
				c-0.2,0.3-0.3,0.7-0.3,1.1v31c-0.1,0.4,0.2,0.8,0.6,0.8C64.4,128.8,64.6,128.7,64.8,128.6z"/>
			<path class="st13" d="M173.4,33.3c-0.1-0.6-0.6-0.8-1.1-0.5L64.8,94.9c-0.3,0.2-0.6,0.5-0.8,0.9l-6.4-3.7
				c0.2-0.3,0.5-0.6,0.8-0.8l107.5-62.1c0.7-0.4,1.6-0.4,2.3,0l4.1,2.3C172.9,31.9,173.3,32.6,173.4,33.3z"/>
		</g>
		<path class="st7" d="M166.9,45.5c-0.3-0.2-0.8-0.2-1.1,0l-8.7,5c-0.6,0.3-0.7,1-0.4,1.6s1,0.7,1.6,0.4l5.6-3.2L156.3,65
			c-0.3,0.6,0,1.2,0.5,1.5c0,0,0,0,0,0c0.2,0.1,0.3,0.1,0.5,0.1c0.4,0,0.8-0.3,1-0.7l6.8-14.4v8.4c-0.1,0.6,0.4,1.2,1,1.2
			s1.2-0.4,1.2-1c0-0.1,0-0.1,0-0.2V46.5C167.4,46.1,167.2,45.7,166.9,45.5z"/>
		<path class="st7" d="M69.3,116.3c0.3,0.3,0.9-0.8,0.9-0.8l1.3,1.8l0.2-0.4l-0.5-3.4c0,0,1.7-2.6,3.8-6.4l4.7,4.5l0.2-0.5l-2.2-6.2
			l0.5-1c0.1-0.2,0.1-0.4,0-0.5s-0.3,0-0.4,0.2l-0.3,0.6l-0.4-1.2c2.3-4.8,3.6-8.2,2.7-9s-2.5,2.1-4.8,7l-0.9-0.1l0.3-0.6
			c0.1-0.2,0.1-0.4,0-0.6c-0.1-0.1-0.2-0.1-0.3,0.1l-0.5,1l-4.9-0.6l-0.2,0.5l4.7,4.5c-1.7,4.2-2.8,7.5-2.8,7.5l-2.4,0.6l-0.2,0.4
			l1.7,1.1C69.5,114.8,68.9,116,69.3,116.3z"/>
		<path class="st7" d="M89.8,92.2c0.4-0.2,0.8-0.4,1.2-0.4c0.3,0,0.6,0.1,0.8,0.3c0.3,0.3,0.4,0.6,0.5,0.9c0.1,0.5,0.2,1,0.2,1.5
			c0,0.7,0,1.4,0,2.1c0,0.6-0.1,1.2-0.2,1.8c-0.1,0.5-0.3,1-0.5,1.5c-0.2,0.5-0.5,0.9-0.8,1.3c-0.3,0.4-0.7,0.7-1.2,1l-2.3,1.3
			c0,0-0.1,0-0.2,0c-0.1-0.1-0.1-0.1-0.1-0.2V94c0-0.1,0-0.2,0.1-0.3c0-0.1,0.1-0.2,0.2-0.2L89.8,92.2z M91.4,95.2
			c0-0.3,0-0.5-0.1-0.8c0-0.2-0.1-0.4-0.3-0.5c-0.1-0.1-0.3-0.2-0.5-0.2c-0.2,0-0.5,0.1-0.7,0.2l-1.2,0.7v6.4l1.3-0.8
			c0.2-0.1,0.5-0.3,0.7-0.5c0.2-0.2,0.3-0.5,0.5-0.7c0.1-0.3,0.2-0.5,0.3-0.8c0.1-0.3,0.1-0.6,0.1-0.9
			C91.4,96.6,91.4,95.9,91.4,95.2L91.4,95.2z"/>
		<path class="st7" d="M98.6,95.3c0.1,0,0.1,0,0.2,0c0.1,0.1,0.1,0.1,0.1,0.2v1c0,0.1,0,0.2-0.1,0.3c0,0.1-0.1,0.2-0.2,0.2l-4.1,2.3
			c-0.1,0-0.1,0-0.2,0c-0.1-0.1-0.1-0.1-0.1-0.2V90c0-0.1,0-0.2,0.1-0.3c0-0.1,0.1-0.2,0.2-0.2l4-2.3c0,0,0.1,0,0.2,0c0,0,0,0,0,0
			c0.1,0.1,0.1,0.1,0.1,0.2v1c0,0.1,0,0.2-0.1,0.3c0,0.1-0.1,0.2-0.2,0.2l-3,1.7v2.3l2.8-1.6c0.1,0,0.1,0,0.2,0
			c0.1,0.1,0.1,0.1,0.1,0.2v1c0,0.1,0,0.2-0.1,0.3c0,0.1-0.1,0.2-0.2,0.2l-2.8,1.6v2.4L98.6,95.3z"/>
		<path class="st7" d="M103.2,84.4c0.8-0.4,1.3-0.5,1.8-0.2c0.5,0.5,0.7,1.3,0.6,2c0,0.9-0.2,1.9-0.6,2.8c-0.4,0.8-1,1.4-1.8,1.8
			l-1.5,0.9v3.2c0,0.1,0,0.2-0.1,0.3c0,0.1-0.1,0.2-0.2,0.2l-0.8,0.4c0,0-0.1,0-0.2,0c-0.1-0.1-0.1-0.1-0.1-0.2v-9.2
			c0-0.1,0-0.2,0.1-0.3c0-0.1,0.1-0.2,0.2-0.2L103.2,84.4z M101.7,89.9l1.4-0.8c0.3-0.2,0.6-0.5,0.8-0.8c0.2-0.4,0.3-0.8,0.3-1.3
			c0-0.5-0.1-0.8-0.3-0.9c-0.3-0.1-0.6,0-0.8,0.2l-1.4,0.8V89.9z"/>
		<path class="st7" d="M109.7,80.7c0.1-0.1,0.2-0.1,0.2,0c0.1,0.1,0.1,0.2,0.1,0.3l2.3,7.7c0,0,0,0.1,0,0.1c0,0.1,0,0.2-0.1,0.3
			c0,0.1-0.1,0.2-0.2,0.2l-0.7,0.4c-0.1,0.1-0.2,0.1-0.3,0c0-0.1-0.1-0.1-0.1-0.2l-0.4-1.3l-2.9,1.7l-0.4,1.8c0,0.1-0.1,0.2-0.1,0.3
			c-0.1,0.1-0.2,0.2-0.3,0.3l-0.7,0.4c-0.1,0-0.1,0-0.2,0c-0.1-0.1-0.1-0.1-0.1-0.2c0,0,0-0.1,0-0.1l2.3-10.3c0-0.2,0.1-0.3,0.1-0.4
			c0-0.1,0.1-0.2,0.2-0.3L109.7,80.7z M110.2,86.7l-1-3.5l-1,4.7L110.2,86.7z"/>
		<path class="st7" d="M116.3,76.9c0.8-0.4,1.4-0.5,1.8-0.2c0.5,0.5,0.7,1.3,0.6,2c0,0.7-0.1,1.4-0.3,2c-0.2,0.6-0.5,1.1-0.9,1.6
			l1.3,2.7c0,0,0,0.1,0,0.1c0,0.1,0,0.2-0.1,0.3c0,0.1-0.1,0.1-0.1,0.2l-0.8,0.4c-0.1,0.1-0.2,0.1-0.3,0c-0.1,0-0.1-0.1-0.1-0.2
			l-1.2-2.6l-1.2,0.7v3.4c0,0.1,0,0.2-0.1,0.3c0,0.1-0.1,0.2-0.2,0.2l-0.8,0.4c0,0-0.1,0-0.2,0c0,0,0,0,0,0
			c-0.1-0.1-0.1-0.1-0.1-0.2v-9.2c0-0.1,0-0.2,0.1-0.3c0-0.1,0.1-0.2,0.2-0.2L116.3,76.9z M114.9,82.2l1.3-0.8
			c0.3-0.2,0.6-0.5,0.8-0.8c0.2-0.4,0.3-0.8,0.3-1.3c0-0.5-0.1-0.8-0.3-0.9c-0.3,0-0.6,0-0.8,0.2l-1.3,0.8V82.2z"/>
		<path class="st7" d="M124.6,72.1c0.1,0,0.1,0,0.2,0c0.1,0.1,0.1,0.1,0.1,0.2v1c0,0.1,0,0.2-0.1,0.3c0,0.1-0.1,0.2-0.2,0.2l-1.7,1
			v7.8c0,0.1,0,0.2-0.1,0.3c0,0.1-0.1,0.2-0.2,0.2l-0.8,0.4c-0.1,0-0.1,0-0.2,0c-0.1-0.1-0.1-0.1-0.1-0.2v-7.8l-1.7,1
			c-0.1,0-0.1,0-0.2,0c-0.1-0.1-0.1-0.1-0.1-0.2v-1c0-0.1,0-0.2,0.1-0.3c0-0.1,0.1-0.2,0.2-0.2L124.6,72.1z"/>
		<path class="st7" d="M131.2,68.3c0.1,0,0.1,0,0.2,0c0.1,0.1,0.1,0.1,0.1,0.2v5.8c0,0.6,0,1.1-0.2,1.7c-0.1,0.5-0.3,1-0.5,1.5
			c-0.2,0.5-0.5,0.9-0.8,1.3c-0.3,0.4-0.7,0.7-1.2,0.9c-0.3,0.2-0.7,0.4-1.2,0.4c-0.3,0-0.6-0.1-0.8-0.3c-0.2-0.3-0.4-0.6-0.5-0.9
			c-0.1-0.5-0.2-1-0.2-1.5v-5.8c0-0.1,0-0.2,0.1-0.3c0-0.1,0.1-0.2,0.2-0.2l0.8-0.4c0.1,0,0.1,0,0.2,0c0.1,0.1,0.1,0.1,0.1,0.2v5.8
			c0,0.3,0,0.6,0.1,0.9c0,0.2,0.1,0.4,0.3,0.5c0.1,0.1,0.3,0.2,0.4,0.1c0.2,0,0.4-0.1,0.6-0.2c0.2-0.1,0.4-0.3,0.6-0.4
			c0.2-0.2,0.3-0.4,0.4-0.6c0.1-0.3,0.2-0.6,0.3-0.8c0.1-0.3,0.1-0.7,0.1-1.1v-5.8c0-0.1,0-0.2,0.1-0.3c0-0.1,0.1-0.2,0.2-0.2
			L131.2,68.3z"/>
		<path class="st7" d="M136,65.5c0.8-0.4,1.4-0.5,1.8-0.2c0.5,0.5,0.7,1.3,0.6,2c0,0.7-0.1,1.4-0.3,2c-0.2,0.6-0.5,1.1-0.9,1.6
			l1.3,2.8c0,0,0,0.1,0,0.1c0,0.1,0,0.2-0.1,0.3c0,0.1-0.1,0.1-0.1,0.2l-0.8,0.5c-0.1,0.1-0.2,0.1-0.3,0c-0.1-0.1-0.1-0.1-0.1-0.2
			l-1.2-2.7l-1.2,0.7v3.3c0,0.1,0,0.2-0.1,0.3c0,0.1-0.1,0.2-0.2,0.2l-0.8,0.4c-0.1,0-0.1,0-0.2,0c-0.1-0.1-0.1-0.1-0.1-0.2v-9.2
			c0-0.1,0-0.2,0.1-0.3c0-0.1,0.1-0.2,0.2-0.2L136,65.5z M134.6,70.8l1.3-0.8c0.3-0.2,0.6-0.5,0.8-0.8c0.2-0.4,0.3-0.8,0.3-1.3
			c0-0.5-0.1-0.8-0.3-0.9c-0.3,0-0.6,0-0.8,0.2l-1.3,0.8V70.8z"/>
		<path class="st7" d="M144.3,68.9c0.1,0,0.1,0,0.2,0c0.1,0.1,0.1,0.1,0.1,0.2v1c0,0.1,0,0.2-0.1,0.3c0,0.1-0.1,0.2-0.2,0.2
			l-4.1,2.3c-0.1,0-0.1,0-0.2,0c-0.1-0.1-0.1-0.1-0.1-0.2v-9.2c0-0.1,0-0.2,0.1-0.3c0-0.1,0.1-0.2,0.2-0.2l4-2.3c0,0,0.1,0,0.2,0
			c0.1,0.1,0.1,0.1,0.1,0.2v1c0,0.1,0,0.2-0.1,0.3c0,0.1-0.1,0.2-0.2,0.2l-3,1.7v2.3l2.8-1.6c0.1,0,0.1,0,0.2,0
			c0.1,0.1,0.1,0.1,0.1,0.2v1c0,0.1,0,0.2-0.1,0.3c0,0.1-0.1,0.2-0.2,0.2l-2.8,1.6v2.4L144.3,68.9z"/>
		<path class="st7" d="M148.4,58.2c0.3-0.2,0.7-0.3,1.1-0.4c0.3,0,0.6,0,0.8,0.2c0.2,0.1,0.4,0.3,0.5,0.6c0.1,0.2,0.2,0.5,0.2,0.8
			c0,0.1,0,0.2-0.1,0.3c0,0.1-0.1,0.2-0.2,0.2l-0.6,0.4c-0.1,0.1-0.2,0.1-0.2,0c-0.1,0-0.1-0.1-0.1-0.2c-0.1-0.2-0.2-0.3-0.4-0.4
			c-0.2-0.1-0.5,0-0.8,0.2c-0.2,0.1-0.3,0.2-0.5,0.3c-0.1,0.1-0.3,0.3-0.4,0.4c-0.1,0.2-0.2,0.3-0.3,0.5c-0.1,0.2-0.1,0.4-0.1,0.5
			c0,0.2,0,0.3,0.1,0.5c0.1,0.1,0.2,0.2,0.3,0.2c0.2,0,0.4,0,0.6,0l0.9-0.2c0.3-0.1,0.7-0.1,1-0.1c0.2,0,0.5,0.1,0.6,0.2
			c0.2,0.2,0.3,0.4,0.4,0.6c0.1,0.3,0.1,0.7,0.1,1c0,0.4-0.1,0.9-0.2,1.3c-0.1,0.4-0.3,0.9-0.5,1.3c-0.2,0.4-0.5,0.8-0.9,1.1
			c-0.3,0.3-0.7,0.6-1.1,0.9c-0.3,0.2-0.6,0.3-1,0.4c-0.3,0.1-0.6,0-0.8-0.1c-0.2-0.1-0.5-0.3-0.6-0.5c-0.2-0.3-0.2-0.7-0.3-1
			c0-0.1,0-0.2,0.1-0.3c0-0.1,0.1-0.2,0.2-0.2l0.6-0.4c0.1-0.1,0.2-0.1,0.2-0.1c0.1,0,0.1,0.1,0.1,0.2c0,0.1,0.1,0.2,0.2,0.3
			c0.1,0.1,0.1,0.2,0.3,0.2c0.1,0,0.3,0,0.4,0c0.2,0,0.4-0.1,0.6-0.3c0.2-0.1,0.4-0.2,0.5-0.4c0.2-0.1,0.3-0.3,0.4-0.5
			c0.1-0.2,0.2-0.4,0.3-0.6c0.1-0.2,0.1-0.4,0.1-0.6c0-0.2,0-0.3-0.1-0.4c-0.1-0.1-0.3-0.1-0.4-0.1c-0.2,0-0.4,0.1-0.6,0.1l-0.9,0.2
			c-0.3,0.1-0.5,0.1-0.8,0.1c-0.2,0-0.4-0.1-0.6-0.3c-0.2-0.2-0.3-0.4-0.3-0.6c-0.1-0.3-0.1-0.7-0.1-1c0-0.4,0.1-0.9,0.2-1.3
			c0.1-0.4,0.3-0.8,0.5-1.2c0.2-0.4,0.5-0.7,0.8-1C147.7,58.8,148,58.5,148.4,58.2z"/>
	</g>
</g>
<g id="freepik--Luggage--inject-8">
	<g id="freepik--luggage--inject-8">
		<polygon class="st10" points="361,237.2 361,185.3 364.5,183.3 364.5,235.2 		"/>
		<polygon class="st9" points="357.6,183.3 357.6,239.2 361,237.2 361,185.3 		"/>
		<polygon class="st8" points="340.4,249.2 336.9,247.2 357.7,235.2 361,237.2 		"/>
		<polygon class="st10" points="336.9,251.2 336.9,199.3 340.4,197.3 340.4,249.2 		"/>
		<polygon class="st8" points="333.5,197.3 333.5,253.2 336.9,251.2 336.9,199.3 		"/>
		<path class="st2" d="M360.2,179.2c-0.9-0.4-1.9-0.3-2.7,0.3l-20.3,11.7c-2.1,1.3-3.5,3.6-3.7,6.1v4l3.5,2l27.6-16v-4
			c0.1-0.8-0.3-1.6-0.9-2.1C363,180.8,360.8,179.5,360.2,179.2z"/>
		<path class="st2" d="M336.9,199.3c0.2-2.5,1.6-4.8,3.7-6.1l20.3-11.7c2-1.2,3.7-0.4,3.6,1.9v4l-27.6,16L336.9,199.3z"/>
		<path class="st12" d="M336.9,199.3c0.2-2.5,1.6-4.8,3.7-6.1l20.3-11.7c2-1.2,3.7-0.4,3.6,1.9v4l-27.6,16L336.9,199.3z"/>
		<path class="st14" d="M338,195.9c-0.6,1-1,2.2-1,3.4v4l-3.5-2v-4c0-1.2,0.4-2.4,1-3.4L338,195.9z"/>
		<path class="st2" d="M394,241.7l-18.8-10.8c-0.8-0.6-1.8-0.6-2.6-0.3l0,0l-45.2,26.1l25.7,102.6l45-26c0.8-0.5,1.2-1.4,1.1-2.4
			v-80.1C399,247,397.1,243.7,394,241.7z"/>
		<path class="st12" d="M394,241.7l-18.8-10.8c-0.8-0.6-1.8-0.6-2.6-0.3l0,0l-45.2,26.1l25.7,102.6l45-26c0.8-0.5,1.2-1.4,1.1-2.4
			v-80.1C399,247,397.1,243.7,394,241.7z"/>
		<path class="st2" d="M330.2,347.2l20.3,11.8c2,1.2,3.7,0.2,3.7-2.1v-80.2c-0.2-3.7-2.2-7-5.2-9l-18.8-10.8c-2-1.2-3.7-0.2-3.7,2.1
			v81.9C326.7,343.5,328.1,345.8,330.2,347.2z"/>
		<path class="st14" d="M330.2,347.2l20.3,11.8c2,1.2,3.7,0.2,3.7-2.1v-80.2c-0.2-3.7-2.2-7-5.2-9l-18.8-10.8
			c-2-1.2-3.7-0.2-3.7,2.1v81.9C326.7,343.5,328.1,345.8,330.2,347.2z"/>
		<path class="st10" d="M344.4,351c-0.3-4.6-2.7-8.9-6.6-11.4c-1.9-1.1-3.6-1.1-4.8-0.3l0,0l-4.5,2.5l9.5,16.1l4.4-2.5l0,0
			C343.6,354.6,344.4,353.1,344.4,351z"/>
		<path class="st8" d="M333.1,342.2c3.9,2.5,6.4,6.8,6.6,11.4c0,4.2-3,5.9-6.6,3.8c-3.9-2.5-6.3-6.8-6.6-11.4
			C326.5,341.8,329.5,340.1,333.1,342.2z"/>
		<path class="st9" d="M333.1,347c1.5,1,2.4,2.6,2.5,4.4c0,1.6-1.1,2.3-2.5,1.5c-1.5-1-2.4-2.6-2.5-4.4
			C330.6,346.8,331.8,346.1,333.1,347z"/>
		<path class="st8" d="M347.3,357.1l3.6,2.1c0.7,0.4,1.6,0.4,2.3,0l5.8-3.3v-4.1c0-0.5-0.4-0.8-0.8-0.8c-0.1,0-0.3,0-0.4,0.1l-3.5,2
			l-5.7-3.3c-0.4-0.2-0.9-0.1-1.1,0.3c-0.1,0.1-0.1,0.3-0.1,0.4L347.3,357.1z"/>
		<path class="st9" d="M354.2,356.8v-3.7l0,0l-5.7-3.3c-0.4-0.2-0.9-0.1-1.1,0.3c-0.1,0.1-0.1,0.3-0.1,0.4v6.6l0,0l3.2,1.9
			c0.7,0.4,1.5,0.6,2.2,0.4c0.1,0,0.3-0.1,0.4-0.2C353.9,358.7,354.3,357.8,354.2,356.8z"/>
		<path class="st8" d="M398.1,333.2c0.8-0.5,1.2-1.4,1.1-2.4v-3.7l0,0l-3.7,2.1c-0.6,0.4-1,1.1-1,1.8v4.3L398.1,333.2z"/>
		<path class="st2" d="M354.2,301.2c19-22.2,33.6-29.5,45-26v-4c-11.4-3.6-25.9,3.8-45,26V301.2z"/>
		<path class="st15" d="M397,244.5l-45,26c-0.8-1.2-1.8-2.1-3-2.8l-18.8-10.8c-0.7-0.5-1.6-0.6-2.4-0.3l44.8-25.9
			c0.8-0.4,1.8-0.3,2.6,0.3l18.8,10.8C395.2,242.4,396.2,243.4,397,244.5z"/>
		<path class="st9" d="M378.4,240.4c-1.4-0.7-3-0.7-4.3,0l-2.2,1.3v0.7l4.3,2.5l2.2-1.3c0.5-0.2,0.8-0.7,0.9-1.3v-0.7
			C379.2,241.1,378.9,240.6,378.4,240.4z"/>
		<path class="st10" d="M371.9,241.7l2.2-1.3c1.4-0.7,3-0.7,4.3,0c0.7,0.2,1.1,1,0.8,1.7c-0.1,0.4-0.4,0.7-0.8,0.8l-2.2,1.3
			L371.9,241.7z"/>
		<polygon class="st8" points="376.2,240.8 376.2,244.2 371.9,241.7 371.9,238.3 		"/>
		<polygon class="st10" points="354.6,253.3 376.2,240.8 371.9,238.3 350.2,250.8 		"/>
		<polygon class="st8" points="350.2,254.1 350.2,250.8 354.6,253.3 354.6,256.6 		"/>
		<path class="st9" d="M354.6,256.6l-4.3-2.5l-2.2,1.3c-0.5,0.2-0.8,0.7-0.9,1.2v0.7c0,0.5,0.4,1,0.9,1.2c1.4,0.7,3,0.7,4.3,0
			l2.2-1.3V256.6z"/>
		<path class="st10" d="M350.2,254.1l-2.2,1.3c-0.7,0.2-1.1,1-0.8,1.7c0.1,0.4,0.4,0.7,0.8,0.8c1.4,0.7,3,0.7,4.3,0l2.2-1.3
			L350.2,254.1z"/>
		<polygon class="st9" points="355.3,252.9 355.3,257 354.6,257.4 354.6,253.3 		"/>
		<polygon class="st9" points="376.2,240.8 376.2,244.9 375.5,245.3 375.5,241.2 		"/>
		<polygon class="st9" points="354.6,254.1 376.2,241.6 376.2,240.8 354.6,253.3 		"/>
		<polygon class="st8" points="375.5,245.3 375.5,242 372.7,243.6 		"/>
	</g>
</g>
<g id="freepik--character-2--inject-8">
	<g id="freepik--Character--inject-8">
		<path class="st16" d="M211.6,165.9c9.4-0.5,12.4,10.7,16.1,17.5c4.4,8.1,13.1,23.3,13.1,23.3l-9.4,5.8l-18.4-27.2L211.6,165.9z"/>
		<path class="st10" d="M211.7,165.9c2.2-0.4,4.4,0.1,6.2,1.3c2.8,2,4.3,4.5,6.5,8.3s6.6,13.7,6.6,13.7s-4.5,6-11.8,6.9l-7.7-15.7
			L211.7,165.9z"/>
		<path class="st16" d="M249.6,302.4c0,0,1.6,10.6,4.7,14.6c2.8,3.6,4.8,8.1,8.1,11.8c0.7,0.8,2.4,2.3,3,3c0.5,0.5,0.6,1.3,0.1,1.8
			c-0.1,0.1-0.1,0.1-0.2,0.2c-1.4,1.4-7.6,1.9-11.1-0.7s-7-7.4-9-9.4c-1-1-2-2-2.8-2.7c-0.7-0.7-1-1.7-0.7-2.6
			c0.1-0.3,0.1-0.6,0.2-1c0.4-2-2.3-10.1-2.3-10.1L249.6,302.4z"/>
		<path class="st9" d="M242.2,323c0,0.7,0.1,1.3,0.3,1.9c0.3,0.8,2.1,1.9,3.3,2.4c1.6,0.8,2.9,2.1,3.6,3.7c1.3,2.6,3.4,4.6,6.1,5.8
			c3.5,1.4,7.3,1.7,10.9,0.9c4.5-0.9,4.9-3.6,4.9-3.6s0.2-2.5-1-2.9S242.2,323,242.2,323z"/>
		<path class="st10" d="M241,311.9c0.4,2.2,0.5,4.4,0.3,6.5c-0.1,1.3-0.1,3.4,0.9,4.6c1.4,1.8,4.3,2.4,6.1,4.9s4.7,7,10.6,8.1
			s10.5-0.9,11.5-2.6s0-3.3-3.8-5.3c-4.1-2.1-9.6-8.5-9.6-8.5c-1.6-1.9-2.9-4.1-3.9-6.4l-1.5-4.6c-0.3-0.9-6.8,1-7.4,2.3l0.8,4.1
			l-1.6-3.9C242.6,311.1,241.7,311.4,241,311.9z"/>
		<path class="st5" d="M255,334.6c0.1-2.8,1.7-5.3,4.3-6.5c4.5-2.4,7.2-1,8.6,0c1.7,1.1,4,3.6,2.7,5.4s-3.9,2.9-8.5,3.1
			C259.6,336.7,257.1,336.1,255,334.6z"/>
		<path class="st5" d="M248.6,320.9c0.2,0,0.3-0.1,0.4-0.2c0.5-0.7,3.7-3.4,6.9-2.6c0.1-0.4-0.1-0.7-0.8-1.1c-2.7,0-5.2,1.2-7,3.2
			c-0.2,0.2-0.1,0.5,0.1,0.7c0,0,0,0,0,0C248.4,320.8,248.5,320.9,248.6,320.9z"/>
		<path class="st5" d="M257.8,320.3c-0.1-0.5-0.5-0.9-0.9-1.1c-2.5,0.1-4.9,1.3-6.6,3.2c-0.1,0.2-0.1,0.5,0.1,0.7c0,0,0,0,0,0
			c0.1,0.1,0.2,0.1,0.3,0.1c0.2,0,0.3-0.1,0.4-0.2C251.6,322.3,254.7,319.7,257.8,320.3z"/>
		<path class="st5" d="M254.5,315.9c0.2-0.5,0-1-0.5-1.2c-0.1,0-0.1,0-0.2-0.1c-3.6-0.8-7.2,2.1-7.8,3.1c-0.2,0.2-0.1,0.5,0.1,0.7
			c0,0,0,0,0,0c0.1,0.1,0.2,0.1,0.3,0.1c0.2,0,0.3-0.1,0.4-0.2C247.4,317.5,251.1,314.4,254.5,315.9z"/>
		<path class="st5" d="M262.8,325.4c-0.3-0.6-0.8-1-1.4-1.3c-2.6,0.1-5.1,1.2-6.8,3.2c-0.2,0.2-0.1,0.5,0.1,0.7c0,0,0,0,0,0
			c0.1,0.1,0.2,0.1,0.3,0.1c0.2,0,0.3-0.1,0.4-0.2C255.9,327,259.5,324.1,262.8,325.4z"/>
		<path class="st5" d="M252.9,325.6c0.2,0,0.3-0.1,0.4-0.2c0.5-0.7,3.6-3.4,6.8-2.6c-0.2-0.5-0.6-0.9-1.1-1.1
			c-2.5,0.2-4.9,1.3-6.6,3.2c-0.2,0.2-0.1,0.5,0.1,0.7c0,0,0,0,0,0C252.7,325.6,252.8,325.6,252.9,325.6z"/>
		<path class="st8" d="M180.2,217.7c-1.2,6.7-1.6,10.5,0.8,17.3s10.2,12.2,19.6,17.5c7.8,4.4,18.7,11.2,20.9,12.6
			c2.4,1.5,3,2.7,3.2,5.9c0.3,4.4,1.4,11.6,6.5,20.6c5.4,9.5,8.9,17.1,8.9,17.1c3.3-1.9,6.8-3.2,10.5-3.9c0,0-9.8-43.9-11.9-49.6
			s-24.1-24-24.1-24s2.2-9.2,3.8-15.9L180.2,217.7z"/>
		<path class="st16" d="M271.6,290.6c0,0,2.9,8.9,5.2,13c2.3,4.2,5,8.2,8.2,11.8c0.7,0.8,2.4,2.3,3,3c0.5,0.5,0.6,1.3,0.1,1.8
			c-0.1,0.1-0.1,0.1-0.2,0.2c-1.4,1.4-7.6,1.9-11.1-0.7s-7-7.4-9-9.4l-2.8-2.8c-0.7-0.7-1-1.7-0.7-2.6c0.1-0.3,0.1-0.6,0.2-1
			c0.4-2-2.3-10.1-2.3-10.1L271.6,290.6z"/>
		<path class="st8" d="M202.8,204.4c-1.2,6.7-1.6,10.5,0.8,17.3s7.9,17.5,17.3,22.8c7.8,4.4,19.7,8.8,22,9.9
			c1.8,0.8,2.4,2.7,3.2,7.6c0.7,4.4,2.8,9.2,7.9,18.1c5.4,9.5,8.7,15.3,8.7,15.3c2.9-2,6.3-3.2,9.8-3.6c0,0-11.2-41.9-13.3-47.7
			s-17-14.2-23.4-17.9s-10-6-17.3-11L202.8,204.4z"/>
		<path class="st9" d="M246.3,253.8c-0.7-1.7-8.1-5-8.1-5l-15.7-13.2c3.6-4,4.2-10.5,4.2-10.5c-1.5,4.2-4.2,7.8-7.7,10.5
			c3.3,2.6,17.5,16.1,17.6,16.1c3.1,1.3,5.5,2.2,6.4,2.6c1.8,0.8,2.4,2.7,3.2,7.6c0.4,2.5,1.2,5,2.3,7.4c-0.4-1.5-0.6-3.1-0.7-4.7
			C247.7,260.9,247.2,257.3,246.3,253.8z"/>
		<path class="st9" d="M264.6,309.7c0,0.7,0.1,1.3,0.3,1.9c0.4,0.8,2.1,1.9,3.3,2.4c1.6,0.8,2.9,2.1,3.6,3.7
			c1.3,2.6,3.4,4.6,6.1,5.8c3.5,1.4,7.3,1.7,10.9,0.9c4.5-0.9,4.9-3.6,4.9-3.6s0.2-2.5-1-2.9S264.6,309.7,264.6,309.7z"/>
		<path class="st10" d="M263.5,298.6c0.4,2.2,0.5,4.4,0.3,6.5c-0.1,1.3-0.1,3.4,0.9,4.6c1.4,1.8,4.3,2.4,6.1,4.9s4.7,7,10.6,8.1
			s10.5-0.9,11.5-2.6s0-3.3-3.8-5.3c-4.1-2.1-9.5-8.5-9.5-8.5c-1.6-1.9-2.9-4.1-3.9-6.4l-1.2-4.4c-0.3-0.9-6.9,0.8-7.5,2.1l0.8,4
			l-1.8-3.8L263.5,298.6z"/>
		<path class="st5" d="M277.5,321.3c0.1-2.8,1.8-5.3,4.3-6.5c4.4-2.4,7.2-1,8.6,0c1.7,1.1,4,3.5,2.7,5.4s-3.9,2.9-8.5,3.1
			C282.1,323.4,279.6,322.7,277.5,321.3z"/>
		<path class="st5" d="M271.1,307.5c0.2,0,0.3-0.1,0.4-0.2c0.5-0.7,3.7-3.4,6.9-2.6c0.1-0.4-0.1-0.7-0.8-1.1c-3.3-0.2-6.4,2.3-7,3.2
			c-0.1,0.2-0.1,0.5,0.1,0.7c0,0,0,0,0,0C270.9,307.5,271,307.5,271.1,307.5z"/>
		<path class="st5" d="M280.3,307c-0.1-0.5-0.5-0.9-0.9-1.1c-2.5,0.2-4.9,1.3-6.6,3.2c-0.2,0.2-0.1,0.5,0.1,0.7c0,0,0,0,0,0
			c0.1,0.1,0.2,0.1,0.3,0.1c0.2,0,0.3-0.1,0.4-0.2C274.1,309,277.2,306.4,280.3,307z"/>
		<path class="st5" d="M277,302.5c0.2-0.5,0-1-0.5-1.2c-0.1,0-0.1,0-0.2-0.1c-3.6-0.8-7.2,2.1-7.8,3.1c-0.2,0.2-0.1,0.5,0.1,0.7
			c0,0,0,0,0,0c0.1,0.1,0.2,0.1,0.3,0.1c0.2,0,0.3-0.1,0.4-0.2C269.9,304.1,273.6,301.1,277,302.5z"/>
		<path class="st5" d="M285.3,312c-0.3-0.6-0.8-1-1.4-1.3c-2.7,0.1-5.2,1.3-6.9,3.3c-0.1,0.2-0.1,0.5,0.1,0.7c0,0,0,0,0,0
			c0.1,0.1,0.2,0.1,0.3,0.1c0.2,0,0.3-0.1,0.4-0.2C278.4,313.7,282,310.7,285.3,312z"/>
		<path class="st5" d="M275.4,312.3c0.2,0,0.3-0.1,0.4-0.2c0.5-0.7,3.6-3.4,6.8-2.6c-0.2-0.5-0.6-0.9-1.1-1.1
			c-2.5,0.1-4.9,1.3-6.6,3.2c-0.2,0.2-0.1,0.5,0.1,0.7c0,0,0,0,0,0C275.2,312.3,275.3,312.3,275.4,312.3z"/>
		<path class="st8" d="M219.3,225.1c-1.4,2.1-3,4.1-4.7,6l1.4,1.1C217.5,230.1,218.7,227.7,219.3,225.1z"/>
		<path class="st17" d="M194.9,167.1c-4.4,0.8-8.7,1.9-12.9,3.3c0,0,3.7,7,3.2,12.9c-0.4,4.4-2.8,8.3-6.5,10.6
			c0.5,5,1.1,11.1,1.5,17.6c-1,5.4-1.5,10.8-1.5,16.2c0,0,11.9,6.2,25.5,3.4c14.1-2.9,18.6-11.8,18.6-11.8l-6-9.3l2.3-11.7
			c3.7-3.3,5.2-8.5,3.9-13.3c-2.9-10.6-11.4-19.3-11.4-19.3c-2.7-0.1-7.1,0.3-9,0.4C202.7,166.2,199.6,166.5,194.9,167.1z"/>
		<path class="st18" d="M204.2,231.2c1.4-0.3,2.8-0.7,4.2-1.1c0.1-0.5,0.2-1,0.2-1.6c0-0.7-0.1-1.4-0.5-2.1
			c-0.7-0.9-1.6-1.5-2.7-1.8c-2.8-1-5.8-1.2-8.6-2s-5.7-2.3-7-5c-1.1-2.5-1-5.4,0.3-7.9c0.7-1.3,1.6-2.6,1.6-4.1
			c0-2-1.6-3.6-2.6-5.3c-4-6.5,0-15.3-2.8-22.4c-0.3-1-1-1.9-1.9-2.6l-0.4-0.3c1,2.6,1.4,5.4,1.3,8.2c-0.4,4.4-2.8,8.3-6.5,10.6
			c0.5,5,1.1,11.1,1.5,17.6c-1,5.4-1.5,10.8-1.5,16.2C178.7,227.8,190.6,234.1,204.2,231.2z"/>
		<path class="st9" d="M202.2,120.1c-2.7,0.1-5.4,0.5-8,1.4c-2.8,1.1-5.2,3.3-5.8,6.2c0,0.1-0.1,0.3-0.1,0.4
			c-0.1,0.1-0.2,0.2-0.4,0.3c-2,0.8-3.7,2.4-4.6,4.3c-1.1,2.5-1.5,5.2-1.3,7.9c0.5,11.6,7,20.3,10.7,19.9l12-1.3
			c3.5,0.1,7-1.3,9.5-3.8c0.6-0.5,1.2-1.2,1.6-1.9c0.4-1,0.7-2,0.8-3c0.4-2,0.6-4.1,0.9-6.1c0.1-0.8,0.3-1.5,0.6-2.2
			c0.7-1,1.7-1.9,2.8-2.5c1.5-0.9,2.8-2.2,3.8-3.6c1-1.5,1.3-3.3,0.8-5.1c-0.6-1.7-2.3-2.8-4.1-2.6c1.9-2.9,2.9-7.4-0.4-9.7
			c-1.9-1.1-4.1-1.5-6.2-1.1c-2.1,0.4-4.2,1-6.2,1.7C206.4,119.8,204.3,120,202.2,120.1z"/>
		<path class="st16" d="M215.1,132.2c2.2,1.4,4.7,5.1,4.1,16.8c-0.5,10-3.8,12.3-5.4,13s-4.8,0.1-7.8-0.4l-0.2,4.1
			c0,0,3.6,5.1,2.2,8.2c-0.7,1.4-3.8,2.4-8.1-0.1c-2.7-1.7-5.2-3.7-7.4-6.1l0.4-13.8c0,0-1.8,1.7-4.8-1c-2.4-2.3-3.2-6-1.2-7.9
			c1.8-1.6,4.6-1.4,6.2,0.4c0.3,0.4,0.6,0.7,0.7,1.2c0,0,0-5,7.3-7.4C206.5,137.5,212.8,137.1,215.1,132.2z"/>
		<path class="st9" d="M196.7,141.6c-0.8,0.8-1,4.3-1.1,6.5c0,1.1-0.9,2-1.9,2l0,0l0.1-3.5C193.8,146.6,193.1,141.1,196.7,141.6z"/>
		<path class="st8" d="M221.7,140.9h-0.6c-2,0.1-4,0.5-5.9,1.3c-1.9,0.9-2.5,1.7-3.5,1.9s-1.9-0.3-3.9-0.5c-2.2,0-4.3,0.3-6.4,1
			l-0.6,0.2c-0.4,0.2-0.7,0.7-0.6,1.2c0.1,0.4,0.3,0.8,0.7,1.1c0.1,0.1,0.2,0.3,0.2,0.5c0.2,1.1,0.6,2.2,1,3.3
			c0.2,0.4,0.5,0.8,0.9,1.1c0.1,0.1,0.3,0.2,0.4,0.3l0.3,0.1c0.2,0.1,0.5,0.2,0.7,0.2h0.1h0.2h0.2c0.2,0,0.4,0,0.6,0h0.3l0.3-0.1
			c1.9-0.2,3.5-1.5,4.2-3.3c0.6-1.4,0.3-3.2,1.5-3.4h0.2c0.9,0,0.9,1.7,1.5,2.8c0.2,0.4,0.6,0.8,0.9,1.2l0.2,0.2l0.1,0.1l0.1,0.1
			l0.1,0.1l0.1,0.1h0.1h0.1c0.3,0.1,0.7,0.2,1.1,0.2h0.1c0.4,0,0.9,0,1.3-0.1c1.7-0.2,3.1-1.4,3.5-3.1c0.3-1.2,0.4-2.4,0.5-3.6
			c0-0.2,0.1-0.3,0.2-0.5c0.3-0.4,0.4-0.9,0.5-1.4C222.4,141.3,222.1,140.9,221.7,140.9z M209.6,148c-0.1,0.7-0.4,1.4-0.8,2l0,0
			c-0.7,0.9-1.7,1.4-2.8,1.6c-1,0.3-2.1,0-2.8-0.8c0,0-0.1-0.1-0.1-0.1c0,0-0.1-0.1-0.1-0.1c0,0-0.1-0.1-0.1-0.1l-0.1-0.1
			c0,0,0,0,0-0.1v-0.1l-0.1-0.1l0,0l-0.2-0.4l0,0c0-0.1-0.1-0.1-0.1-0.2c0-0.1-0.1-0.2-0.1-0.4v-0.1V149c-0.3-0.9-0.6-2.6-0.2-3.1
			c1-0.8,2.2-1.3,3.5-1.3h0.2c0.3,0,0.6,0,0.9,0h0.3c0.3,0,0.6,0.1,0.9,0.1l0.3,0.1l0.3,0.1h0.1h0.1c0.2,0.1,0.4,0.2,0.6,0.4
			C209.8,145.8,209.7,147,209.6,148z M220.8,145.5c-0.1,1.3-0.7,2.4-1.6,3.2c-0.4,0.3-0.9,0.5-1.4,0.6c-1.1,0.4-2.3,0-3-0.8l0,0
			l-0.1-0.1l-0.1-0.1l0,0c0,0-0.1-0.1-0.1-0.1l-0.1-0.1V148l0,0v-0.1l0,0c-0.1-0.2-0.2-0.4-0.2-0.6c-0.3-0.9-0.4-1.8-0.1-2.7
			c0.8-0.9,1.9-1.6,3.1-1.9c0.3-0.1,0.6-0.2,0.9-0.2h0.1h0.1h0.3h0.1h0.1h0.3h0.7h0.1h0.1l0.2,0.1l0,0c0.2,0,0.3,0.1,0.5,0.2
			C221.1,142.8,221,144.6,220.8,145.5L220.8,145.5z"/>
		<path class="st8" d="M200.6,145l-10-1c1.2,0.2,2.3,0.9,3,2l6.9,0.7L200.6,145z"/>
		<path class="st9" d="M207.4,147c0,0.7-0.5,1.3-1.2,1.3c-0.7,0-1.3-0.5-1.4-1.2c0-0.7,0.5-1.3,1.2-1.4
			C206.7,145.7,207.3,146.2,207.4,147C207.4,147,207.4,147,207.4,147z"/>
		<path class="st19" d="M207.7,154.9l3.5,1.2c-0.3,1-1.3,1.5-2.3,1.2c0,0,0,0-0.1,0C207.9,157,207.4,155.9,207.7,154.9z"/>
		<path class="st9" d="M218.2,140.5l-3.3-0.5c0.1-0.9,1-1.5,1.9-1.4C217.7,138.8,218.3,139.6,218.2,140.5z"/>
		<path class="st9" d="M206.2,141.7l-3,1.4c-0.4-0.8,0-1.8,0.8-2.2C204.8,140.5,205.8,140.8,206.2,141.7L206.2,141.7z"/>
		<path class="st9" d="M217.3,145.7c0,0.7-0.6,1.2-1.3,1.2c-0.7,0-1.2-0.6-1.2-1.3c0-0.7,0.6-1.2,1.2-1.2
			C216.7,144.4,217.3,145,217.3,145.7z"/>
		<path class="st19" d="M211.7,145.7l0.7,7.7l3.8-1.6l-4.2-6.1C211.9,145.7,211.8,145.7,211.7,145.7z"/>
		<path class="st19" d="M206,161.6c-3.2-0.5-9.7-2.6-10.7-5.2c0.4,1.3,1.2,2.5,2.2,3.4c1.9,1.7,8.4,3.8,8.4,3.8L206,161.6z"/>
		<path class="st2" d="M237.9,194.6c0.1-1,0.7-2,1.6-2.5c1.6-1.2,3.8-2.2,4.5-5.2l2.3,1.3l-3.8,6.4L237.9,194.6z"/>
		<path class="st20" d="M237.9,194.6c0.1-1,0.7-2,1.6-2.5c1.6-1.2,3.8-2.2,4.5-5.2l2.3,1.3l-3.8,6.4L237.9,194.6z"/>
		<path class="st2" d="M237.9,194.6c0,0-2.5-1.3-7.9-0.1s-9.9,2.6-20.3,2.4l2.7,1.6l27.1-1.6L237.9,194.6z"/>
		<path class="st20" d="M237.9,194.6c0,0-2.5-1.3-7.9-0.1s-9.9,2.6-20.3,2.4l2.7,1.6l27.1-1.6L237.9,194.6z"/>
		<polygon class="st2" points="209.7,196.8 200.1,228 202.8,229.6 212.4,198.4 		"/>
		<polygon class="st3" points="209.7,196.8 200.1,228 202.8,229.6 212.4,198.4 		"/>
		<polygon class="st21" points="209.7,196.8 200.1,228 202.8,229.6 212.4,198.4 		"/>
		<g class="st22">
			<path d="M244,188.6c-0.3,0.6-0.6,1.2-1.1,1.8c-0.5,0.5-1,1-1.6,1.4c-0.5,0.4-1.1,0.9-1.5,1.4c-0.2,0.3-0.4,0.5-0.5,0.9
				c-0.1,0.3-0.2,0.6-0.2,0.9l-0.3,0.1c0-0.4,0.1-0.8,0.3-1.1c0.2-0.3,0.4-0.6,0.6-0.9c0.5-0.5,1-1,1.6-1.4c0.6-0.4,1.1-0.9,1.6-1.3
				C243.3,189.8,243.7,189.2,244,188.6z"/>
			<path d="M243.6,190.4c-0.2,0.4-0.5,0.7-0.8,1.1c-0.3,0.3-0.6,0.6-0.9,1c-0.3,0.3-0.6,0.7-0.8,1.1c-0.2,0.4-0.4,0.8-0.4,1.2h-0.3
				c0.1-0.5,0.3-0.9,0.6-1.3c0.3-0.4,0.6-0.7,0.9-1l1-0.9C243,191.1,243.3,190.8,243.6,190.4z"/>
			<path d="M220.2,197.1c1.5-0.1,3-0.4,4.4-0.6c1.5-0.3,2.9-0.7,4.4-1c1.5-0.3,2.9-0.5,4.4-0.6c0.8,0,1.5,0,2.3,0.1
				c0.4,0,0.8,0.1,1.1,0.2c0.4,0.1,0.8,0.3,1.1,0.5l-0.2,0.2c-0.3-0.2-0.6-0.4-0.9-0.5c-0.4-0.1-0.7-0.2-1.1-0.2
				c-0.7-0.1-1.5-0.1-2.2-0.1c-1.5,0-3,0.2-4.4,0.5c-1.4,0.3-2.9,0.6-4.4,0.9C223.1,196.8,221.6,197,220.2,197.1z"/>
			<path d="M227.3,196.9c0.8-0.1,1.7-0.3,2.5-0.4s1.7-0.3,2.5-0.4c0.8-0.1,1.7-0.2,2.6-0.2c0.9,0,1.7,0.2,2.5,0.5l-0.1,0.3
				c-0.8-0.3-1.6-0.5-2.4-0.5c-0.8,0-1.7,0-2.5,0.1c-0.8,0.1-1.7,0.2-2.5,0.3S228.2,196.9,227.3,196.9z"/>
		</g>
		<polygon class="st2" points="246.3,186.7 241.8,194.3 231.4,227.7 232.8,228.5 237.2,219.2 247.6,187.5 		"/>
		<polygon class="st12" points="243.2,195.1 247.6,187.5 237.2,219.2 232.8,228.5 		"/>
		<polygon class="st2" points="237.4,196.9 210.6,198.6 200.3,232 201.6,232.8 228.3,231.1 238.7,197.6 		"/>
		<polygon class="st12" points="212,199.4 201.6,232.8 228.3,231.1 238.7,197.6 		"/>
		<path class="st5" d="M206.3,231.2c0,0-0.1,0-0.1-0.1c0-0.1,0-0.1,0-0.2c0.2-0.5,0.1-1.1-0.3-1.6c-0.3-0.5-0.9-0.7-1.5-0.7
			c-0.1,0-0.1,0-0.1-0.1c0,0,0-0.1,0-0.1l7.9-25.4c0-0.1,0.1-0.1,0.1-0.1c1.5-0.1,2.8-1.1,3.2-2.5c0-0.1,0.1-0.1,0.1-0.1l18.3-1.2
			c0.1,0,0.1,0,0.1,0.1c0,0,0,0.1,0,0.1c-0.2,0.5-0.1,1.1,0.3,1.6c0.4,0.4,0.9,0.7,1.5,0.6c0.1,0,0.1,0,0.1,0.1c0,0.1,0,0.1,0,0.2
			l-7.9,25.4c0,0.1-0.1,0.1-0.1,0.1c-1.5,0.1-2.8,1.1-3.2,2.5c0,0.1-0.1,0.1-0.1,0.1L206.3,231.2L206.3,231.2z M204.6,228.4
			c1.1,0,2,0.9,2,2c0,0.1,0,0.3,0,0.4l18-1.1c0.5-1.5,1.8-2.5,3.4-2.6l7.8-25.1c-1.1-0.1-2-1-1.9-2.2c0-0.1,0-0.2,0-0.3l-18,1.2
			c-0.5,1.5-1.8,2.5-3.4,2.6L204.6,228.4z"/>
		<polygon class="st23" points="210.6,198.6 212,199.4 201.6,232.8 200.3,232 		"/>
		<path class="st2" d="M238.7,197.6l4.5-2.6l-10.4,33.4c-0.7,1.8-2.2,2.6-4.4,2.6L238.7,197.6z"/>
		<path class="st23" d="M238.7,197.6l4.5-2.6l-10.4,33.4c-0.8,1.9-2.4,2.6-4.4,2.6L238.7,197.6z"/>
		<path class="st10" d="M241.7,194.2c-1.2-0.4-2.6-0.3-3.7,0.4c-1.2,0.7-1.6,1.7-0.7,2.2l1.5,0.9l4.4-2.6l-1.4-0.8L241.7,194.2z"/>
		<path class="st1" d="M236.3,205.3c1.6,0,3.4-0.2,4.1-1.5l1-3.3c-1,1.4-2.6,2.2-4.3,2L236.3,205.3z"/>
		<path class="st2" d="M241.8,194.3c-0.3,1.3-1.9,2.1-4.5,2.6l1.4,0.8c1.8-0.1,3.5-1,4.5-2.6L241.8,194.3z"/>
		<path class="st16" d="M182.9,171.3c-4,0.2-8.3,1.6-10.1,8.9s-4.6,30.8-5,34.1s-0.5,5.9,7.4,8.4c8.9,2.8,23.3,4,27.3,4.2
			c7.5,0.4,12.5-1.8,14.9-6.1s3.1-10-3.6-7.3c-7.1,3-10.1,3-10.1,3l1.4-4.4c-2.2,1-4.1,4-6.3,4.4c-2,0.3-17.1-4.9-17.1-4.9l3.3-20.4
			C184.8,191.2,189.2,176.8,182.9,171.3z"/>
		<path class="st10" d="M184.1,169.8c-4.1,0.9-6.3,1.2-9.3,4.2s-2.8,6-3.8,12.5c-1,6.2-1.8,15.5-1.8,15.5s7,4.3,13.5,2.8
			c0.5-2.4,2.2-11,3.2-15.9c1-4.5,1.1-9.2,0.2-13.8C185.7,172.8,185,170.8,184.1,169.8z"/>
		<path class="st16" d="M244.6,196.4c-0.5-1.5-2.2,1.4-3,5.8c-0.7,4.2-1.7,8.6-1.7,8.6l-1.2,3.6c0,0,2.8-1.7,5.1-6.5
			S246,200.7,244.6,196.4z"/>
	</g>
</g>
<g id="freepik--character-1--inject-8">
	<g id="freepik--character--inject-8">
		<path class="st2" d="M81.9,231c0.6,2.7,1,5.4,1.3,8.1c0.6,6.4,3.3,36.9,4.5,39s12.8,13.6,12.8,13.6c2.5-3.6,5.9-6.5,9.8-8.5
			l-7.7-10.8c0,0-2.8-20.5-3.3-25.5S97.6,229.8,81.9,231z"/>
		<path class="st23" d="M81.9,231c0.6,2.7,1,5.4,1.3,8.1c0.6,6.4,3.3,36.9,4.5,39s12.8,13.6,12.8,13.6c2.5-3.6,5.9-6.5,9.8-8.5
			l-7.7-10.8c0,0-2.8-20.5-3.3-25.5S97.6,229.8,81.9,231z"/>
		<path class="st24" d="M118,370.4c0,0,2.9,11.4,4.8,14.9c2.2,4,5.3,9.5,8.6,13.2c0.7,0.8,2.4,2.3,3,3c0.5,0.5,0.6,1.3,0.1,1.8
			c-0.1,0.1-0.1,0.1-0.2,0.2c-1.4,1.4-7.6,1.9-11.2-0.7s-7.4-8.7-9.5-10.8l-2.8-2.8c-0.7-0.7-1-1.7-0.8-2.7c0.1-0.3,0.1-0.6,0.2-1
			c0.7-3.4-3.3-11.9-3.3-11.9C110,369.6,114.2,369.8,118,370.4z"/>
		<path class="st9" d="M109.9,390.1c-0.1,0.6,0,1.1,0.2,1.7c0.3,0.8,2.5,2.1,3.7,2.6c1.1,0.5,2.9,3.3,4,5c1.4,2.5,3.5,4.5,6,5.8
			c3.4,1.4,7.2,1.7,10.9,0.9c4.5-0.9,4.8-3.6,4.8-3.6s0.2-2.5-0.9-2.9L109.9,390.1z"/>
		<path class="st10" d="M109.8,382.3c0,0.4,0,0.8,0,1.2c-0.1,1.3-0.2,2-0.3,3.5c-0.1,1.1,0.1,2.1,0.5,3.1c1.4,1.8,4.5,2.4,6.4,4.9
			s5,8.3,11,9.4s10.4-0.9,11.5-2.6s0-3.3-3.8-5.3c-4.1-2.1-9.9-9.8-9.9-9.8c-0.5-0.6-0.9-1.2-1.4-1.8c-0.5-0.7-1-1.4-1.3-2.2
			c-0.3-0.9-0.4-1.8-0.5-2.7c0-0.1,0-0.2-0.1-0.2c-0.1,0-0.1-0.1-0.2-0.1c-2.2-0.2-4.5,0.3-6.4,1.5c-0.2,0.1-0.4,0.3-0.5,0.4
			c-0.1,0.2-0.2,0.3-0.2,0.5l-0.4,1.4c0,0.4-0.3,0.8-0.6,1c-0.4,0.2-0.9-0.1-1.3-0.4s-0.6-1-1-1.3
			C110.9,382.4,110.3,382.2,109.8,382.3z"/>
		<path class="st8" d="M54.3,289.2c-2,15.1-1.6,19.6,5.6,26.8c3.8,3.8,8.7,7.5,16.8,13.1c8.8,6.1,10.8,6.6,13,8.2
			c2.5,1.6,4.3,4.2,4.9,7.1c0.8,4,1.5,7.9,5.3,16c3,6.4,6.4,12.3,8.1,15.6c2.6,0.4,9-0.8,10.7-3c-0.9-4.9-6.3-39.5-8.5-44.6
			s-20.3-20.5-20.3-20.5s-1.4-9.3,0-15.4L54.3,289.2z"/>
		<path class="st24" d="M146.6,355.8c0,0,2.9,11.4,4.8,14.9c2.2,4,5.3,9.5,8.6,13.2c0.7,0.8,2.4,2.3,3,3c0.5,0.5,0.6,1.3,0.1,1.8
			c-0.1,0.1-0.1,0.1-0.2,0.2c-1.4,1.4-7.6,1.9-11.2-0.7s-7.4-8.7-9.5-10.8l-2.8-2.7c-0.7-0.7-1-1.7-0.8-2.7c0.1-0.3,0.1-0.6,0.2-1
			c0.8-3.4-3.3-11.9-3.3-11.9C138.6,355,142.9,355.2,146.6,355.8z"/>
		<path class="st9" d="M138.6,375.5c-0.1,0.6,0,1.2,0.2,1.7c0.3,0.8,2.5,2.1,3.7,2.6s2.9,3.3,3.9,5c1.4,2.3,3.5,4.7,6.1,5.8
			c3.4,1.4,7.2,1.7,10.9,0.9c4.5-0.9,4.8-3.6,4.8-3.6s0.2-2.5-0.9-2.9L138.6,375.5z"/>
		<path class="st10" d="M138.4,367.7c0,0.4,0,0.8,0,1.2c-0.1,1.3-0.2,2-0.3,3.5c-0.1,1.1,0.1,2.1,0.5,3.1c1.4,1.8,4.5,2.4,6.4,4.9
			s5.1,8.3,11,9.4s10.4-0.9,11.5-2.6s0-3.3-3.8-5.3c-4.1-2.1-9.9-9.8-9.9-9.8c-0.5-0.6-0.9-1.2-1.4-1.8c-0.5-0.7-1-1.4-1.3-2.2
			c-0.3-0.9-0.4-1.8-0.5-2.7c0-0.1,0-0.2-0.1-0.2c-0.1,0-0.1-0.1-0.2-0.1c-2.2-0.2-4.4,0.3-6.3,1.5c-0.2,0.1-0.4,0.3-0.5,0.4
			c-0.1,0.2-0.2,0.3-0.2,0.5l-0.4,1.4c0,0.4-0.3,0.8-0.6,1c-0.4,0.2-0.9-0.1-1.3-0.4s-0.6-1-1.1-1.3
			C139.5,367.8,139,367.6,138.4,367.7z"/>
		<path class="st8" d="M59.9,292.6c-1.1,6.1,27.5,18.4,27.5,18.4s3.9,1.5,11.9,5.4c6.4,3,12.5,6.3,18.5,10c2.3,1.4,4,2.2,4.7,5.6
			c0.8,4,0.4,5.7,5.4,15c3.4,6.3,7.1,11.2,8.8,14.4c2.6,0.4,9-0.8,10.7-3c-0.9-4.9-6-39.6-8.5-44.6c-3.6-7-39.8-25.4-39.8-25.4
			L59.9,292.6z"/>
		<path class="st9" d="M99.4,316.4l-7-9.5c3.9-2.9,6.6-7.1,7.5-11.9c0,0-0.1,8.1-4.4,12L99.4,316.4z"/>
		<path class="st17" d="M67.5,232.5c-8.8,2.2-14.6,4.4-16.2,6.2c-3.3,8,1.9,58,1.9,58c10.1,7.5,41.2,3.4,45.8-8.3
			c0,0-2.2-35.8-3.2-42.3c-1.2-7.5-5.8-15.1-15.9-15.1L67.5,232.5z"/>
		<path class="st4" d="M64.5,292.8c-2.8-3.8-3.8-13.8-3.8-13.8s-1.3-26.2-2.7-32.4L50.1,257l3.1,39.7c0.3,0.2,0.6,0.4,0.9,0.6
			l0.3,0.2l0.7,0.4l0.4,0.2l0.7,0.3l0.5,0.2l0.8,0.3L58,299c0.3,0.1,0.7,0.2,1,0.3l0.3,0.1c0.4,0.1,0.9,0.2,1.4,0.3l0.4,0.1l1.1,0.2
			l0.6,0.1l1,0.1l0.6,0.1l1,0.1h0.6l1.1,0.1h0.5c0.5,0,1.1,0,1.6,0h0.3h1.4h0.6c0.4,0,0.7,0,1.1-0.1h0.7l1-0.1l0.7-0.1l1.1-0.1
			l0.7-0.1l1.3-0.2l0.4-0.1c0.6-0.1,1.1-0.2,1.6-0.3l0.6-0.1l1.1-0.2l0.7-0.2c0.3-0.1,0.6-0.1,0.9-0.2s0.5-0.1,0.7-0.2l0.9-0.3
			l0.7-0.2l1-0.3l0.6-0.2l1.4-0.5l0.4-0.2l1-0.4l0.6-0.3l0.8-0.4l0.6-0.3l0.7-0.4l0.5-0.3c0.2-0.1,0.5-0.3,0.7-0.4l0.5-0.3
			c0.3-0.2,0.6-0.4,0.8-0.6l0.3-0.2l0,0C81.3,298.8,67.3,296.6,64.5,292.8z"/>
		<path class="st2" d="M95.9,244.9c4-0.3,13.4,5.1,14.9,8.1s9.3,45.5,6.1,49.9c-4,5.4-22.6,16.6-31.8,16.8
			c-7.6,0.2-15.4-5.1-16.7-7.1c-2.1-3.2-2.4-48.8-0.2-52.8C71.8,253.4,90.8,245.2,95.9,244.9z"/>
		<path class="st25" d="M95.9,244.9c4-0.3,13.4,5.1,14.9,8.1s9.3,45.5,6.1,49.9c-4,5.4-22.6,16.6-31.8,16.8
			c-7.6,0.2-15.4-5.1-16.7-7.1c-2.1-3.2-2.4-48.8-0.2-52.8C71.8,253.4,90.8,245.2,95.9,244.9z"/>
		<path class="st26" d="M69.9,314.1c2.9,2.4,9.1,5.8,15.3,5.6c9.2-0.3,27.9-11.4,31.8-16.9c3.2-4.3-4.5-46.7-6.1-49.9
			s-11-8.4-14.9-8.1s-16.7,6-23.6,10.9l4.1,2.4c4.1,2,6.7,8,7.5,22.4s2.3,34,0.2,36.2s-6.9,1.1-7.2,1C74.3,317,72,315.7,69.9,314.1z
			"/>
		<path class="st21" d="M88,315.6c0.7-1.1,1.1-2.3,1.1-3.6c0-0.5-0.2-1-0.5-1.3c-0.3-0.2-0.6-0.4-1-0.5c-2.8-0.8-5.9-1.1-8.4-2.6
			c-0.2-0.1-0.4-0.3-0.5-0.5c-0.1-0.2-0.1-0.5,0-0.7c0.1-0.1,0.3-0.2,0.5-0.2c0.8-0.2,1.7-0.1,2.5-0.3c1.2-0.2,2.3-0.7,3.3-1.6
			c0.3-0.2,0.5-0.6,0.7-0.9c0.1-0.4,0-0.7-0.3-1c-0.2-0.1-0.5-0.2-0.7-0.2c-2.6-0.4-5-1.7-7.6-2.2c-2.4-0.4-4.9-0.3-7.2-1
			c-1.1-0.4-2-0.9-2.9-1.6c0.3,7.9,0.8,14.2,1.5,15.3c1,1.3,2.4,2.2,3.9,2.7c1.6,0.7,3.3,1.3,5,1.9c1.9,0.7,3.8,1.2,5.8,1.4
			c0.5,0,1.1,0,1.6-0.2C86.2,318,87.3,316.9,88,315.6z"/>
		<path class="st21" d="M114.8,271.4c-0.6-3.6-1.2-7.1-1.8-10c-0.7-0.5-1.3-0.9-2.1-1.3l-25.6,9l-2.1,3.4c0.3,2.4,0.6,5,0.8,8.1
			c0.1,1.2,0.2,2.5,0.2,3.8c2.1,0.9,4.4,1.2,6.6,0.6c0.1,1.3,0.3,2.7,0.6,4c0.4,1.2,2.8,3.1,3.8,0.4c0.5-2.1,0.5-4.2,0-6.3l10.3-5.3
			c0,0-0.1,3.5,0.5,4.5s2.8,1.5,3.7-0.8s0-6.1,0-6.1C111.5,274.2,113.2,272.9,114.8,271.4z"/>
		<path class="st2" d="M96.3,244.8c4.4-0.3,12.4,3.7,14.9,7s4.6,13.3,3.2,16.3s-12,9.6-19.2,13.1c-5.8,2.8-8.9,2.4-11.1,1
			c-1.4-0.9-1.8-3.7-2-5.8c-0.6-5.4-0.3-8.3-3.8-11.3s-9.4-5.3-10.3-2.8c0,0-1.5-3.5,5-7.4C83.8,248.5,90.9,245.2,96.3,244.8z"/>
		<path class="st27" d="M96.3,244.8c4.4-0.3,12.4,3.7,14.9,7s4.6,13.3,3.2,16.3s-12,9.6-19.2,13.1c-5.8,2.8-8.9,2.4-11.1,1
			c-1.4-0.9-1.8-3.7-2-5.8c-0.6-5.4-0.3-8.3-3.8-11.3s-9.4-5.3-10.3-2.8c0,0-1.5-3.5,5-7.4C83.8,248.5,90.9,245.2,96.3,244.8z"/>
		<path class="st10" d="M94.6,272.2l-3.8,1.7c0,0,1.2,9.5,1.5,14.1c0,0,1,2,1.9,2.2s1.8-2,1.9-3.7C95.8,281.7,95.3,276.9,94.6,272.2
			z"/>
		<path class="st8" d="M94.7,273.1l-3.9,1.6c-0.3,0.2-0.7,0.1-0.9-0.3c-0.1-0.1-0.1-0.2-0.1-0.3l-0.3-1.9c0-0.4,0.2-0.9,0.6-1.1
			l3.9-1.7c0.3-0.2,0.7-0.1,0.9,0.3c0.1,0.1,0.1,0.2,0.1,0.3l0.3,2C95.4,272.5,95.2,272.9,94.7,273.1z"/>
		<path class="st1" d="M94.1,284.6c-0.6,0.3-1,1-1,1.7c0,0.4,0.3,0.8,0.7,0.8c0.2,0,0.3,0,0.4-0.1c0.6-0.3,1-1,1-1.7
			C95.2,284.7,94.7,284.4,94.1,284.6z"/>
		<path class="st10" d="M108.8,265l-3.7,1.9c0,0,1.1,9.4,1.6,14c0,0,1.1,1.9,2,2.1s1.8-2.1,1.7-3.8
			C110.2,274.4,109.7,269.7,108.8,265z"/>
		<path class="st8" d="M109.1,265.9l-3.8,1.8c-0.3,0.2-0.7,0.1-0.9-0.3c0-0.1-0.1-0.1-0.1-0.2l-0.4-1.9c-0.1-0.4,0.1-0.9,0.5-1.1
			l3.8-1.9c0.3-0.2,0.7-0.1,0.9,0.2c0,0.1,0.1,0.2,0.1,0.3l0.4,2C109.7,265.3,109.5,265.7,109.1,265.9z"/>
		<path class="st1" d="M108.4,277.4c-0.6,0.4-1,1.1-0.9,1.8c0,0.4,0.3,0.8,0.8,0.8c0.1,0,0.3,0,0.4-0.1c0.6-0.4,1-1.1,0.9-1.8
			C109.5,277.4,109,277.1,108.4,277.4z"/>
		<path class="st2" d="M114.5,287.5c0.3,4.8,0.6,6.7,0.5,9c0.1,1.9-0.9,3.7-2.5,4.8c-2.2,1.8-11.9,7.7-14.7,9.3
			c-3.5,1.9-7.4,3.3-7.5,0.5c-0.1-2.5-0.5-7.7-0.6-9.4c-0.1-2.2,0.8-3.7,5.2-6c4.1-2.2,13.2-8.1,15.8-9.5
			C112.8,285,114.4,286,114.5,287.5z"/>
		<path class="st27" d="M114.5,287.5c0.3,4.8,0.6,6.7,0.5,9c0.1,1.9-0.9,3.7-2.5,4.8c-2.2,1.8-11.9,7.7-14.7,9.3
			c-3.5,1.9-7.4,3.3-7.5,0.5c-0.1-2.5-0.5-7.7-0.6-9.4c-0.1-2.2,0.8-3.7,5.2-6c4.1-2.2,13.2-8.1,15.8-9.5
			C112.8,285,114.4,286,114.5,287.5z"/>
		<path class="st9" d="M65.6,206.8c-0.2,7.2,5.6,13.2,12.8,13.4c0,0,0,0,0,0c7.1,0,11.3-6.1,12.8-13.4c2.8-13.2-5.7-13.4-12.8-13.4
			C71.2,193.6,65.4,199.6,65.6,206.8z"/>
		<path class="st9" d="M59,212.2c0,0,2,9.6,2.8,11.2c0.5,1,1.4,1.7,2.4,2l-0.2-6.7L59,212.2z"/>
		<path class="st9" d="M61.5,198.4c0,0-1.4-0.4-2.9,2c-1.3,2-1.6,6.5,0.4,11.8l3.7,0.4L61.5,198.4z"/>
		<path class="st9" d="M60.1,200.4l-4.6,0.1c-0.2-1.2,0.7-2.3,1.8-2.4c0.1,0,0.2,0,0.2,0C58.9,198,60,199,60.1,200.4z"/>
		<path class="st9" d="M59.6,199.3l-3.4-3.3c0.8-0.9,2.2-1,3.1-0.2c0,0,0.1,0.1,0.1,0.1C60.3,196.8,60.4,198.3,59.6,199.3z"/>
		<path class="st24" d="M63.8,212.7c-0.8,0.5-1.8-1-2.7-2s-3.8-1.9-5.3,1.3s1.1,6.4,3.2,7.6c3.3,1.8,4.7-0.9,4.7-0.9l0.7,15.3
			c1.9,5.3,17.2,6.4,14.1-0.3V229c1.5,0.2,3.1,0.3,4.6,0.2c3-0.5,4.9-2.9,5.8-6.3c1.4-5.4,2-9.8,0.8-20.4
			c-1.3-11.7-14.4-11.8-21.4-7.2S63.8,212.7,63.8,212.7z"/>
		<path class="st9" d="M80.1,200.6c-3.1-0.3-6.2-0.9-9.3-1.2c-0.7-0.1-1.3,0-2,0.1c-2.4,0.6-2.1,3.4-2.5,5.4c-0.7,3.3-1.2,9-2.5,9
			c-0.4,0-1.8-2.4-2.7-3.3c-0.5-0.8-0.8-1.6-0.8-2.6c-0.2-1.4-0.4-2.8-0.5-4.2c-0.1-1.2-0.2-2.4-0.2-3.6c-0.1-1.3,0-2.7,0.3-4
			c0.3-1.1,0.9-2.2,1.7-3l0.2-0.3c1.6-1.6,3.5-2.9,5.6-3.8c3-1.1,6.2-1.8,9.4-2c3.2-0.3,6.4-0.5,9.6-1.1c0.2-0.1,0.4-0.1,0.6,0
			c0.3,0.1,0.4,0.4,0.4,0.7c0.3,1.5-0.4,3-1.6,3.9c2.2,0.2,4.6-0.9,6.7-1.5c0.3-0.1,0.7-0.1,1.1,0c0.2,0.1,0.3,0.4,0.4,0.6
			c0.1,0.6,0.2,1.1,0.1,1.7c-0.2,1.7-0.8,3.3-1.9,4.7c-1.6,2.1-3.9,3.6-6.4,4.2C83.9,200.8,82,200.9,80.1,200.6z"/>
		<path class="st28" d="M78.4,229c0,0-7.5-1.5-9.8-2.8c-1.4-0.8-2.5-1.9-3.2-3.3c0.3,1.4,1,2.7,1.8,3.9c1.7,2.3,11.2,4.1,11.2,4.1
			V229z"/>
		<path class="st9" d="M77,211.3c0,0.8-0.6,1.4-1.3,1.4c0,0,0,0,0,0c-0.8,0.1-1.5-0.5-1.6-1.3s0.5-1.5,1.3-1.6
			c0.8-0.1,1.5,0.5,1.6,1.3C77,211.2,77,211.2,77,211.3z"/>
		<path class="st9" d="M74.8,205.5l-2.8,1.6c-0.4-0.8-0.1-1.9,0.7-2.4c0.7-0.4,1.7-0.2,2.1,0.6C74.8,205.4,74.8,205.5,74.8,205.5z"
			/>
		<path class="st28" d="M78,220.9l3,1.2c-0.3,0.8-1.1,1.3-2,1.1c0,0,0,0,0,0C78.1,222.8,77.7,221.8,78,220.9z"/>
		<path class="st9" d="M89.3,206.8l-2.6-2.1c0.5-0.7,1.4-0.9,2.1-0.5c0,0,0.1,0.1,0.1,0.1C89.6,204.9,89.8,206,89.3,206.8z"/>
		<path class="st9" d="M88.1,210.9c-0.1,0.7-0.7,1.3-1.4,1.2c-0.7-0.1-1.3-0.7-1.2-1.4c0.1-0.7,0.6-1.2,1.3-1.2
			C87.5,209.5,88.1,210.1,88.1,210.9z"/>
		<polygon class="st28" points="81,209.8 81.1,218.2 85.9,217.1 		"/>
		<path class="st24" d="M55.4,236.6c-7.2,3-11.8,3.1-13.6,15.2c-1.1,6.9-6.1,27.1-3.7,31.3c4.1,7.5,18.6,25,25.6,30.1
			c3,2.2,6.2,4.5,9.7,5.8c3.2,1.1,7.5,1.4,10.6-0.2c1.6-0.8,2.8-2.3,3.3-4.1c0.3-0.9,0.2-1.8-0.3-2.6c-0.5-0.5-1.2-0.8-1.9-0.9
			c-2.8-0.7-5.6-1.3-7.9-3.1c-0.2-0.2-0.5-0.5-0.4-0.7c0.2-0.4,2.3-0.2,2.7-0.2c1.2-0.1,2.4-0.3,3.5-0.8c0.5-0.2,1-0.5,1.3-1
			c0.3-0.5,0.2-1.1-0.2-1.5c-0.2-0.1-0.5-0.2-0.7-0.2c-2-0.3-4-0.7-5.9-1.1c-1.7-0.4-3.3-0.8-5-1c-1.2-0.1-2.3-0.2-3.5-0.5
			c-2.8-0.9-9.7-8.7-11.9-12c-2.2-3.2-4-6.7-5.5-10.3c0.7-7.3,1.4-13,3.6-20.1S58.9,244.1,55.4,236.6z"/>
		<path class="st2" d="M56.1,236c0,0-9.6,1.9-12.6,7.6c-3,5.6-7.5,36.3-6.8,38.6c1.8,6.5,18.6,23.1,18.6,23.1s2.4-7,9-7.9l-11-18.5
			l5-25.8C58.2,253.2,60.3,242.5,56.1,236z"/>
		<g class="st29">
			<path d="M56.1,236c0,0-9.6,1.9-12.6,7.6c-3,5.6-7.5,36.3-6.8,38.6c1.8,6.5,18.6,23.1,18.6,23.1s2.4-7,9-7.9l-11-18.5l5-25.8
				C58.2,253.2,60.3,242.5,56.1,236z"/>
		</g>
	</g>
</g>
</svg>
