<?xml version="1.0" encoding="utf-8"?>
<!-- Generator: Adobe Illustrator 23.0.5, SVG Export Plug-In . SVG Version: 6.00 Build 0)  -->
<svg version="1.1" id="Layer_1" xmlns="http://www.w3.org/2000/svg" xmlns:xlink="http://www.w3.org/1999/xlink" x="0px" y="0px"
	 viewBox="0 0 4098.2 1880.3" style="enable-background:new 0 0 4098.2 1880.3;" xml:space="preserve">
<style type="text/css">
	.st0{fill:#FFFFFF;}
	.st1{fill:#F57F3C;}
	.st2{fill:none;}
</style>
<polygon class="st0" points="424.3,1098.2 517.1,1098.2 392.9,1425.1 296.8,1425.1 172.6,1098.2 265.4,1098.2 344.5,1327.1 "/>
<path class="st0" d="M615.8,1296.3c11.3,41,42.1,61.4,92.2,61.4c32.3,0,56.7-10.9,73.2-32.7l68,39.2
	c-32.3,46.6-79.8,69.9-142.5,69.9c-54,0-97.4-16.3-130.1-49c-32.7-32.7-49-73.9-49-123.6c0-49.3,16.1-90.3,48.4-123.2
	c32.3-32.9,73.7-49.4,124.2-49.4c47.9,0,87.5,16.6,118.7,49.7c31.2,33.1,46.8,74.1,46.8,122.9c0,10.9-1.1,22.4-3.3,34.7H615.8z
	 M614.5,1231h166.7c-4.8-22.2-14.7-38.8-29.8-49.7c-15-10.9-32.2-16.3-51.3-16.3c-22.7,0-41.4,5.8-56.2,17.3
	C629.1,1193.8,619.3,1210,614.5,1231"/>
<path class="st0" d="M1106.2,1089.1c35.7,0,65.3,12,88.6,36c23.3,24,35,57.1,35,99.4v200.7h-84.3v-190.3c0-21.8-5.9-38.5-17.7-50
	c-11.8-11.5-27.5-17.3-47.1-17.3c-21.8,0-39.2,6.8-52.3,20.3c-13.1,13.5-19.6,33.8-19.6,60.8v176.5h-84.3v-326.9h84.3v36.6
	C1029.2,1104.3,1061.7,1089.1,1106.2,1089.1"/>
<path class="st0" d="M1549.4,967.5h84.3v457.7h-84.3v-38.6c-24.8,31.8-60.2,47.7-105.9,47.7c-44,0-81.6-16.7-112.8-50
	c-31.2-33.3-46.8-74.2-46.8-122.6s15.6-89.2,46.8-122.6c31.2-33.3,68.8-50,112.8-50c45.8,0,81.1,15.9,105.9,47.7V967.5z
	 M1394.2,1328c17.2,17.2,38.9,25.8,65.1,25.8s47.7-8.6,64.7-25.8c17-17.2,25.5-39.3,25.5-66.4c0-27-8.5-49.1-25.5-66.4
	c-17-17.2-38.6-25.8-64.7-25.8s-47.8,8.6-65.1,25.8c-17.2,17.2-25.8,39.3-25.8,66.4C1368.3,1288.7,1376.9,1310.8,1394.2,1328"/>
<path class="st1" d="M1897.9,1179.3H1824v136c0,11.3,2.8,19.6,8.5,24.8c5.7,5.2,13.9,8.2,24.8,8.8c10.9,0.7,24.4,0.6,40.5-0.3v76.5
	c-58,6.5-98.8,1.1-122.6-16.3c-23.8-17.4-35.6-48.6-35.6-93.5v-136h-56.9v-81.1h56.9v-66l84.3-25.5v91.5h73.9L1897.9,1179.3
	L1897.9,1179.3z"/>
<path class="st1" d="M2018.8,1296.3c11.3,41,42.1,61.4,92.2,61.4c32.3,0,56.6-10.9,73.2-32.7l68,39.2
	c-32.3,46.6-79.8,69.9-142.5,69.9c-54.1,0-97.4-16.3-130.1-49c-32.7-32.7-49-73.9-49-123.6c0-49.3,16.1-90.3,48.4-123.2
	c32.3-32.9,73.6-49.4,124.2-49.4c47.9,0,87.5,16.6,118.7,49.7c31.2,33.1,46.7,74.1,46.7,122.9c0,10.9-1.1,22.4-3.3,34.7H2018.8z
	 M2017.5,1231h166.7c-4.8-22.2-14.7-38.8-29.8-49.7c-15-10.9-32.1-16.3-51.3-16.3c-22.7,0-41.4,5.8-56.2,17.3
	C2032.1,1193.8,2022.3,1210,2017.5,1231"/>
<path class="st1" d="M2392.2,1191.1c0,8.7,5.8,15.8,17.3,21.3c11.5,5.4,25.6,10.3,42.2,14.4c16.6,4.2,33.1,9.4,49.7,15.7
	c16.6,6.3,30.6,16.9,42.2,31.7c11.5,14.8,17.3,33.3,17.3,55.6c0,33.6-12.5,59.4-37.6,77.5c-25.1,18.1-56.3,27.1-93.8,27.1
	c-67.1,0-112.9-25.9-137.3-77.8l73.2-41.2c9.6,28.3,30.9,42.5,64.1,42.5c30.1,0,45.1-9.4,45.1-28.1c0-8.7-5.8-15.8-17.3-21.3
	c-11.6-5.4-25.6-10.3-42.2-14.7c-16.6-4.3-33.1-9.8-49.7-16.3c-16.6-6.5-30.6-16.9-42.2-31.1c-11.6-14.2-17.3-31.9-17.3-53.3
	c0-32.3,11.9-57.6,35.6-76.2c23.8-18.5,53.3-27.8,88.6-27.8c26.6,0,50.8,6,72.6,18c21.8,12,39,29.1,51.6,51.3l-71.9,39.2
	c-10.5-22.2-27.9-33.3-52.3-33.3c-10.9,0-19.9,2.4-27.1,7.2C2395.8,1176.3,2392.2,1182.8,2392.2,1191.1"/>
<polygon class="st0" points="2916.5,1425.1 2818.4,1425.1 2699.4,1276.7 2699.4,1425.1 2615.1,1425.1 2615.1,967.5 2699.4,967.5 
	2699.4,1242.1 2811.9,1098.2 2912.6,1098.2 2781.2,1259.7 "/>
<path class="st0" d="M3000.2,1059c-13.9,0-26.1-5.1-36.3-15.4s-15.4-22.3-15.4-36.3c0-13.9,5.1-26.2,15.4-36.6
	c10.2-10.5,22.3-15.7,36.3-15.7c14.4,0,26.7,5.2,36.9,15.7c10.2,10.5,15.4,22.7,15.4,36.6c0,14-5.1,26-15.4,36.3
	C3026.9,1053.9,3014.6,1059,3000.2,1059 M2958.3,1098.2h84.3v326.9h-84.3V1098.2z"/>
<rect x="3119.8" y="947.9" class="st0" width="84.3" height="477.3"/>
<path class="st0" d="M3559.8,1384.3c-33.6,33.3-74.5,50-122.9,50s-89.2-16.7-122.6-50c-33.3-33.3-50-74.2-50-122.6
	s16.7-89.2,50-122.6s74.2-50,122.6-50c48.4,0,89.3,16.7,122.9,50c33.6,33.3,50.3,74.2,50.3,122.6
	C3610.1,1310.1,3593.4,1350.9,3559.8,1384.3 M3373.8,1326.4c16.8,17,37.8,25.5,63.1,25.5c25.3,0,46.4-8.5,63.4-25.5
	s25.5-38.6,25.5-64.7s-8.5-47.7-25.5-64.7c-17-17-38.1-25.5-63.4-25.5s-46.3,8.5-63.1,25.5c-16.8,17-25.2,38.6-25.2,64.7
	C3348.6,1287.8,3357,1309.4,3373.8,1326.4"/>
<path class="st0" d="M3740.3,1191.1c0,8.7,5.8,15.8,17.3,21.3c11.5,5.4,25.6,10.3,42.2,14.4c16.6,4.2,33.1,9.4,49.7,15.7
	c16.6,6.3,30.6,16.9,42.2,31.7c11.5,14.8,17.3,33.3,17.3,55.6c0,33.6-12.5,59.4-37.6,77.5c-25.1,18.1-56.3,27.1-93.8,27.1
	c-67.1,0-112.9-25.9-137.3-77.8l73.2-41.2c9.6,28.3,30.9,42.5,64.1,42.5c30.1,0,45.1-9.4,45.1-28.1c0-8.7-5.8-15.8-17.3-21.3
	c-11.6-5.4-25.6-10.3-42.2-14.7c-16.6-4.3-33.1-9.8-49.7-16.3c-16.6-6.5-30.6-16.9-42.2-31.1c-11.6-14.2-17.3-31.9-17.3-53.3
	c0-32.3,11.9-57.6,35.6-76.2c23.8-18.5,53.3-27.8,88.6-27.8c26.6,0,50.8,6,72.6,18c21.8,12,39,29.1,51.6,51.3l-71.9,39.2
	c-10.5-22.2-27.9-33.3-52.3-33.3c-10.9,0-19.9,2.4-27.1,7.2C3743.9,1176.3,3740.3,1182.8,3740.3,1191.1"/>
<path class="st0" d="M2182,870.5L2182,870.5c-6.8,7.1-17.9,7.7-25.3,1.4L1882.9,640c-11-9.6-18.5-22.7-21.3-37l-3.9-19.6
	c-2.6-13.1,8.6-24.8,21.8-22.9l19.8,2.9c14.5,2.1,27.8,9,38,19.5l244.9,262.2C2188.8,852.3,2188.7,863.4,2182,870.5"/>
<polygon class="st0" points="1949.4,915.1 2019.2,738.7 1959.9,682.2 1920.9,887.9 "/>
<polygon class="st0" points="2096.4,933.7 2133.9,839.1 2102.1,808.8 2081.1,919.1 "/>
<polygon class="st0" points="2215.2,636 2042.4,714.3 1983.1,657.8 2186.6,608.8 "/>
<polygon class="st0" points="2240.9,782 2148.3,823.9 2116.5,793.7 2225.6,767.4 "/>
<path class="st1" d="M2617.6,380h-301.1v-80.4c0-46.9-38.1-85-85-85h-363.9c-46.9,0-85,38.1-85,85V380h-301.1
	c-105.9,0-192,86.1-192,192v324.5h69.1V572c0-67.8,55.1-122.9,122.9-122.9h72.4v447.3h69.1V449.1h853v447.3h69.1V449.1h72.4
	c67.8,0,122.9,55.1,122.9,122.9v324.4h69.1V572C2809.6,466.1,2723.5,380,2617.6,380 M1851.7,299.5c0-8.8,7.1-15.9,15.9-15.9h363.9
	c8.8,0,15.9,7.1,15.9,15.9v80.4h-395.6L1851.7,299.5L1851.7,299.5z"/>
<path class="st0" d="M1165.3,1663.7l-25-42.7h-29.9v42.7h-10.7v-106.7h42.7c8.8,0,16.4,3.1,22.6,9.4s9.4,13.8,9.4,22.6
	c0,7.2-2.2,13.7-6.5,19.3s-9.8,9.4-16.5,11.4l26.1,44.1L1165.3,1663.7L1165.3,1663.7z M1110.4,1567v43.9h32c5.9,0,10.9-2.2,15.1-6.5
	c4.2-4.3,6.3-9.5,6.3-15.5c0-6.1-2.1-11.3-6.3-15.6s-9.2-6.4-15.1-6.4L1110.4,1567L1110.4,1567z"/>
<path class="st0" d="M1237.9,1585.6c11.3,0,20.4,4,27.4,12s10.4,17.4,10.4,28.3c0,1.1-0.1,2.7-0.3,4.7h-66.9
	c1,7.7,4.3,13.8,9.8,18.4c5.5,4.5,12.4,6.8,20.5,6.8c5.8,0,10.8-1.2,15-3.6s7.4-5.5,9.5-9.4l8.8,5.2c-3.3,5.4-7.9,9.7-13.7,12.8
	c-5.8,3.2-12.4,4.7-19.8,4.7c-12,0-21.8-3.8-29.3-11.3s-11.3-17.1-11.3-28.7c0-11.4,3.7-20.9,11.1-28.5
	C1216.6,1589.4,1226.2,1585.6,1237.9,1585.6 M1237.9,1595.3c-7.9,0-14.6,2.4-19.9,7.1c-5.3,4.7-8.5,10.8-9.5,18.4h56.9
	c-1-8-4.1-14.3-9.3-18.8C1250.8,1597.6,1244.8,1595.3,1237.9,1595.3"/>
<path class="st0" d="M1342.6,1585.6c9.3,0,16.5,2.8,21.9,8.5s8,13.2,8,22.8v46.8h-10.1v-46.8c0-6.8-1.8-12.1-5.4-15.9
	c-3.6-3.8-8.7-5.6-15.3-5.6c-7.3,0-13.3,2.3-17.8,6.9c-4.6,4.6-6.9,11.8-6.9,21.4v39.9h-10.1v-76.2h10.1v11.9
	C1322.7,1590.2,1331.2,1585.6,1342.6,1585.6"/>
<path class="st0" d="M1447.7,1597.2h-21.9v46.2c0,4.2,0.8,7.1,2.4,8.9c1.6,1.8,4.1,2.7,7.3,2.7c3.3,0.1,7.3,0,12.2-0.2v8.8
	c-10.7,1.6-18.7,0.9-24-2.3c-5.3-3.2-8-9.2-8-18v-46.2h-16v-9.8h16v-18.3l10.1-3.1v21.3h21.9L1447.7,1597.2L1447.7,1597.2z"/>
<path class="st0" d="M1540.7,1587.4h10.1v76.2h-10.1v-14.9c-7,11.2-17.3,16.8-30.8,16.8c-10.9,0-20.2-3.9-27.8-11.6
	c-7.7-7.7-11.5-17.2-11.5-28.4c0-11.2,3.8-20.6,11.5-28.3c7.7-7.7,16.9-11.6,27.8-11.6c13.5,0,23.8,5.6,30.8,16.8V1587.4z
	 M1489.3,1647c5.8,5.8,12.9,8.8,21.3,8.8c8.4,0,15.6-2.9,21.3-8.8c5.8-5.8,8.7-13,8.7-21.4c0-8.4-2.9-15.6-8.7-21.4
	c-5.8-5.8-12.9-8.8-21.3-8.8c-8.4,0-15.6,2.9-21.3,8.8c-5.8,5.8-8.7,13-8.7,21.4C1480.6,1634,1483.5,1641.1,1489.3,1647"/>
<path class="st0" d="M1628.2,1585.6c10.9,0,20.2,3.9,27.8,11.6c7.7,7.7,11.5,17.2,11.5,28.3c0,11.2-3.8,20.6-11.5,28.4
	c-7.7,7.7-16.9,11.6-27.8,11.6c-13.5,0-23.8-5.6-30.8-16.8v14.9h-10.1v-106.7h10.1v45.4C1604.4,1591.2,1614.6,1585.6,1628.2,1585.6
	 M1606.1,1647c5.8,5.8,12.9,8.8,21.3,8.8c8.4,0,15.6-2.9,21.3-8.8c5.8-5.8,8.7-13,8.7-21.4c0-8.4-2.9-15.6-8.7-21.4
	c-5.8-5.8-12.9-8.8-21.3-8.8c-8.4,0-15.6,2.9-21.3,8.8c-5.8,5.8-8.7,13-8.7,21.4C1597.4,1634,1600.3,1641.1,1606.1,1647"/>
<path class="st0" d="M1709.7,1569.1c-1.4,1.4-3.2,2.1-5.2,2.1c-2,0-3.8-0.7-5.2-2.1c-1.4-1.4-2.1-3.2-2.1-5.2s0.7-3.8,2.1-5.2
	s3.2-2.1,5.2-2.1s3.8,0.7,5.2,2.1c1.4,1.4,2.1,3.2,2.1,5.2C1711.8,1566,1711.1,1567.7,1709.7,1569.1 M1699.5,1587.4h10.1v76.2h-10.1
	V1587.4z"/>
<rect x="1746.2" y="1552.4" class="st0" width="10.1" height="111.3"/>
<path class="st0" d="M1803,1569.1c-1.4,1.4-3.2,2.1-5.2,2.1s-3.8-0.7-5.2-2.1c-1.4-1.4-2.1-3.2-2.1-5.2s0.7-3.8,2.1-5.2
	s3.2-2.1,5.2-2.1s3.8,0.7,5.2,2.1c1.4,1.4,2.1,3.2,2.1,5.2C1805.2,1566,1804.4,1567.7,1803,1569.1 M1792.8,1587.4h10.1v76.2h-10.1
	V1587.4z"/>
<path class="st0" d="M1847.4,1607.4c0,3.5,1.5,6.2,4.6,8.2c3.1,2,6.8,3.6,11.1,4.7s8.7,2.4,13.1,3.7s8.1,3.7,11.1,6.9
	s4.6,7.4,4.6,12.6c0,6.5-2.6,11.8-7.7,15.8c-5.1,4.1-11.8,6.1-19.9,6.1c-7.3,0-13.5-1.6-18.7-4.9c-5.1-3.3-8.7-7.5-10.8-12.7l8.5-5
	c1.4,4,4,7.1,7.7,9.4s8.1,3.4,13.2,3.4c5,0,9.2-1,12.5-3s5-5.1,5-9.2c0-3.4-1.5-6.2-4.6-8.2c-3.1-2-6.8-3.6-11.1-4.7
	c-4.4-1.1-8.7-2.4-13.1-3.7c-4.4-1.4-8.1-3.7-11.1-6.9s-4.6-7.4-4.6-12.6c0-6.2,2.5-11.4,7.4-15.6s11.2-6.3,18.7-6.3
	c6.2,0,11.6,1.4,16.3,4.2c4.7,2.8,8.1,6.6,10.4,11.4l-8.4,4.9c-2.9-7.1-9.1-10.7-18.3-10.7c-4.4,0-8.1,1-11.3,3.1
	C1848.9,1600.6,1847.4,1603.5,1847.4,1607.4"/>
<path class="st0" d="M1956.8,1585.6c11.3,0,20.4,4,27.4,12s10.4,17.4,10.4,28.3c0,1.1-0.1,2.7-0.3,4.7h-66.9
	c1,7.7,4.3,13.8,9.8,18.4c5.5,4.5,12.4,6.8,20.5,6.8c5.8,0,10.8-1.2,15-3.6s7.4-5.5,9.5-9.4l8.8,5.2c-3.3,5.4-7.9,9.7-13.7,12.8
	c-5.8,3.2-12.4,4.7-19.8,4.7c-12,0-21.8-3.8-29.3-11.3s-11.3-17.1-11.3-28.7c0-11.4,3.7-20.9,11.1-28.5
	C1935.6,1589.4,1945.2,1585.6,1956.8,1585.6 M1956.8,1595.3c-7.9,0-14.6,2.4-19.9,7.1c-5.3,4.7-8.5,10.8-9.5,18.4h56.9
	c-1-8-4.1-14.3-9.3-18.8C1969.8,1597.6,1963.8,1595.3,1956.8,1595.3"/>
<path class="st0" d="M2119.6,1597.2h-21.9v46.2c0,4.2,0.8,7.1,2.4,8.9c1.6,1.8,4.1,2.7,7.3,2.7c3.3,0.1,7.3,0,12.2-0.2v8.8
	c-10.7,1.6-18.7,0.9-24-2.3c-5.3-3.2-8-9.2-8-18v-46.2h-16v-9.8h16v-18.3l10.1-3.1v21.3h21.9L2119.6,1597.2L2119.6,1597.2z"/>
<path class="st0" d="M2211.1,1654c-7.8,7.7-17.3,11.5-28.4,11.5s-20.7-3.8-28.4-11.5c-7.8-7.7-11.7-17.2-11.7-28.4
	s3.9-20.8,11.7-28.4c7.8-7.7,17.3-11.5,28.4-11.5s20.7,3.8,28.4,11.5c7.8,7.7,11.7,17.2,11.7,28.4S2218.8,1646.3,2211.1,1654
	 M2161.3,1647c5.8,5.8,12.9,8.8,21.3,8.8c8.4,0,15.6-2.9,21.3-8.8c5.8-5.8,8.7-13,8.7-21.4c0-8.4-2.9-15.6-8.7-21.4
	c-5.8-5.8-12.9-8.8-21.3-8.8c-8.4,0-15.6,2.9-21.3,8.8s-8.7,13-8.7,21.4S2155.5,1641.1,2161.3,1647"/>
<path class="st0" d="M2290.4,1585.6c9.3,0,16.5,2.8,21.9,8.5c5.3,5.6,8,13.2,8,22.8v46.8h-10.1v-46.8c0-6.8-1.8-12.1-5.4-15.9
	c-3.6-3.8-8.7-5.6-15.3-5.6c-7.3,0-13.3,2.3-17.8,6.9c-4.6,4.6-6.9,11.8-6.9,21.4v39.9h-10.1v-76.2h10.1v11.9
	C2270.5,1590.2,2279,1585.6,2290.4,1585.6"/>
<polygon class="st0" points="2463.3,1587.4 2473.9,1587.4 2442.7,1663.7 2430.5,1663.7 2399.3,1587.4 2409.9,1587.4 2436.6,1653.1 
	"/>
<path class="st0" d="M2562.3,1654c-7.8,7.7-17.3,11.5-28.4,11.5s-20.7-3.8-28.4-11.5c-7.8-7.7-11.7-17.2-11.7-28.4
	s3.9-20.8,11.7-28.4c7.8-7.7,17.3-11.5,28.4-11.5s20.7,3.8,28.4,11.5c7.8,7.7,11.7,17.2,11.7,28.4S2570.1,1646.3,2562.3,1654
	 M2512.5,1647c5.8,5.8,12.9,8.8,21.3,8.8c8.4,0,15.6-2.9,21.3-8.8c5.8-5.8,8.7-13,8.7-21.4c0-8.4-2.9-15.6-8.7-21.4
	c-5.8-5.8-12.9-8.8-21.3-8.8c-8.4,0-15.6,2.9-21.3,8.8s-8.7,13-8.7,21.4S2506.7,1641.1,2512.5,1647"/>
<path class="st0" d="M2657.8,1587.4h10.7l-32.6,83.2c-2.9,7.5-7.1,13.4-12.6,17.8c-5.4,4.3-11.5,6.2-18.2,5.7v-9.4
	c9.1,1,16.1-4.3,20.9-15.9l2-4.7l-34.1-76.7h10.7l28.7,63.9L2657.8,1587.4z"/>
<path class="st0" d="M2758.4,1587.4h10.1v76.2h-10.1v-14.9c-7,11.2-17.3,16.8-30.8,16.8c-10.9,0-20.1-3.9-27.8-11.6
	c-7.7-7.7-11.5-17.2-11.5-28.4c0-11.2,3.8-20.6,11.5-28.3s16.9-11.6,27.8-11.6c13.5,0,23.8,5.6,30.8,16.8V1587.4z M2707.1,1647
	c5.8,5.8,12.9,8.8,21.3,8.8c8.4,0,15.6-2.9,21.3-8.8c5.8-5.8,8.7-13,8.7-21.4c0-8.4-2.9-15.6-8.7-21.4c-5.8-5.8-12.9-8.8-21.3-8.8
	c-8.4,0-15.6,2.9-21.3,8.8s-8.7,13-8.7,21.4S2701.3,1641.1,2707.1,1647"/>
<path class="st0" d="M2870.6,1587.4h10.1v73.2c0,11-3.8,19.6-11.3,25.9c-7.5,6.3-16.5,9.4-27,9.4c-17.9,0-29.9-6.2-36.1-18.6l8.8-5
	c4.6,9.3,13.7,13.9,27.3,13.9c8.7,0,15.6-2.3,20.7-6.9c5-4.6,7.6-10.8,7.6-18.7v-11.9c-7,11.2-17.3,16.8-30.8,16.8
	c-10.9,0-20.1-3.9-27.8-11.6c-7.7-7.7-11.5-17.2-11.5-28.4c0-11.2,3.8-20.6,11.5-28.3s16.9-11.6,27.8-11.6
	c13.5,0,23.8,5.6,30.8,16.8L2870.6,1587.4L2870.6,1587.4z M2819.3,1647c5.8,5.8,12.9,8.8,21.3,8.8c8.4,0,15.6-2.9,21.3-8.8
	c5.8-5.8,8.7-13,8.7-21.4c0-8.4-2.9-15.6-8.7-21.4c-5.8-5.8-12.9-8.8-21.3-8.8c-8.4,0-15.6,2.9-21.3,8.8s-8.7,13-8.7,21.4
	S2813.5,1641.1,2819.3,1647"/>
<path class="st0" d="M2952.5,1585.6c11.3,0,20.4,4,27.4,12c7,8,10.4,17.4,10.4,28.3c0,1.1-0.1,2.7-0.3,4.7h-66.9
	c1,7.7,4.3,13.8,9.8,18.4s12.4,6.8,20.5,6.8c5.8,0,10.8-1.2,15-3.6s7.4-5.5,9.5-9.4l8.8,5.2c-3.4,5.4-7.9,9.7-13.7,12.8
	s-12.4,4.7-19.8,4.7c-12,0-21.8-3.8-29.3-11.3s-11.3-17.1-11.3-28.7c0-11.4,3.7-20.9,11.1-28.5
	C2931.3,1589.4,2940.8,1585.6,2952.5,1585.6 M2952.5,1595.3c-7.9,0-14.6,2.4-19.9,7.1c-5.3,4.7-8.5,10.8-9.5,18.4h56.9
	c-1-8-4.1-14.3-9.3-18.8C2965.4,1597.6,2959.4,1595.3,2952.5,1595.3"/>
<rect x="-571.9" y="-789.1" class="st2" width="5201" height="3368.1"/>
</svg>
